<svg width="242" height="241" viewBox="0 0 242 241" fill="none" xmlns="http://www.w3.org/2000/svg">
<path d="M182.693 137.154C183.091 137.157 183.489 137.16 183.886 137.162C183.828 137.23 183.791 137.31 183.791 137.401C183.791 146.564 183.791 155.728 183.791 164.892C183.274 164.892 182.756 164.892 182.239 164.892C182.264 164.843 182.28 164.79 182.28 164.732C182.28 157.913 182.28 151.094 182.28 144.275C182.28 144.153 182.233 144.064 182.158 144C182.483 141.731 182.778 139.41 182.693 137.154ZM190.92 137.313C190.92 146.506 190.92 155.699 190.92 164.892C191.514 164.892 192.108 164.892 192.701 164.892C192.701 155.728 192.701 146.565 192.701 137.401C192.701 137.315 192.735 137.24 192.788 137.174C192.156 137.176 191.525 137.175 190.893 137.176C190.909 137.216 190.92 137.26 190.92 137.313ZM184.98 137.313C184.98 146.506 184.98 155.699 184.98 164.892C185.574 164.892 186.168 164.892 186.761 164.892C186.761 155.728 186.761 146.565 186.761 137.401C186.761 137.315 186.795 137.24 186.848 137.174C186.215 137.172 185.582 137.169 184.949 137.167C184.967 137.21 184.98 137.256 184.98 137.313ZM196.822 137.147C196.828 137.16 196.834 137.172 196.839 137.187C196.856 137.172 196.876 137.16 196.896 137.147C196.872 137.147 196.847 137.147 196.822 137.147ZM187.925 137.177C187.94 137.218 187.95 137.261 187.95 137.313C187.95 146.506 187.95 155.699 187.95 164.892C188.544 164.892 189.138 164.892 189.731 164.892C189.731 155.728 189.731 146.565 189.731 137.401C189.731 137.316 189.764 137.242 189.816 137.177C189.249 137.177 188.682 137.179 188.115 137.178C188.051 137.178 187.988 137.178 187.925 137.177ZM203.542 149.221C203.523 149.223 203.502 149.225 203.487 149.225C203.072 149.226 202.657 149.227 202.242 149.229C202.25 149.258 202.254 149.291 202.254 149.326C202.254 154.462 202.254 159.597 202.254 164.733C202.254 164.791 202.238 164.843 202.212 164.892C202.658 164.892 203.104 164.892 203.551 164.892C203.547 164.869 203.542 164.847 203.542 164.821C203.542 159.621 203.542 154.421 203.542 149.221ZM193.89 137.313C193.89 146.506 193.89 155.699 193.89 164.892C194.484 164.892 195.078 164.892 195.671 164.892C195.671 155.728 195.671 146.565 195.671 137.401C195.671 137.307 195.71 137.225 195.772 137.156C195.135 137.16 194.498 137.167 193.861 137.17C193.879 137.212 193.89 137.258 193.89 137.313ZM173.126 146.532C173.101 146.516 173.082 146.495 173.076 146.465C172.438 143.493 172.178 140.415 172.27 137.38C172.275 137.202 172.529 137.07 172.799 137.003C172.8 137 172.8 136.998 172.801 136.995C172.279 136.982 171.757 136.965 171.236 136.949C171.236 146.21 171.236 155.472 171.236 164.733C171.236 164.791 171.22 164.843 171.194 164.892C171.841 164.892 172.488 164.892 173.135 164.892C173.131 164.869 173.126 164.847 173.126 164.821C173.126 158.725 173.126 152.628 173.126 146.532ZM209.056 136.904C208.419 136.926 207.78 136.938 207.142 136.957C207.208 138.324 207.127 139.715 206.981 141.106C206.802 142.814 206.528 144.521 206.302 146.178C206.285 146.303 206.123 146.393 205.942 146.452C205.763 146.511 205.566 146.539 205.476 146.539C205.223 146.54 204.971 146.542 204.719 146.543C204.706 146.85 204.668 147.16 204.613 147.469C204.686 147.532 204.731 147.622 204.731 147.741C204.731 153.405 204.731 159.069 204.731 164.733C204.731 164.791 204.715 164.843 204.689 164.893C205.121 164.893 205.552 164.893 205.983 164.893C206.363 164.893 206.742 164.893 207.122 164.893C207.599 164.893 208.075 164.893 208.551 164.893C208.948 164.893 209.344 164.893 209.74 164.893C210.364 164.893 210.987 164.893 211.611 164.893C211.611 155.599 211.611 146.306 211.611 137.013C211.611 136.934 211.649 136.864 211.709 136.801C210.825 136.84 209.94 136.874 209.056 136.904ZM175.774 149.234C175.654 149.235 175.534 149.235 175.414 149.235C175.316 149.235 175.115 149.247 175.072 149.124C174.791 148.304 174.669 147.434 174.689 146.571C174.564 146.572 174.439 146.572 174.315 146.573C174.315 152.626 174.315 158.679 174.315 164.733C174.315 164.791 174.298 164.843 174.273 164.892C174.776 164.892 175.279 164.892 175.783 164.892C175.779 164.869 175.774 164.847 175.774 164.821C175.774 159.625 175.774 154.43 175.774 149.234ZM198.359 146.575C198.197 146.576 198.034 146.576 197.872 146.577C197.787 146.578 197.557 146.589 197.53 146.465C197.216 145.001 196.994 143.511 196.86 142.013C196.86 149.64 196.86 157.265 196.86 164.892C197.363 164.892 197.865 164.892 198.368 164.892C198.364 164.869 198.359 164.847 198.359 164.821C198.359 158.739 198.359 152.657 198.359 146.575ZM178.48 149.226C177.975 149.227 177.469 149.229 176.963 149.231C176.963 154.398 176.963 159.565 176.963 164.733C176.963 164.791 176.947 164.843 176.921 164.892C177.444 164.892 177.966 164.892 178.489 164.892C178.485 164.869 178.48 164.847 178.48 164.821C178.48 159.623 178.48 154.424 178.48 149.226ZM181.091 146.534C181.065 146.537 181.039 146.539 181.021 146.539C180.769 146.54 180.517 146.542 180.264 146.543C180.232 147.32 180.022 148.122 179.86 148.863C179.842 148.945 179.767 149.01 179.67 149.063C179.67 154.286 179.67 159.509 179.67 164.733C179.67 164.791 179.653 164.843 179.628 164.892C180.118 164.892 180.609 164.892 181.1 164.892C181.096 164.869 181.091 164.847 181.091 164.821C181.091 158.725 181.091 152.63 181.091 146.534ZM201.118 149.231C200.702 149.233 200.285 149.234 199.869 149.235C199.779 149.235 199.611 149.24 199.548 149.149C199.548 154.344 199.548 159.538 199.548 164.733C199.548 164.791 199.532 164.843 199.506 164.892C200.029 164.892 200.551 164.892 201.074 164.892C201.07 164.869 201.065 164.847 201.065 164.821C201.065 159.686 201.065 154.55 201.065 149.415C201.065 149.347 201.085 149.286 201.118 149.231ZM170.046 136.914C169.816 136.906 169.584 136.902 169.353 136.893C168.941 136.879 168.53 136.863 168.117 136.847L168.096 136.847C168.096 146.195 168.096 155.544 168.096 164.892C168.749 164.892 169.402 164.892 170.055 164.892C170.051 164.869 170.046 164.847 170.046 164.821C170.046 155.518 170.046 146.216 170.046 136.914ZM115.871 153.697C115.032 153.954 114.177 154.149 113.309 154.275C114.138 154.266 115.006 154.047 115.871 153.697ZM120.054 142.167C118.766 136.055 118.213 129.246 114.411 124.041C111.29 119.768 106.731 116.882 101.786 114.73C101.887 117.714 102.39 120.735 102.72 123.687C103.397 129.765 104.095 135.841 104.757 141.921C104.909 143.316 105.066 144.714 105.225 146.114C105.242 146.112 105.259 146.109 105.276 146.109C110.748 146.093 115.56 145.326 120.133 142.313C120.095 142.275 120.066 142.227 120.054 142.167ZM105.313 146.891C105.555 149.009 105.797 151.13 106.03 153.255C111.426 154.669 117.176 154.042 121.258 149.965C121.607 149.616 122.603 148.811 122.614 148.303C122.654 146.328 122.455 144.158 121.434 142.422C116.472 145.903 111.25 146.83 105.313 146.891ZM86.162 113.912C86.4913 114.387 86.8194 114.862 87.1483 115.338C87.7315 113.623 88.3148 111.907 88.898 110.192C88.8324 109.206 88.8737 108.236 89.0102 107.279C87.5355 108.477 86.0608 109.674 84.586 110.872C84.4248 111.003 84.3094 111.128 84.2215 111.258C84.2604 111.271 84.2948 111.287 84.3191 111.307C85.0628 111.919 85.6185 113.128 86.162 113.912ZM75.3141 115.745C76.1468 114.705 76.9881 113.672 77.8544 112.661C78.3064 112.134 78.98 111.093 79.7338 110.53C79.6378 110.458 79.5183 110.377 79.3652 110.274C77.1829 108.805 75.0002 107.338 72.8296 105.853C72.5987 107.045 72.3249 108.227 72.039 109.387C72.0228 109.454 71.9798 109.513 71.9219 109.565C71.9973 109.632 72.0451 109.725 72.0451 109.852C72.0455 111.963 73.8357 114.133 75.3141 115.745ZM94.986 112.257C94.9832 112.243 94.9844 112.231 94.9828 112.218C93.2493 111.666 91.5267 111.165 89.8547 110.691C89.1965 112.626 88.5387 114.561 87.8806 116.496C87.7761 116.804 86.9769 117.13 86.7489 116.798C86.1446 115.921 85.5391 115.045 84.9311 114.17C84.5864 113.674 84.2357 112.997 83.8278 112.436C83.7983 112.558 83.765 112.686 83.7249 112.829C83.2932 114.357 82.8594 115.886 82.4118 117.41C82.4082 117.437 82.4078 117.463 82.4041 117.49C82.4041 117.49 82.4041 117.49 82.4041 117.491C81.9955 123.534 81.5868 129.576 81.1777 135.618C81.7784 135.623 82.3802 135.623 82.9825 135.619C81.5993 133.718 80.5612 131.707 82.5439 129.917C83.5682 128.993 84.9202 128.44 85.8651 127.432C87.4099 125.784 86.8558 123.766 85.9806 121.915C85.8842 121.711 87.0158 121.309 87.1539 121.601C87.9632 123.312 88.531 125.174 87.3637 126.846C86.64 127.882 85.4212 128.475 84.4171 129.189C82.8075 130.334 82.1328 132.208 83.2158 134.052C83.5488 134.618 83.9428 135.12 84.3487 135.604C85.418 135.584 86.4881 135.547 87.5569 135.489C87.0677 133.924 87.22 132.32 88.6404 130.779C89.6416 129.694 90.8819 128.721 91.555 127.379C92.6073 125.281 92.1375 123.047 91.3351 120.944C91.1593 120.483 92.3242 120.147 92.5085 120.631C93.8617 124.176 93.504 127.12 90.8191 129.823C89.8754 130.773 88.5869 131.826 88.4184 133.245C88.3293 133.995 88.4614 134.721 88.721 135.417C91.3201 135.234 93.903 134.905 96.4328 134.356C96.4134 130.293 96.2222 126.227 95.9662 122.174C95.7601 118.9 95.6916 115.475 94.986 112.257ZM81.2243 117.608C81.4855 115.691 80.9938 113.701 80.4085 111.88C80.3514 111.703 80.3085 111.558 80.2712 111.434C80.0124 111.707 79.7573 111.985 79.5094 112.268C78.9731 112.88 78.4462 113.499 77.9277 114.126C77.208 114.995 76.4947 115.87 75.7928 116.754C75.5518 117.057 75.0305 117.117 74.762 116.83C73.1411 115.098 71.0078 112.683 70.8676 110.187C70.7603 110.205 70.6534 110.226 70.5464 110.246C68.1628 118.019 66.7586 126.024 66.2381 134.133C66.7124 134.445 67.3325 134.634 67.9903 134.756C68.2049 134.79 68.4318 134.825 68.6679 134.861C69.4014 134.954 70.1309 134.993 70.7089 135.058C73.4606 135.37 76.2319 135.534 79.0003 135.589C79.3352 135.595 79.6706 135.6 80.0064 135.606C80.4118 129.607 80.8176 123.608 81.2235 117.61C81.2239 117.609 81.2243 117.608 81.2243 117.608ZM48.6395 121.663C43.9278 126.562 43.9452 133.57 41.4271 139.549C41.419 139.567 41.4121 139.586 41.404 139.605C41.4012 139.611 41.3988 139.618 41.3959 139.624C41.3052 139.838 40.8305 139.968 40.5125 139.966C40.4761 139.997 40.4368 140.031 40.3951 140.068C39.3679 140.968 36.8357 143.333 37.3987 144.32C37.5898 144.655 38.1998 145.131 38.984 145.647C39.9167 146.26 41.0962 146.928 42.1213 147.482C43.4028 148.174 44.4401 148.687 44.4401 148.687L54.2646 151.042L58.7884 152.127C58.8102 151.821 58.8325 151.514 58.854 151.207C58.871 150.965 58.8892 150.723 58.9058 150.481C59.0435 148.46 59.1711 146.438 59.3024 144.417C59.3169 144.193 59.3319 143.97 59.3465 143.746C59.6098 139.732 59.8937 135.72 60.3093 131.717C60.7508 127.464 61.2502 123.182 62.2036 119.008C62.7431 116.647 63.3442 114.054 64.7172 111.996C63.2591 112.678 60.2748 114.096 57.3173 115.628C54.2698 117.314 50.998 119.211 48.6395 121.663Z" fill="#2A2A2B"/>
<path d="M223.656 176.332C223.325 176.332 222.994 176.332 222.663 176.332C222.663 172.58 222.663 168.828 222.663 165.076C222.663 165.032 222.644 164.997 222.611 164.97C222.571 164.923 222.479 164.892 222.307 164.892C220.226 164.892 218.145 164.892 216.064 164.892C216.064 155.494 216.064 146.096 216.064 136.698C216.064 136.602 215.973 136.551 215.843 136.534C216.721 136.473 217.916 136.429 218.578 135.883C218.595 135.869 218.603 135.858 218.607 135.847C218.613 135.841 218.621 135.835 218.627 135.828C219.063 135.289 219.039 134.303 219.086 133.658C219.208 131.973 219.159 130.27 219.125 128.583C219.055 124.977 218.832 121.369 218.896 117.761C218.924 116.208 219.231 114.782 218.462 113.336C217.607 111.728 215.556 111.07 213.913 110.661C212.35 110.273 210.606 110.304 209.008 110.225C196.074 109.581 182.933 109.554 170.002 110.29C168.269 110.389 166.488 110.472 164.832 111.041C163.457 111.514 162.24 112.127 161.28 113.239C160.17 114.525 160.522 116.224 160.58 117.759C160.713 121.313 160.454 124.889 160.369 128.441C160.329 130.07 160.307 131.701 160.365 133.329C160.393 134.123 160.31 135.428 160.847 136.093C161.256 136.597 162.791 136.518 163.347 136.567C163.643 136.593 163.941 136.614 164.237 136.636C164.042 136.721 163.888 136.851 163.888 137.012C163.888 146.305 163.888 155.598 163.888 164.892C161.107 164.892 158.326 164.892 155.545 164.892C155.503 164.892 155.457 164.899 155.41 164.91C155.068 164.87 154.465 165.071 154.465 165.39C154.465 169.037 154.465 172.684 154.465 176.332C138.839 176.332 123.213 176.332 107.587 176.332C107.598 176.3 107.605 176.266 107.605 176.231C107.596 172.421 107.412 168.604 107.127 164.787C110.469 167.594 114.328 169.707 118.8 169.859C122.951 170 126.855 168.124 130.075 165.661C137.981 159.613 142.971 149.882 146.933 140.99C150.37 138.87 153.137 135.503 155.319 132.168C156.596 130.215 159.303 125.778 156.603 123.866C156.56 123.835 156.507 123.816 156.45 123.805C156.522 123.569 156.588 123.33 156.644 123.089C156.86 122.15 156.612 120.844 155.369 121.176C154.81 121.325 154.354 121.748 153.954 122.219C155.011 119.94 155.498 117.802 153.42 118.056C152.345 118.187 151.563 118.824 150.93 119.687C151.833 117.229 152.247 114.892 150.515 114.906C148.581 114.923 147.822 116.701 146.998 118.169C145.912 120.102 145.001 122.186 143.862 124.106C143.835 123.977 143.806 123.851 143.786 123.711C143.45 121.436 143.592 117.78 140.28 118.996C138.055 119.814 137.462 122.631 137.218 124.703C136.938 127.076 136.648 130.247 137.66 132.505C137.666 132.518 137.676 132.528 137.685 132.538C137.548 132.597 137.444 132.674 137.422 132.761C136.7 135.598 135.616 138.249 133.653 140.463C132.231 142.066 130.366 143.19 128.557 144.3C126.709 145.434 125.133 146.661 123.82 148.085C123.986 147.572 123.756 146.501 123.725 146.091C123.595 144.428 123.171 142.796 122.167 141.446C122.041 141.277 121.45 141.415 121.179 141.605C119.874 135.319 119.202 128.621 115.304 123.284C109.637 115.527 98.8824 112.292 90.0689 109.802C89.9681 108.102 90.2172 106.401 90.7458 104.783C90.7644 104.725 90.7688 104.674 90.7672 104.628C90.9657 104.618 91.1646 104.608 91.3578 104.599C95.4883 104.412 100.91 103.476 103.254 99.6243C105.358 96.1667 105.146 90.5014 102.382 87.4229C102.373 86.3635 102.25 85.342 102.042 84.3468C102.816 82.7871 102.932 80.7559 102.262 79.0594C101.508 77.5239 100.381 76.4516 99.0193 76.1028C98.8893 75.7915 98.7601 75.4794 98.6346 75.1657C98.6216 75.1334 98.6046 75.1043 98.5851 75.0781C98.8508 75.0143 99.1165 74.9452 99.381 74.8625C102.735 73.8148 104.254 70.3119 103.593 66.9984C102.404 61.046 93.6122 63.6841 90.1277 66.6358C88.1491 61.9185 81.5965 65.7944 78.7888 67.7118C76.3923 69.349 73.9317 70.7576 71.4667 72.2818C69.1511 73.7134 67.8915 75.6159 68.4289 78.2632C66.4439 78.2487 64.6083 79.0945 64.6386 81.4927C64.6715 84.0997 65.8161 86.9489 67.3568 89.14C65.0704 89.4194 63.5139 91.367 64.2976 94.236C65.1154 97.2302 69.3479 97.1857 71.9361 96.4966C72.4898 99.2565 72.3209 102.087 71.8535 104.87C71.7939 104.947 71.7729 105.03 71.8122 105.112C71.5533 106.599 71.2151 108.072 70.8603 109.512C70.8449 109.574 70.8518 109.625 70.8745 109.667C70.674 109.703 70.4743 109.743 70.2747 109.782C70.1203 109.78 69.9389 109.814 69.7821 109.877C62.383 111.462 55.5299 115.68 49.4808 120.026C42.9824 124.695 43.1218 132.785 40.3299 139.552C38.6988 140.646 36.3561 142.379 36.8964 144.621C37.2225 145.974 38.5635 146.886 39.937 147.537C39.7977 147.612 39.6964 147.714 39.6903 147.832C39.2501 155.937 33.2204 168.087 41.7876 173.882C43.7135 175.185 45.895 175.955 48.1705 176.33C38.218 176.33 28.2656 176.33 18.3132 176.33C18.0511 176.33 16.9705 176.835 17.5594 176.835C63.2109 176.835 108.862 176.835 154.514 176.835C154.628 176.932 154.924 176.921 155.183 176.835C163.205 176.835 171.225 176.835 179.246 176.835C193.344 176.835 207.441 176.835 221.538 176.835C221.652 176.932 221.948 176.921 222.208 176.835C222.439 176.835 222.671 176.835 222.902 176.835C223.164 176.836 224.245 176.332 223.656 176.332ZM121.188 154.606C122.024 151.919 123.239 149.481 125.239 147.466C126.736 145.959 128.626 144.902 130.417 143.792C134.774 141.095 137.313 137.559 138.583 132.571C138.594 132.527 138.577 132.494 138.543 132.468C138.735 132.383 138.87 132.276 138.833 132.192C138.166 130.705 138.212 128.806 138.21 127.216C138.207 124.904 138.438 122.339 139.637 120.306C140.006 119.679 140.697 118.937 141.555 119.461C141.982 119.721 142.096 120.436 142.196 120.87C142.553 122.427 142.518 124.054 142.888 125.612C142.881 125.621 142.875 125.632 142.868 125.642C142.774 125.773 142.836 125.847 142.967 125.878C143.235 126.653 143.863 127.323 144.234 128.041C144.977 129.481 144.406 131.138 143.842 132.53C143.749 132.758 144.877 132.64 145.002 132.331C145.615 130.816 146.073 129.297 145.407 127.728C144.995 126.756 144.546 126.075 144.21 125.255C145.133 123.884 145.854 122.354 146.617 120.898C146.992 120.182 149.04 115.204 150.176 115.541C152.043 116.094 147.817 124.206 147.28 125.275C147.186 125.464 147.619 125.485 147.989 125.385C148.27 125.399 148.781 125.29 148.903 125.153C149.625 124.342 150.076 123.269 150.582 122.321C150.95 121.631 151.328 120.948 151.729 120.277C151.912 119.973 152.11 119.679 152.313 119.387C152.454 119.185 153.159 118.607 152.84 118.553C155.868 119.067 150.607 126.378 149.918 127.407C149.899 127.435 149.93 127.455 149.99 127.467C150.097 127.503 150.343 127.486 150.573 127.438C150.661 127.42 150.746 127.397 150.822 127.369C150.915 127.337 150.99 127.299 151.028 127.26C151.029 127.259 151.03 127.258 151.031 127.256C151.049 127.24 151.065 127.223 151.077 127.205C151.077 127.204 151.078 127.203 151.079 127.202C151.865 126.365 152.521 125.396 153.207 124.479C153.826 123.651 154.48 122.537 155.304 121.794C156.668 123.089 153.275 128.223 152.674 129.138C152.594 129.26 153.644 129.214 153.831 128.929C154.673 127.648 155.496 126.289 156.077 124.849C157.774 126.785 154.985 130.886 153.948 132.47C151.933 135.55 149.237 138.673 146.058 140.6C145.868 140.716 145.812 140.823 145.835 140.913C142.231 149 137.881 157.196 131.443 163.41C128.412 166.335 124.679 168.685 120.405 169.092C115.438 169.564 110.884 166.734 107.349 163.562C107.273 163.493 107.156 163.465 107.026 163.464C106.772 160.299 106.453 157.136 106.109 153.978C108.512 154.494 110.952 154.618 113.308 154.274C114.176 154.148 115.031 153.953 115.87 153.696C117.769 153.114 119.578 152.196 121.22 150.882C121.653 150.536 122.07 150.16 122.465 149.763C121.439 151.216 120.625 152.864 120.025 154.794C119.936 155.084 121.088 154.927 121.188 154.606ZM114.411 124.041C118.213 129.246 118.766 136.056 120.054 142.167C120.066 142.227 120.095 142.275 120.133 142.313C115.56 145.327 110.748 146.093 105.276 146.109C105.259 146.109 105.242 146.112 105.225 146.114C105.066 144.714 104.909 143.316 104.757 141.922C104.094 135.841 103.397 129.765 102.72 123.687C102.39 120.735 101.887 117.714 101.786 114.731C106.73 116.882 111.29 119.768 114.411 124.041ZM122.614 148.302C122.604 148.81 121.608 149.615 121.258 149.964C117.176 154.042 111.426 154.668 106.03 153.255C105.797 151.13 105.554 149.008 105.313 146.89C111.25 146.829 116.472 145.902 121.434 142.421C122.455 144.158 122.654 146.328 122.614 148.302ZM66.2377 134.133C66.7582 126.025 68.1624 118.019 70.546 110.246C70.653 110.226 70.7599 110.205 70.8672 110.187C71.0074 112.684 73.1407 115.098 74.7616 116.83C75.0301 117.117 75.5514 117.057 75.7924 116.754C76.4943 115.871 77.208 114.996 77.9273 114.126C78.4462 113.5 78.9731 112.88 79.509 112.268C79.7573 111.985 80.012 111.707 80.2708 111.434C80.3081 111.559 80.351 111.703 80.4081 111.88C80.9934 113.702 81.4847 115.691 81.2239 117.608C81.2239 117.609 81.2235 117.609 81.2235 117.61C80.8176 123.608 80.4118 129.607 80.0064 135.606C79.6706 135.601 79.3348 135.595 79.0002 135.589C76.2319 135.534 73.4606 135.37 70.7089 135.059C70.1309 134.993 69.401 134.954 68.6679 134.861C68.4318 134.825 68.2049 134.79 67.9903 134.757C67.3321 134.634 66.7124 134.445 66.2377 134.133ZM68.8093 89.18C68.7987 89.1654 68.7874 89.1489 68.7769 89.1339C69.0405 89.096 69.3423 89.1444 69.659 89.3681C69.6505 89.3729 69.6424 89.3774 69.6343 89.3822C69.356 89.2938 69.0802 89.2252 68.8093 89.18ZM81.6115 86.0069C82.5374 88.6781 85.514 90.522 88.1714 89.1703C90.3233 88.0753 90.9791 85.646 90.6469 83.4206C90.8041 83.3879 90.9434 83.3455 91.0001 83.3075C91.4655 82.9914 91.9564 82.7758 92.5182 82.706C92.5421 82.7031 92.5826 82.6979 92.6279 82.6934C93.2148 83.7214 94.4072 84.4861 95.2659 85.1894C95.7811 85.6117 96.383 86.074 96.7013 86.6731C97.2388 87.6833 95.3813 87.9954 94.777 88.1452C94.3489 88.2509 94.2473 88.5279 94.3813 88.6987C92.3221 89.2672 90.3731 90.1267 88.3245 90.7788C85.6355 91.6339 83.2903 91.6093 81.3964 89.375C80.1979 87.9611 79.2866 86.3614 78.1355 84.9197C79.1902 84.9189 80.236 84.8753 81.3154 84.7113C81.3705 85.1522 81.4661 85.5883 81.6115 86.0069ZM89.0394 82.1016C89.8397 84.1134 89.8438 86.4777 88.2876 88.1395C86.2762 90.2882 83.5884 87.6429 82.7853 85.6932C81.9999 83.7876 82.4459 81.5133 83.8963 80.0598C85.9117 78.0387 88.1131 80.1911 89.0394 82.1016ZM100.908 84.8062C100.38 85.9109 99.4584 86.6037 98.0173 86.2278C97.9667 86.2145 97.8865 86.2205 97.7929 86.2383C97.7354 86.1192 97.6645 85.9965 97.5685 85.8673C96.9496 85.036 95.8836 84.411 94.9897 83.6822C95.0703 83.6208 95.1128 83.5566 95.0849 83.5033C94.4648 82.3054 94.325 81.0143 94.6037 79.7631C94.7102 79.7461 94.8111 79.7142 94.8864 79.6795C95.5527 79.3706 96.1841 79.3727 96.8901 79.5362C97.1655 79.6 97.5138 79.5075 97.72 79.3145C97.9039 79.1425 97.8468 78.929 97.6013 78.872C96.656 78.6532 95.7236 78.675 94.8264 78.9915C94.9107 78.7626 95.0075 78.5353 95.1205 78.3116C95.6863 77.1929 96.7625 76.4851 97.9095 76.5671C99.0602 79.2903 100.349 81.9405 100.908 84.8062ZM98.5017 91.9C97.4644 94.7334 93.8078 95.7186 91.9795 93.3106C94.306 93.5363 96.3311 92.8645 98.5017 91.9ZM87.7724 76.1605C87.2645 76.4916 86.6999 76.7241 86.0964 76.8759C86.7052 76.6619 87.2763 76.4072 87.7724 76.1605ZM94.986 112.257C95.6912 115.474 95.76 118.899 95.9666 122.173C96.2226 126.227 96.4138 130.293 96.4332 134.355C93.9034 134.905 91.3205 135.233 88.7214 135.416C88.4618 134.72 88.3298 133.994 88.4189 133.245C88.5873 131.826 89.8757 130.772 90.8195 129.822C93.5044 127.12 93.8621 124.176 92.5089 120.63C92.3242 120.147 91.1593 120.483 91.3355 120.944C92.1378 123.046 92.6077 125.28 91.5554 127.378C90.8818 128.72 89.6416 129.693 88.6408 130.779C87.2204 132.319 87.0681 133.923 87.5574 135.488C86.4885 135.547 85.4184 135.584 84.3491 135.603C83.9433 135.119 83.5492 134.618 83.2162 134.051C82.1336 132.208 82.8084 130.333 84.4175 129.189C85.4216 128.475 86.6404 127.881 87.3642 126.845C88.5314 125.174 87.9636 123.311 87.1543 121.601C87.0162 121.308 85.8842 121.711 85.981 121.915C86.8566 123.765 87.4103 125.784 85.8655 127.431C84.9206 128.439 83.5686 128.993 82.5443 129.917C80.5616 131.706 81.5997 133.717 82.9829 135.619C82.3806 135.622 81.7788 135.623 81.1781 135.618C81.5872 129.576 81.9959 123.533 82.4045 117.491C82.4045 117.49 82.4045 117.489 82.4045 117.489C82.4082 117.462 82.4086 117.436 82.4122 117.41C82.8598 115.885 83.2932 114.357 83.7253 112.829C83.7658 112.686 83.7987 112.557 83.8282 112.436C84.2357 112.997 84.5869 113.673 84.9315 114.17C85.5395 115.044 86.145 115.921 86.7493 116.798C86.9773 117.129 87.7765 116.803 87.881 116.496C88.5391 114.56 89.1969 112.625 89.8551 110.69C91.5267 111.164 93.2497 111.665 94.9832 112.217C94.9844 112.231 94.9832 112.243 94.986 112.257ZM88.8976 110.191C88.3144 111.907 87.7311 113.622 87.1479 115.338C86.819 114.862 86.4913 114.387 86.1616 113.912C85.6185 113.128 85.0624 111.919 84.3187 111.307C84.2944 111.287 84.26 111.271 84.2211 111.259C84.309 111.128 84.424 111.003 84.5856 110.872C86.0604 109.674 87.5351 108.476 89.0098 107.279C88.8733 108.236 88.832 109.206 88.8976 110.191ZM72.0394 109.387C72.3253 108.227 72.5991 107.045 72.83 105.853C75.0006 107.338 77.1837 108.805 79.3656 110.273C79.5183 110.376 79.6378 110.458 79.7342 110.53C78.9808 111.093 78.3068 112.135 77.8548 112.661C76.9885 113.672 76.1468 114.705 75.3145 115.745C73.8361 114.134 72.0459 111.964 72.0459 109.852C72.0459 109.725 71.9977 109.632 71.9227 109.565C71.9798 109.512 72.0228 109.453 72.0394 109.387ZM89.1507 106.464C88.9985 106.494 88.8624 106.54 88.7963 106.593C87.0284 108.029 85.2604 109.465 83.4925 110.901C82.9906 111.309 82.9578 111.594 82.7751 112.241C82.5981 112.871 82.4199 113.499 82.2417 114.128C82.1 113.4 81.9096 112.678 81.7055 111.968C81.5216 111.33 81.413 110.413 80.8269 110.019C78.2226 108.269 75.6158 106.522 73.0301 104.744C73.3808 102.652 73.5684 100.535 73.4169 98.4382C74.2444 100.044 75.2918 101.505 76.8908 102.618C80.2903 104.985 85.386 104.883 89.6153 104.684C89.4233 105.273 89.2702 105.867 89.1507 106.464ZM101.192 87.5755C101.162 87.6437 101.158 87.7168 101.194 87.7899C101.193 88.0442 101.188 88.2941 101.158 88.5485C101.154 88.5844 99.4738 88.2901 99.3988 88.2768C98.5155 88.1197 97.5932 88.1185 96.6961 88.2227C97.383 87.8932 97.9391 87.4366 97.9383 86.81C99.2194 86.9146 100.272 86.4741 101.058 85.7126C101.141 86.3227 101.19 86.942 101.192 87.5755ZM101.087 79.3739C101.37 80.0921 101.52 81.1568 101.474 82.2384C100.929 80.5387 100.208 78.8886 99.4916 77.2199C100.195 77.7771 100.702 78.5898 101.087 79.3739ZM97.46 75.4798C97.5292 75.6534 97.6009 75.8258 97.6722 75.999C97.1457 76.0462 96.5964 76.1884 96.0274 76.4488C94.1185 77.3233 93.225 79.4227 93.308 81.4402C92.9483 81.3195 92.2492 81.5832 92.3323 81.9497C92.3643 82.0903 92.4108 82.2243 92.4651 82.3559C91.8061 82.4795 91.1625 82.6999 90.5748 83.0209C90.4878 82.5949 90.3687 82.1791 90.2127 81.787C89.0114 79.3093 86.7291 77.6426 84.0178 79.0424C82.1202 80.0219 81.2198 82.0394 81.2644 84.0565C80.0035 84.2487 78.7823 84.2426 77.5357 84.2143C77.4721 84.1441 77.4105 84.0722 77.3453 84.0036C78.0978 81.7866 78.4656 79.4147 78.172 77.0847C81.9084 77.6362 86.7501 78.3819 89.5533 75.5226C92.1962 75.3958 94.8414 75.6926 97.443 75.3013C97.4308 75.3575 97.4349 75.4172 97.46 75.4798ZM66.2357 95.0883C65.4094 94.3987 65.2567 93.3034 65.311 92.3005C65.4025 90.6096 66.4949 89.8102 67.9121 89.8849C67.9162 89.8897 67.9198 89.8946 67.9235 89.8994C68.017 90.0161 68.2568 90.0193 68.4917 89.9608C68.6825 90.0004 68.8761 90.05 69.0733 90.1178C69.1993 90.161 69.3751 90.1356 69.5407 90.0738C70.6975 91.8002 71.4254 93.7761 72.2022 95.7089C70.316 96.3948 67.8449 96.4316 66.2357 95.0883ZM41.4251 172.302C38.1913 169.466 38.216 164.905 38.726 160.993C39.2966 156.616 40.5725 152.355 40.8495 147.937C41.2542 148.101 41.6422 148.245 41.9852 148.373C45.7715 149.782 50.0709 150.664 54.265 151.042L44.4405 148.686C44.4405 148.686 43.4033 148.173 42.1217 147.481C40.9609 147.036 39.8495 146.46 38.9844 145.646C38.1998 145.131 37.5902 144.654 37.3991 144.319C36.8361 143.332 39.3683 140.967 40.3955 140.067C40.4372 140.03 40.4765 139.996 40.513 139.965C40.8313 139.968 41.306 139.837 41.3963 139.624C41.3992 139.617 41.4016 139.611 41.4044 139.604C41.4125 139.585 41.4194 139.567 41.4275 139.548C43.9456 133.569 43.9282 126.561 48.6399 121.663C50.9984 119.211 54.2702 117.314 57.3185 115.628C57.7843 115.37 58.2456 115.117 58.6972 114.868C60.6345 113.799 62.6548 112.791 64.7403 111.962C64.733 111.973 64.7257 111.984 64.7184 111.995C63.3454 114.053 62.7443 116.646 62.2048 119.008C61.2514 123.182 60.752 127.463 60.3105 131.716C59.8949 135.719 59.611 139.732 59.3477 143.746C59.3331 143.969 59.3182 144.193 59.3036 144.416C59.1719 146.437 59.0444 148.459 58.907 150.48C58.8904 150.722 58.8722 150.964 58.8552 151.207C58.8337 151.514 58.8115 151.82 58.7896 152.126C58.6835 153.612 58.5721 155.097 58.4457 156.581C54.4294 157.219 50.437 157.966 46.5665 159.277C45.8788 159.51 46.04 160.175 46.744 159.937C56.3882 156.671 66.7902 156.893 76.436 153.626C76.4854 153.609 76.5206 153.586 76.5616 153.566C76.6697 153.535 76.7649 153.49 76.8277 153.428C76.9184 153.339 77.0103 153.251 77.1019 153.163C77.2238 153.1 77.319 153.015 77.3554 152.919C79.9974 150.409 82.9918 148.185 86.4751 147.007C87.6934 146.596 92.1885 145.654 92.8564 147.429C92.8624 147.445 92.862 147.46 92.8665 147.476C92.8641 147.594 92.8653 147.712 92.8624 147.83C92.6142 148.624 90.8673 149.276 90.3444 149.712C89.8065 150.161 90.9693 150.255 91.3047 149.975C91.6279 149.705 92.2156 149.461 92.7677 149.162C94.0285 150.057 93.6061 152.003 92.1816 152.646C91.4347 152.983 92.1233 153.333 92.6381 153.101C92.905 152.981 93.1545 152.838 93.3849 152.675C94.6203 153.576 94.1954 155.504 92.779 156.143C92.5591 156.243 92.4663 156.342 92.4538 156.429C92.3967 156.51 92.4072 156.589 92.538 156.647C93.1934 156.936 93.7523 157.342 93.8548 158.09C93.9066 158.468 93.7734 158.824 93.549 159.147C93.4534 159.18 93.3748 159.219 93.3307 159.263C92.971 159.622 92.604 159.955 92.2326 160.278C92.0467 160.345 91.8884 160.462 91.8345 160.615C89.962 162.157 87.9089 163.267 85.4658 163.927C83.132 164.558 80.7463 164.945 78.4219 165.619C78.2432 165.612 78.0521 165.643 77.9249 165.72C72.2848 169.157 66.5889 172.633 60.2509 174.643C54.2297 176.553 46.4556 176.713 41.4251 172.302ZM68.6529 145.487C70.8494 145.487 73.0451 145.487 75.2416 145.487C75.4878 145.487 75.6766 145.371 75.7754 145.227C75.858 147.77 76.2007 150.316 76.1893 152.853C76.1201 152.92 76.05 152.987 75.9816 153.053C73.5388 153.863 71.0487 154.456 68.5355 154.94C68.58 154.876 68.6063 154.803 68.6019 154.721C68.4306 151.629 69.2552 148.548 68.6529 145.487ZM92.8811 146.094C91.8235 145.665 90.3144 145.715 89.3767 145.737C84.9048 145.844 80.6844 148.754 77.3603 151.758C77.2951 149.413 76.997 147.063 76.9471 144.715C82.2636 144.715 87.5796 144.715 92.8961 144.715C92.8953 145.174 92.8859 145.634 92.8811 146.094ZM90.9082 165.842C87.2183 167.203 82.6143 167.059 78.8658 166.01C81.5977 165.253 84.4418 164.874 87.1219 163.951C88.7939 163.376 90.2865 162.568 91.6652 161.575C91.4311 163.001 91.1747 164.422 90.9082 165.842ZM61.9683 176.332C59.8443 176.332 57.7207 176.332 55.5967 176.332C57.0378 176.128 58.4498 175.829 59.7912 175.456C66.3463 173.635 72.2812 169.996 78.046 166.479C82.1656 167.598 86.9652 167.539 91.041 166.151C91.342 166.311 92.0216 166.127 92.0913 165.756C92.4112 164.053 92.7251 162.35 92.9912 160.638C93.8835 160.034 94.8204 159.266 95.0188 158.164C95.1756 157.295 94.5316 156.663 93.8305 156.272C94.5219 155.828 95.0484 155.206 95.2647 154.369C95.5276 153.351 94.9824 152.456 94.1112 151.989C94.3635 151.668 94.5571 151.299 94.6673 150.872C94.9176 149.904 94.438 149.046 93.6417 148.562C93.9419 148.274 94.127 147.93 94.0751 147.499C94.0686 147.447 94.0528 147.402 94.0427 147.353C94.0549 146.741 94.0585 146.13 94.0634 145.518C95.0828 145.518 96.1023 145.518 97.1218 145.518C97.1226 145.518 97.123 145.518 97.1238 145.518C97.2724 153.103 99.9566 162.235 95.643 169.076C93.4263 172.592 88.4966 173.215 84.7039 173.411C80.3915 173.635 75.5733 172.981 71.9009 170.582C71.4999 170.32 70.4504 170.875 70.9879 171.227C74.6069 173.591 79.2538 174.308 83.5099 174.237C87.4152 174.171 91.8847 173.621 95.0646 171.145C98.4442 168.514 99.0246 163.382 99.1125 159.456C99.2206 154.626 98.3381 149.842 98.3008 145.019C98.2984 144.677 97.8905 144.607 97.5543 144.705C97.4725 144.655 97.3611 144.625 97.2157 144.625C96.1683 144.625 95.1209 144.625 94.0735 144.625C94.0739 144.501 94.0775 144.377 94.0775 144.253C94.0775 144.212 94.0686 144.177 94.0553 144.146C94.0699 144.02 93.9767 143.923 93.6997 143.923C87.9855 143.923 82.2713 143.923 76.5571 143.923C76.5283 143.923 76.4992 143.927 76.4696 143.931C76.1387 143.937 75.7535 144.119 75.7551 144.378C75.7559 144.514 75.762 144.651 75.7645 144.787C75.6859 144.709 75.5518 144.657 75.3521 144.657C73.1018 144.657 70.8518 144.657 68.6015 144.657C68.3698 144.657 68.1908 144.76 68.0879 144.892C67.7339 144.914 67.3414 145.158 67.4188 145.497C68.1211 148.572 67.2377 151.694 67.4103 154.803C67.4184 154.949 67.4905 155.05 67.5938 155.115C64.955 155.597 62.2951 155.982 59.6406 156.392C60.3109 148.487 60.6284 140.557 61.3939 132.659C61.7998 128.47 62.3081 124.282 63.1291 120.152C63.686 117.351 64.3098 114.041 66.1271 111.737C66.2316 111.605 66.2523 111.495 66.2223 111.407C67.2454 111.05 68.2835 110.743 69.3338 110.496C66.9643 118.257 65.5694 126.25 65.055 134.344C65.0068 134.466 65.0323 134.597 65.1858 134.716C66.2219 135.513 67.9652 135.607 69.1997 135.785C72.011 136.192 74.8649 136.338 77.7013 136.432C79.669 136.497 81.6573 136.53 83.6492 136.505C84.437 137.532 85.2025 138.51 85.4941 139.382C85.5877 139.661 86.7509 139.316 86.6675 139.068C86.324 138.042 85.7307 137.243 85.0899 136.476C86.0239 136.45 86.9571 136.407 87.8895 136.349C88.3816 137.43 89.1297 138.482 89.9215 139.471C90.2221 139.847 91.3468 139.409 91.0021 138.978C90.3513 138.165 89.625 137.252 89.1034 136.263C91.7733 136.051 94.4238 135.686 97.0156 135.098C97.3194 135.073 97.6293 134.894 97.6285 134.618C97.6187 130.439 97.4126 126.26 97.1574 122.089C96.967 118.974 96.8852 115.731 96.2967 112.646C97.7334 113.127 99.1696 113.647 100.582 114.222C100.625 117.124 101.111 120.064 101.428 122.94C102.086 128.893 102.771 134.842 103.426 140.796C103.89 145.02 104.403 149.268 104.871 153.525C104.79 153.594 104.775 153.654 104.885 153.685C104.886 153.685 104.887 153.685 104.889 153.685C105.716 161.223 106.4 168.794 106.418 176.328C106.418 176.33 106.419 176.33 106.419 176.331C91.602 176.332 76.7851 176.332 61.9683 176.332ZM212.785 164.892C212.785 155.51 212.785 146.128 212.785 136.746C213.678 136.698 214.57 136.64 215.46 136.563C215.172 136.632 214.89 136.794 214.89 137.012C214.89 146.305 214.89 155.598 214.89 164.892C214.188 164.892 213.486 164.892 212.785 164.892ZM168.117 136.846C168.53 136.863 168.941 136.878 169.353 136.893C169.584 136.901 169.816 136.905 170.046 136.914C170.046 146.216 170.046 155.518 170.046 164.821C170.046 164.846 170.051 164.869 170.055 164.892C169.402 164.892 168.749 164.892 168.096 164.892C168.096 155.544 168.096 146.195 168.096 136.847V136.846C168.104 136.846 168.111 136.846 168.117 136.846ZM208.552 164.892C208.075 164.892 207.599 164.892 207.122 164.892C206.743 164.892 206.364 164.892 205.984 164.892C205.553 164.892 205.121 164.892 204.69 164.892C204.715 164.843 204.732 164.79 204.732 164.732C204.732 159.068 204.732 153.404 204.732 147.74C204.732 147.621 204.686 147.532 204.614 147.469C204.669 147.159 204.707 146.849 204.719 146.542C204.972 146.541 205.224 146.54 205.476 146.538C205.566 146.538 205.763 146.51 205.942 146.451C206.123 146.392 206.286 146.302 206.303 146.177C206.529 144.52 206.802 142.813 206.982 141.105C207.128 139.714 207.208 138.322 207.143 136.956C207.78 136.937 208.419 136.925 209.057 136.903C209.941 136.873 210.825 136.839 211.71 136.799C211.65 136.862 211.612 136.932 211.612 137.011C211.612 146.304 211.612 155.597 211.612 164.891C210.988 164.891 210.364 164.891 209.741 164.891C209.344 164.892 208.948 164.892 208.552 164.892ZM179.092 146.549C179.107 147.228 178.949 147.941 178.795 148.616C178.748 148.637 178.704 148.66 178.665 148.689C178.071 148.691 177.478 148.693 176.885 148.695C176.744 148.521 176.437 148.496 176.18 148.58C175.981 147.927 175.877 147.247 175.865 146.565C176.941 146.559 178.016 146.554 179.092 146.549ZM180.735 146.005C180.572 146.006 180.408 146.007 180.244 146.007C180.165 145.894 179.803 145.913 179.504 146.011C178.242 146.018 176.98 146.024 175.717 146.031C175.638 146.017 175.534 146.018 175.421 146.032C175.246 146.033 175.071 146.034 174.896 146.035C174.702 146.036 174.509 146.037 174.315 146.038C174.315 146.028 174.315 146.018 174.315 146.008C174.315 145.899 174.276 145.816 174.215 145.755C174.199 145.544 174.073 145.243 174.019 144.93C173.825 143.826 173.681 142.713 173.582 141.597C176.068 141.597 178.555 141.597 181.042 141.597C181.125 141.597 181.231 141.569 181.338 141.526C181.175 143.033 180.941 144.535 180.735 146.005ZM174.315 164.733C174.315 158.679 174.315 152.626 174.315 146.573C174.439 146.572 174.564 146.571 174.689 146.571C174.669 147.435 174.791 148.304 175.072 149.123C175.115 149.247 175.316 149.235 175.414 149.235C175.534 149.235 175.654 149.234 175.774 149.234C175.774 154.429 175.774 159.625 175.774 164.821C175.774 164.846 175.78 164.869 175.783 164.892C175.28 164.892 174.776 164.892 174.273 164.892C174.298 164.843 174.315 164.79 174.315 164.733ZM176.963 164.733C176.963 159.565 176.963 154.398 176.963 149.23C177.469 149.229 177.975 149.227 178.48 149.226C178.48 154.424 178.48 159.622 178.48 164.821C178.48 164.846 178.486 164.869 178.489 164.892C177.966 164.892 177.444 164.892 176.921 164.892C176.947 164.843 176.963 164.79 176.963 164.733ZM179.67 164.733C179.67 159.509 179.67 154.286 179.67 149.063C179.766 149.01 179.842 148.945 179.86 148.863C180.022 148.122 180.232 147.32 180.264 146.543C180.517 146.542 180.769 146.54 181.021 146.539C181.039 146.539 181.065 146.537 181.091 146.534C181.091 152.63 181.091 158.725 181.091 164.821C181.091 164.846 181.097 164.869 181.1 164.892C180.609 164.892 180.118 164.892 179.628 164.892C179.653 164.843 179.67 164.79 179.67 164.733ZM182.158 144C182.483 141.731 182.778 139.41 182.693 137.154C183.09 137.157 183.489 137.16 183.886 137.162C183.828 137.23 183.791 137.31 183.791 137.4C183.791 146.564 183.791 155.728 183.791 164.892C183.273 164.892 182.756 164.892 182.238 164.892C182.264 164.843 182.28 164.79 182.28 164.732C182.28 157.913 182.28 151.094 182.28 144.275C182.28 144.153 182.233 144.064 182.158 144ZM184.95 137.166C185.583 137.169 186.215 137.172 186.848 137.173C186.795 137.239 186.761 137.315 186.761 137.4C186.761 146.564 186.761 155.728 186.761 164.892C186.168 164.892 185.574 164.892 184.98 164.892C184.98 155.698 184.98 146.505 184.98 137.312C184.98 137.256 184.967 137.209 184.95 137.166ZM187.925 137.177C187.988 137.178 188.051 137.178 188.115 137.178C188.682 137.179 189.249 137.176 189.816 137.176C189.765 137.241 189.731 137.316 189.731 137.401C189.731 146.565 189.731 155.728 189.731 164.892C189.138 164.892 188.544 164.892 187.95 164.892C187.95 155.699 187.95 146.506 187.95 137.312C187.95 137.261 187.94 137.218 187.925 137.177ZM190.894 137.176C191.525 137.175 192.157 137.176 192.788 137.174C192.736 137.239 192.701 137.315 192.701 137.401C192.701 146.565 192.701 155.728 192.701 164.892C192.108 164.892 191.514 164.892 190.921 164.892C190.921 155.699 190.921 146.506 190.921 137.312C190.92 137.26 190.909 137.216 190.894 137.176ZM193.861 137.169C194.498 137.166 195.136 137.16 195.772 137.155C195.711 137.224 195.672 137.307 195.672 137.4C195.672 146.564 195.672 155.728 195.672 164.892C195.078 164.892 194.484 164.892 193.891 164.892C193.891 155.698 193.891 146.505 193.891 137.312C193.89 137.258 193.879 137.212 193.861 137.169ZM198.386 146.039C198.448 146.039 198.497 146.03 198.537 146.015C198.528 146.023 198.52 146.031 198.511 146.038C198.469 146.039 198.427 146.039 198.386 146.039ZM203.546 146.549C203.562 147.252 203.392 147.993 203.233 148.689C202.378 148.691 201.523 148.694 200.668 148.697C200.445 148.009 200.332 147.288 200.32 146.565C201.395 146.559 202.47 146.554 203.546 146.549ZM205.19 146.005C205.027 146.006 204.863 146.007 204.699 146.007C204.62 145.894 204.258 145.913 203.959 146.011C202.697 146.018 201.434 146.024 200.172 146.031C200.092 146.017 199.988 146.018 199.875 146.032C199.745 146.033 199.615 146.033 199.485 146.034C199.321 145.799 198.87 145.81 198.591 145.981C198.792 145.831 198.554 145.392 198.473 144.929C198.289 143.879 198.149 142.822 198.05 141.762C200.623 141.762 203.196 141.762 205.769 141.762C205.607 143.189 205.384 144.612 205.19 146.005ZM196.839 137.186C196.834 137.173 196.828 137.16 196.822 137.147C196.847 137.146 196.872 137.146 196.896 137.146C196.876 137.159 196.856 137.172 196.839 137.186ZM196.86 142.013C196.994 143.51 197.216 145 197.53 146.465C197.557 146.589 197.787 146.577 197.872 146.577C198.034 146.576 198.197 146.575 198.359 146.574C198.359 152.656 198.359 158.738 198.359 164.82C198.359 164.846 198.364 164.868 198.367 164.891C197.865 164.891 197.363 164.891 196.86 164.891C196.86 157.265 196.86 149.639 196.86 142.013ZM199.548 164.733C199.548 159.538 199.548 154.344 199.548 149.149C199.611 149.24 199.779 149.235 199.869 149.235C200.285 149.234 200.702 149.233 201.118 149.231C201.085 149.286 201.065 149.347 201.065 149.414C201.065 154.55 201.065 159.685 201.065 164.821C201.065 164.846 201.07 164.869 201.074 164.892C200.551 164.892 200.029 164.892 199.506 164.892C199.532 164.843 199.548 164.79 199.548 164.733ZM202.242 149.228C202.657 149.226 203.072 149.225 203.487 149.224C203.502 149.224 203.523 149.222 203.542 149.221C203.542 154.421 203.542 159.621 203.542 164.821C203.542 164.846 203.547 164.869 203.551 164.892C203.104 164.892 202.658 164.892 202.212 164.892C202.238 164.843 202.254 164.79 202.254 164.732C202.254 159.597 202.254 154.461 202.254 149.326C202.255 149.291 202.25 149.258 202.242 149.228ZM205.834 141.115C203.221 141.115 200.608 141.115 197.995 141.115C197.894 139.793 197.86 138.465 197.897 137.139C200.6 137.111 203.302 137.059 206.004 136.988C205.978 137.026 205.962 137.067 205.965 137.11C206.038 138.428 205.967 139.771 205.834 141.115ZM181.51 137.142C181.58 138.417 181.515 139.713 181.39 141.011C178.778 141.011 176.166 141.011 173.554 141.011C173.547 141.011 173.538 141.013 173.531 141.014C173.434 139.7 173.404 138.382 173.443 137.066C173.444 137.045 173.433 137.028 173.418 137.013C176.115 137.079 178.813 137.119 181.51 137.142ZM172.799 137.003C172.529 137.07 172.275 137.202 172.269 137.379C172.178 140.414 172.437 143.492 173.075 146.465C173.082 146.495 173.101 146.516 173.126 146.531C173.126 152.628 173.126 158.724 173.126 164.821C173.126 164.846 173.131 164.869 173.134 164.892C172.487 164.892 171.84 164.892 171.193 164.892C171.219 164.843 171.235 164.791 171.235 164.733C171.235 155.472 171.235 146.21 171.235 136.949C171.757 136.965 172.278 136.981 172.8 136.995C172.81 136.995 172.821 136.995 172.831 136.996C172.821 136.998 172.81 137.001 172.799 137.003ZM163.342 136.035C161.86 135.865 161.733 135.515 161.593 133.953C161.281 130.486 161.571 126.93 161.678 123.458C161.729 121.785 161.775 120.112 161.77 118.438C161.765 116.722 161.344 114.97 162.186 113.385C163.535 110.847 167.247 110.857 169.753 110.714C172.724 110.545 175.702 110.483 178.677 110.428C185.931 110.294 193.19 110.302 200.444 110.436C203.326 110.489 206.209 110.564 209.088 110.721C211.416 110.847 213.621 110.983 215.713 112.149C218.124 113.492 217.784 115.762 217.722 118.075C217.663 120.282 217.766 122.497 217.834 124.703C217.908 127.091 217.99 129.481 217.977 131.872C217.972 132.919 218.199 134.875 217.587 135.877C217.493 135.848 217.003 136.02 216.737 136.05C215.919 136.144 215.096 136.198 214.275 136.25C211.819 136.405 209.357 136.475 206.897 136.54C200.343 136.71 193.785 136.744 187.23 136.723C185.678 136.717 184.127 136.71 182.575 136.697C182.484 136.67 182.345 136.67 182.197 136.692C178.503 136.66 174.809 136.591 171.118 136.469C170.938 136.31 170.588 136.319 170.336 136.443C169.871 136.427 169.404 136.416 168.94 136.398C167.074 136.322 165.199 136.248 163.342 136.035ZM165.061 136.695C165.714 136.737 166.368 136.771 167.021 136.8C166.961 136.862 166.923 136.933 166.923 137.012C166.923 146.305 166.923 155.598 166.923 164.892C166.303 164.892 165.682 164.892 165.062 164.892C165.062 155.494 165.062 146.096 165.062 136.698C165.062 136.697 165.061 136.696 165.061 136.695ZM155.639 176.332C155.639 172.733 155.639 169.135 155.639 165.536C158.464 165.536 161.29 165.536 164.115 165.536C164.174 165.543 164.242 165.543 164.312 165.536C165.258 165.536 166.204 165.536 167.15 165.536C167.21 165.543 167.276 165.543 167.347 165.536C172.886 165.536 178.425 165.536 183.964 165.536C184.145 165.645 184.432 165.634 184.656 165.536C185.415 165.536 186.175 165.536 186.934 165.536C187.115 165.645 187.402 165.634 187.626 165.536C188.385 165.536 189.145 165.536 189.904 165.536C190.085 165.645 190.372 165.634 190.596 165.536C191.355 165.536 192.115 165.536 192.874 165.536C193.055 165.645 193.342 165.634 193.566 165.536C194.325 165.536 195.085 165.536 195.845 165.536C196.026 165.645 196.312 165.634 196.536 165.536C200.599 165.536 204.662 165.536 208.725 165.536C208.906 165.645 209.192 165.634 209.416 165.536C210.223 165.536 211.031 165.536 211.838 165.536C211.897 165.543 211.964 165.543 212.035 165.536C213.062 165.536 214.089 165.536 215.116 165.536C215.176 165.543 215.243 165.543 215.313 165.536C217.372 165.536 219.43 165.536 221.488 165.536C221.488 169.134 221.488 172.733 221.488 176.332C199.539 176.332 177.589 176.332 155.639 176.332ZM87.2313 82.4972C87.4654 83.211 87.6465 83.9402 87.8806 84.654C88.0154 85.0662 86.8477 85.3965 86.7072 84.9677C86.4731 84.2539 86.292 83.5247 86.0579 82.8109C85.9226 82.3991 87.0908 82.0689 87.2313 82.4972ZM97.5742 83.0742C97.8281 83.4791 96.6864 83.853 96.4834 83.5292C96.0849 82.8941 96.01 82.253 96.0095 81.5181C96.0091 81.0684 97.1829 80.8479 97.1829 81.2044C97.1837 81.8589 97.2157 82.5029 97.5742 83.0742ZM86.7688 80.9953C85.8356 80.6646 84.9072 80.8055 84.0008 81.1503C83.8023 81.2258 83.4179 81.3365 83.232 81.1673C83.0457 80.9977 83.4499 80.7894 83.5589 80.7482C84.8894 80.2427 86.3402 79.9831 87.7145 80.4708C88.1552 80.6275 87.0875 81.1088 86.7688 80.9953ZM129.564 107.287C129.545 107.456 129.677 107.587 130.038 107.532C130.046 107.531 130.054 107.529 130.062 107.528C132.003 108.407 134.263 108.747 136.433 108.491C142.317 107.797 147.205 103.387 149.969 98.3849C151.645 95.3528 152.584 91.7264 151.904 88.2828C151.265 85.0428 148.873 82.8638 145.965 81.6574C145.969 81.6465 145.967 81.6364 145.956 81.6308C141.525 79.2503 136.331 81.8876 132.869 84.7917C128.541 88.4221 124.811 94.1726 124.87 99.972C124.906 103.408 126.871 105.896 129.564 107.287ZM133.061 107.852C132.384 107.708 131.764 107.511 131.195 107.27C135.546 105.962 137.353 101.383 138.727 97.3044C140.268 92.7309 141.666 84.4683 147.698 83.9499C147.782 83.9426 147.859 83.9216 147.93 83.8917C156.611 91.4978 144.854 110.368 133.061 107.852ZM147.143 83.276C142.41 84.0799 140.433 88.7605 139.008 92.9251C137.434 97.5249 136.093 105.853 130.182 106.765C129.461 106.342 128.848 105.833 128.333 105.259C132.936 103.854 135.289 100.286 136.864 95.8352C138.637 90.8236 139.781 84.5567 145.118 82.1557C145.873 82.4795 146.547 82.8553 147.143 83.276ZM127.301 93.7136C129.492 88.3147 134.947 81.6792 141.203 81.1879C142.105 81.1168 142.998 81.2703 143.839 81.5759C143.796 81.6243 143.798 81.6667 143.876 81.6914C144.134 81.7733 144.383 81.8617 144.625 81.9538C140.358 83.8716 138.443 87.7733 137.003 92.0954C135.304 97.195 133.838 103.235 128.082 104.966C125.722 102.05 125.721 97.606 127.301 93.7136ZM175.391 130.482C183.83 131.553 185.097 119.614 177.455 117.482C177.435 117.476 177.413 117.474 177.391 117.472C177.368 117.467 177.348 117.462 177.322 117.458C173.556 116.99 170.247 119.083 169.378 122.821C168.432 126.888 171.556 129.994 175.391 130.482ZM176.815 118.223C182.628 119.907 183.429 129.92 176.26 129.744C168.266 129.548 168.956 117.33 176.815 118.223ZM175.477 126.608C176.958 126.772 178.419 126.116 178.798 124.594C179.167 123.112 178.142 121.708 176.744 121.308C176.714 121.3 176.681 121.296 176.647 121.294C176.634 121.292 176.624 121.289 176.611 121.287C175.064 121.103 173.619 121.899 173.16 123.415C172.678 125.006 173.918 126.434 175.477 126.608ZM176.081 122.02C177.033 122.31 177.572 123.115 177.671 124.082C177.773 125.078 177.148 125.942 176.119 125.891C173.694 125.772 173.689 121.837 176.081 122.02ZM202.846 130.482C211.285 131.553 212.551 119.614 204.91 117.482C204.89 117.476 204.868 117.474 204.846 117.472C204.822 117.467 204.803 117.462 204.776 117.458C201.01 116.99 197.702 119.083 196.833 122.821C195.886 126.888 199.01 129.994 202.846 130.482ZM204.269 118.223C210.083 119.907 210.883 129.92 203.714 129.744C195.72 129.548 196.41 117.33 204.269 118.223ZM202.931 126.608C204.413 126.772 205.874 126.116 206.253 124.594C206.622 123.112 205.596 121.708 204.198 121.308C204.169 121.3 204.136 121.296 204.102 121.294C204.089 121.292 204.079 121.289 204.065 121.287C202.518 121.103 201.073 121.899 200.615 123.415C200.133 125.006 201.372 126.434 202.931 126.608ZM203.535 122.02C204.488 122.31 205.027 123.115 205.125 124.082C205.227 125.078 204.603 125.942 203.573 125.891C201.148 125.772 201.144 121.837 203.535 122.02ZM157.991 173.983H218.972V167.826H157.991V173.983ZM158.801 168.634H218.162V173.176H158.801V168.634Z" fill="#2A2A2B"/>
</svg>
