<svg width="247" height="247" viewBox="0 0 247 247" fill="none" xmlns="http://www.w3.org/2000/svg">
<path d="M106.262 86.9888L99.7749 82.4513L92.6455 79.8979L86.6601 78.9401L82.372 78.4479C88.2847 78.333 94.1916 79.584 99.4988 82.2614C102.007 83.5261 104.262 85.1295 106.262 86.9888ZM125.599 92.7494C129.469 101.082 131.283 110.393 130.684 119.567C130 130.04 126.191 140.385 121.298 149.568C118.052 155.659 114.193 161.316 109.999 166.731L99.5852 179.192C93.9944 185.524 88.2301 191.717 82.8047 198.123C82.7865 198.101 82.7687 198.08 82.7509 198.06C82.5071 197.772 82.2645 197.484 82.0199 197.198C79.6101 194.373 77.1441 191.588 74.664 188.813C74.6417 188.772 74.609 188.735 74.5669 188.705C69.1596 182.658 63.6867 176.654 58.5699 170.38L48.5762 156.815C47.3409 154.911 46.1536 152.971 45.0295 150.982C39.8367 141.796 36.0536 131.495 34.9006 120.959C33.8843 111.672 35.692 102.151 39.3693 93.6168C46.7375 76.5169 62.9366 62.9779 82.1145 63.7293C82.1608 63.7309 82.2079 63.7313 82.2546 63.7334C82.3137 63.743 82.3794 63.7483 82.4592 63.7438C82.4815 63.7425 82.503 63.743 82.5253 63.7417C82.5323 63.7417 82.5377 63.7417 82.5447 63.7421C82.596 63.745 82.6468 63.7442 82.6976 63.7471C82.7497 63.75 82.8043 63.743 82.8592 63.7313C89.5592 63.4365 95.8728 64.8737 101.583 67.5884C104.441 69.1056 107.244 70.8392 109.834 72.6839C116.534 77.8774 121.965 84.9222 125.599 92.7494ZM113.307 93.8996C107.19 83.0749 95.1632 77.668 83.1407 77.7414C82.5691 77.7451 81.9975 77.7563 81.4272 77.7845C80.9664 77.8073 80.506 77.84 80.0465 77.879L80.0266 77.8405C79.3332 77.8749 78.5641 77.9246 77.7623 77.9939C67.0693 78.28 57.7058 83.7599 52.3035 93.162C46.8115 102.72 45.8891 114.765 48.9051 125.273C52.0766 136.325 60.1743 145.158 71.2438 148.454C75.0219 149.579 79.0104 150.029 82.9985 149.965C83.4163 149.959 83.8337 149.948 84.2511 149.931C87.5928 149.788 90.9184 149.296 94.1027 148.538C95.7033 148.157 97.2684 147.663 98.7884 147.069C100.25 146.636 101.463 146.146 102.199 145.593C102.311 145.509 102.429 145.418 102.55 145.323C106.489 143.185 109.958 140.246 112.613 136.51C121.034 124.658 120.241 106.171 113.307 93.8996ZM106.184 142.076C108.3 140.356 110.097 138.362 111.588 136.167C109.914 138.248 107.971 140.332 106.184 142.076ZM115.743 103.046L117.032 109.265C116.746 107.145 116.311 105.061 115.743 103.046ZM71.7818 147.715C68.374 146.38 64.6955 144.481 61.6625 142.533C64.6992 144.87 68.1351 146.607 71.7818 147.715ZM35.8982 132.393C35.1328 129.703 34.5195 126.97 34.0938 124.213C34.2897 126.714 34.9708 129.537 35.8982 132.393ZM211.55 81.345C210.745 90.072 206.978 97.5945 202.048 104.503L189.023 119.799L184.075 125.36C184.057 125.338 184.04 125.318 184.022 125.298C183.986 125.255 183.949 125.212 183.913 125.17C178.538 118.875 172.656 112.766 167.71 106.122L167.573 105.939C162.371 98.9143 158.231 91.2832 156.861 82.1934C154.472 66.3357 166.552 47.8894 183.463 48.3016C183.576 48.3041 183.689 48.3078 183.802 48.3124C183.836 48.3157 183.876 48.3165 183.916 48.3161C183.918 48.3161 183.919 48.3161 183.921 48.3161C183.959 48.3178 183.996 48.3178 184.033 48.3198C184.075 48.3219 184.116 48.3174 184.16 48.3103C201.219 47.6145 213.01 65.5218 211.55 81.345ZM204.211 70.612C202.193 62.1652 195.399 56.1616 186.612 56.2404C185.83 56.1541 185.045 56.1102 184.261 56.1019C183.649 56.0957 183.039 56.1181 182.429 56.1591C181.999 56.1881 181.572 56.2292 181.146 56.2823C180.011 56.378 178.761 56.5422 177.756 56.8246C177.037 57.0261 175.994 57.4416 174.822 58.0354C172.517 59.0757 170.4 60.5344 168.622 62.4289C163.313 68.0859 162.1 77.1841 163.93 84.5171C166.068 93.0828 174.071 97.7542 182.39 98.214C182.945 98.2613 183.473 98.3003 183.901 98.3289C183.901 98.3289 184.052 98.2994 184.316 98.2451C189.245 98.1319 194.135 96.5393 197.837 93.3967C200.149 91.4354 201.865 88.9525 203.03 86.2105C203.031 86.2096 203.031 86.2084 203.032 86.2072C205.094 81.3496 205.419 75.6739 204.211 70.612Z" fill="#2A2A2B"/>
<path fill-rule="evenodd" clip-rule="evenodd" d="M113.308 93.9C120.241 106.171 121.035 124.658 112.613 136.509C109.958 140.245 106.488 143.184 102.551 145.323C101.338 145.982 100.081 146.564 98.7887 147.069C97.2687 147.664 95.7036 148.158 94.103 148.538C90.9187 149.296 87.5931 149.789 84.2514 149.931C83.834 149.949 83.4166 149.959 82.9988 149.966C79.0107 150.029 75.0222 149.579 71.2441 148.454C60.1745 145.158 52.0769 136.325 48.9054 125.274C45.8894 114.765 46.8118 102.721 52.3038 93.1623C57.7061 83.7602 67.0696 78.2803 77.7626 77.9942C78.1709 77.983 78.5813 77.978 78.9938 77.9822C79.3446 77.9428 79.6955 77.9092 80.0476 77.8793C80.5067 77.8404 80.9671 77.8076 81.4279 77.7848C81.9982 77.7566 82.5698 77.7454 83.1414 77.7417C95.1639 77.6683 107.191 83.0753 113.308 93.9ZM71.7817 147.715C73.5927 148.264 75.4541 148.662 77.3444 148.9C86.2318 150.02 96.4029 148.685 104.005 143.682C104.768 143.18 105.49 142.641 106.183 142.077C108.3 140.357 110.097 138.363 111.588 136.168C116.75 128.574 118.296 118.588 117.032 109.266C116.746 107.146 116.311 105.062 115.743 103.047C115.504 102.201 115.246 101.366 114.961 100.548C113.15 95.3508 110.21 90.6608 106.261 86.9899C104.261 85.1306 102.006 83.5276 99.4983 82.2626C94.191 79.5852 88.2841 78.3342 82.3714 78.4491C81.17 78.4723 79.9678 78.5477 78.771 78.6838C78.7173 78.69 78.6722 78.6904 78.6292 78.69C78.6268 78.69 78.6235 78.6904 78.6202 78.6904H78.6078C70.065 78.583 61.9537 81.9657 56.515 88.6817C51.5293 94.8375 48.912 102.708 48.4938 110.584C47.8937 121.896 51.6161 133.968 60.3886 141.505C60.804 141.861 61.2305 142.201 61.6623 142.533C64.6991 144.871 68.135 146.607 71.7817 147.715ZM114.594 117.207C114.252 124.176 112.174 131.279 107.362 136.494C106.115 137.845 104.739 139.022 103.273 140.055C103.272 140.063 103.272 140.071 103.272 140.078C103.272 140.082 103.272 140.085 103.272 140.088C103.262 140.322 102.914 140.496 102.595 140.527C97.5402 143.864 91.4357 145.481 85.3606 145.847C73.0472 146.588 61.2643 141.837 55.2806 130.543C50.139 120.838 49.7109 108.508 54.1532 98.4544C58.7054 88.1513 68.1548 81.828 79.4252 81.9292C87.8915 80.9838 96.9906 82.9994 103.626 88.5519C111.925 95.4972 115.111 106.649 114.594 117.207ZM89.2731 144.726C93.8947 144.003 98.3233 142.426 102.075 139.895C102.187 135.042 100.519 129.015 95.8983 126.617C93.6862 125.47 91.2557 125.245 88.8194 125.021C87.056 124.858 85.2896 124.695 83.6009 124.181C82.4012 128.558 74.4759 129.363 73.0608 124.891C71.7795 126.768 69.6472 127.772 67.5383 128.765C64.536 130.178 61.5812 131.57 61.1962 135.426C61.1652 135.736 60.8073 135.92 60.4878 135.93C62.4922 138.181 64.8433 140.113 67.5097 141.57C74.1332 145.188 81.8991 145.88 89.2731 144.726ZM76.7402 108.928C75.7033 108.397 74.773 108.983 74.2746 109.966C73.7171 111.064 73.5109 112.575 74.2114 113.668C74.5945 114.266 75.1313 114.709 75.7417 114.973C76.0178 114.926 76.286 114.974 76.3166 115.162C76.9881 115.318 77.7126 115.269 78.3995 114.98C78.6648 114.869 79.8058 114.801 79.0805 115.105C78.2271 115.464 77.1973 115.735 76.2021 115.726C75.8549 117.03 75.0908 118.058 73.9014 118.695C73.8925 118.703 73.8833 118.711 73.8741 118.718C73.8684 118.723 73.8627 118.728 73.8572 118.733C73.8781 119.593 73.9293 120.452 73.9804 121.311C74.0332 122.198 74.086 123.086 74.1056 123.975C74.108 123.98 74.1126 123.983 74.1134 123.989C74.8813 128.419 82.0759 128.482 82.5376 123.8C82.4908 123.781 82.4439 123.763 82.3971 123.744C82.3041 123.707 82.2112 123.67 82.1193 123.628C81.847 123.503 82.004 123.298 82.2722 123.152C82.2717 123.147 82.2707 123.142 82.2697 123.138C82.2683 123.131 82.2669 123.125 82.2669 123.117C82.252 120.673 85.2929 119.416 87.7644 118.395C88.6513 118.028 89.4649 117.692 90.0376 117.342C94.9746 114.325 94.3043 107.094 93.6724 101.891C91.1907 105.23 85.2974 105.168 82.4099 102.181C82.4181 102.359 82.4269 102.537 82.4356 102.715C82.6094 106.255 82.7834 109.799 78.9826 111.431C78.7152 111.661 77.8614 111.744 77.8663 111.616C77.9044 110.637 77.713 109.425 76.7402 108.928ZM74.5457 108.662C74.5457 108.662 74.4044 108.761 74.2213 108.981C74.5238 108.77 74.8515 108.601 75.1974 108.476C74.818 108.561 74.5457 108.662 74.5457 108.662ZM98.4151 127.133C101.82 130.192 103.248 134.555 103.286 139.025C106.017 136.94 108.329 134.301 109.991 131.036C113.481 124.173 114.116 116.008 112.881 108.479C111.47 99.8696 107.324 91.7177 99.7392 87.0405C93.622 83.2685 86.3314 81.8504 79.2248 82.6544C79.1723 82.6602 79.1301 82.6594 79.088 82.6585H79.0863C79.0841 82.6585 79.0819 82.6587 79.0797 82.659C79.0775 82.6592 79.0754 82.6594 79.0731 82.6594H79.0504C69.3872 82.5487 60.9536 87.5986 56.415 96.1602C51.1454 106.1 50.9086 118.912 55.8699 129.028C56.9841 131.3 58.3669 133.443 59.996 135.37C60.3461 132.342 62.2025 130.338 64.8681 128.993C65.4442 128.703 66.0539 128.432 66.6702 128.159C69.1356 127.067 71.7071 125.927 72.6632 123.236C72.6996 123.134 72.7715 123.052 72.8637 122.991C72.839 122.492 72.8089 121.994 72.7787 121.496C72.737 120.807 72.6953 120.118 72.6682 119.429C71.376 118.882 70.3589 116.611 69.6698 115.073C69.5214 114.741 69.3881 114.444 69.2707 114.205C68.1036 111.833 66.9072 109.379 66.1732 106.829C64.8871 102.364 68.3945 96.5052 73.2026 98.1434H73.2393C73.2393 98.1434 73.3298 97.9797 73.4918 97.7064C73.9539 92.2506 79.0813 92.6885 83.842 93.0951C86.0014 93.2795 88.0854 93.4575 89.6244 93.0761C89.6607 93.0674 89.6946 93.0628 89.7285 93.0586C90.9344 91.8056 92.2801 90.5874 93.8856 90.1814C96.1727 89.6038 98.3911 90.691 99.6438 92.705C102.178 96.7793 99.1069 100.841 94.7824 100.856C94.7963 100.968 94.8105 101.082 94.8248 101.197C95.3942 105.76 96.2461 112.588 92.8727 116.101C91.5065 117.524 89.6913 118.351 87.9229 119.156C87.8767 119.177 87.8306 119.198 87.7845 119.219C87.5866 119.31 87.3722 119.402 87.1482 119.498C85.5455 120.187 83.4545 121.087 83.4658 122.974C83.4662 123.039 83.4344 123.099 83.3848 123.154C85.3505 123.977 87.5183 124.169 89.6788 124.361C92.8212 124.64 95.948 124.917 98.4151 127.133ZM203.029 86.2116C201.865 88.9537 200.148 91.4361 197.837 93.3978C194.134 96.5404 189.245 98.1327 184.316 98.2467C183.673 98.2612 183.031 98.2508 182.389 98.2152C174.07 97.7553 166.067 93.0839 163.929 84.5182C162.1 77.1852 163.313 68.0871 168.621 62.4301C170.4 60.5356 172.516 59.0769 174.821 58.0365C176.817 57.1347 178.957 56.5538 181.145 56.283C181.571 56.2299 181.999 56.1889 182.428 56.1598C183.038 56.1188 183.649 56.0964 184.261 56.1026C185.045 56.1109 185.83 56.1549 186.612 56.2411C195.398 56.1623 202.192 62.166 204.21 70.6127C205.419 75.6747 205.094 81.3503 203.031 86.2083C203.031 86.2095 203.03 86.2108 203.029 86.2116ZM165.889 68.8878C163.292 76.3638 163.57 86.5069 169.686 92.2824C175.593 97.8598 186.143 99.178 193.384 95.5034C198.751 92.78 202.191 87.4037 203.277 81.5539C205.414 70.0397 199.113 56.832 186.154 56.9485C186.081 56.9489 186.025 56.9419 185.977 56.9323C177.355 56.0549 168.839 60.3892 165.889 68.8878ZM186.349 58.5179C200.401 58.4089 206.289 75.0971 200.408 86.3775C197.803 91.376 193.083 94.7844 187.502 95.6033C180.034 96.6996 171.49 94.5136 167.607 87.543C164.072 81.1961 164.714 71.5013 168.976 65.6693C172.979 60.1935 179.729 57.7977 186.349 58.5179ZM196.536 90.0646C196.567 90.0795 196.601 90.0908 196.636 90.0989C194.935 91.8861 192.845 93.2315 190.514 94.0792C188.457 94.911 186.213 95.3684 183.863 95.3684C181.13 95.3684 178.54 94.7494 176.22 93.642C175.533 93.3618 174.864 93.0392 174.22 92.6718C174.27 92.6566 174.319 92.6383 174.365 92.6171C174.087 92.4409 173.814 92.2572 173.546 92.0662C173.544 92.1308 173.543 92.1963 173.542 92.2625C172.867 91.8317 172.221 91.352 171.616 90.8113C170.277 89.6155 169.251 88.1656 168.486 86.5793C166.836 83.8219 165.886 80.5856 165.886 77.124C165.886 67.0479 173.935 58.8797 183.863 58.8797C185.29 58.8797 186.677 59.0482 188.008 59.3668C193.456 60.0391 197.308 63.4874 199.44 68.0098C200.967 70.6915 201.841 73.8042 201.841 77.124C201.841 81.0497 200.619 84.6858 198.54 87.6621C198.214 88.1775 197.863 88.6687 197.487 89.1349C197.482 89.1056 197.476 89.0765 197.471 89.0476C197.172 89.3986 196.86 89.7378 196.536 90.0646ZM184.061 126.71C184.058 126.712 184.056 126.714 184.051 126.717C183.041 127.295 181.963 127.832 180.873 128.376C178.143 129.737 175.334 131.137 173.316 133.316C169.762 137.155 174.18 139.952 177.516 141.68C178.138 142.002 178.787 142.318 179.446 142.639C182.19 143.975 185.11 145.396 187.019 147.713C189.5 150.725 189.112 154.433 187.28 157.719C185.864 160.26 183.153 161.899 180.724 163.332C179.748 163.908 178.746 164.458 177.742 165.008C175.386 166.3 173.016 167.599 170.934 169.273C168.494 171.236 166.468 174.322 168.812 177.266C170.672 179.604 173.799 180.272 176.619 180.874C176.888 180.932 177.154 180.988 177.417 181.046C177.618 181.09 177.823 181.135 178.029 181.179C180.836 181.787 184.076 182.488 186.096 184.629C188.476 187.151 189.541 191.676 186.256 193.868C186.016 194.028 184.806 194.129 185.325 193.783C187.897 192.068 187.421 188.469 185.865 186.165C184.745 184.505 183.047 183.454 181.18 182.803C179.715 182.292 178.181 181.969 176.648 181.646C174.634 181.222 172.619 180.798 170.758 179.947C168.512 178.92 166.244 176.866 166.579 174.114C166.915 171.345 169.511 169.407 171.672 167.99C172.941 167.159 174.445 166.358 176.013 165.522C181.445 162.629 187.66 159.319 187.632 152.861C187.615 148.935 184.58 146.51 181.428 144.739C180.547 144.243 179.534 143.778 178.485 143.297C175.824 142.075 172.938 140.751 171.429 138.567C168.205 133.899 176.422 129.907 181.11 127.629C182.027 127.184 182.808 126.804 183.344 126.498C183.377 126.478 183.422 126.461 183.471 126.447C183.453 126.426 183.435 126.404 183.417 126.383L183.403 126.366C183.177 126.489 182.881 126.594 182.743 126.584C178.14 126.273 173.289 127.329 168.877 128.534C165.14 129.555 161.379 130.823 157.999 132.75C155.571 134.135 152.522 136.14 151.843 139.08C151.176 141.972 153.025 144.664 155.176 146.414C155.464 146.648 155.904 146.923 156.397 147.232C157.747 148.076 159.494 149.169 159.596 150.346C159.76 152.231 156.582 153.523 154.89 154.211C154.676 154.297 154.487 154.374 154.331 154.442C151.406 155.704 148.694 156.726 145.541 157.232C143.003 157.639 140.404 157.899 137.795 158.16C132.517 158.689 127.198 159.222 122.257 160.98C118.931 162.163 115.946 164.412 115.086 168.081C114.4 171.007 116.961 172.109 119.242 173.016C119.401 173.079 119.563 173.142 119.728 173.207C121.686 173.973 124.045 174.895 124.949 176.9C125.772 178.723 125.766 180.673 124.292 182.164C120.681 185.814 114.285 186.63 109.365 187.258C109.183 187.281 109.002 187.304 108.824 187.327C105.778 187.719 102.718 187.913 99.6596 188.108C97.1981 188.264 94.7368 188.421 92.2825 188.68C89.2475 192.072 86.231 195.475 83.3067 198.948C83.2761 199.007 83.2244 199.064 83.155 199.113C83.0992 199.153 83.0343 199.189 82.9641 199.218C82.9368 199.228 82.9066 199.236 82.8773 199.244C82.6115 199.332 82.3053 199.339 82.1685 199.176C79.4492 195.944 76.634 192.759 73.7898 189.583C62.6684 190.475 51.5471 191.367 40.4257 192.259L40.4164 192.26C39.6035 192.325 39.8134 191.378 40.5081 191.322C46.344 190.854 52.1803 190.386 58.0168 189.918C63.0154 189.517 68.0141 189.116 73.0129 188.715C72.321 187.943 71.6277 187.172 70.9342 186.4C58.5352 172.604 46.0323 158.693 38.9906 141.331C37.8132 138.427 36.7614 135.438 35.896 132.393C35.1314 129.704 34.5173 126.97 34.0917 124.213C33.4953 120.351 33.2684 116.442 33.5461 112.539C34.1784 103.669 36.8866 94.9113 41.4413 87.2706C50.1981 72.5777 65.4111 62.1361 82.8814 62.9733C103.881 61.9815 121.459 77.3258 128.459 96.4426C131.505 104.761 132.815 113.853 131.55 122.668C130.078 132.93 126.368 142.837 121.227 151.805C113.923 164.548 104.163 175.431 94.4103 186.306C93.8738 186.904 93.3373 187.502 92.8012 188.101C94.827 187.897 96.8616 187.78 98.8961 187.664C100.671 187.562 102.447 187.461 104.216 187.301C107.796 186.977 111.403 186.575 114.912 185.776L115.069 185.74C117.739 185.133 121.031 184.384 123.021 182.373C124.66 180.716 124.779 178.101 123.153 176.324C121.928 174.987 120.287 174.342 118.646 173.697C117.87 173.392 117.095 173.087 116.364 172.71C114.439 171.717 113.19 170.189 113.995 167.934C114.993 165.144 116.893 162.791 119.578 161.525C124.93 159.001 131.08 158.37 137.01 157.761C138.353 157.624 139.685 157.487 140.994 157.33C141.52 157.266 142.059 157.209 142.604 157.15C145.306 156.86 148.176 156.551 150.61 155.467C150.773 155.394 151.085 155.279 151.492 155.128C153.856 154.251 159.456 152.173 158.24 150.232C157.558 149.145 156.403 148.375 155.251 147.608C154.369 147.02 153.489 146.434 152.825 145.708C151.216 143.947 149.91 141.424 150.73 138.998C152.59 133.499 160.13 130.779 165.072 129.161C170.734 127.307 177.065 125.68 183.089 125.998C181.155 123.727 179.155 121.506 177.154 119.285C172.814 114.465 168.47 109.643 164.794 104.292C159.679 96.8485 155.376 87.8814 155.383 78.6506C155.392 62.8385 167.64 46.8196 184.336 47.5485C200.923 46.8934 213.462 63.1893 212.891 79.0656C212.305 95.3563 201.291 107.687 190.864 119.36C188.764 121.71 186.689 124.034 184.727 126.358C184.696 126.416 184.646 126.472 184.578 126.52C184.522 126.561 184.455 126.597 184.383 126.627C184.282 126.668 184.17 126.698 184.061 126.71ZM82.7749 198.088C82.7846 198.099 82.7943 198.111 82.8041 198.122C86.2804 194.018 89.8951 190.002 93.5143 185.98C95.5445 183.724 97.5761 181.467 99.5855 179.192C103.175 175.127 106.691 171.004 110 166.73C114.193 161.315 118.053 155.658 121.298 149.567C126.192 140.384 130 130.039 130.684 119.566C131.283 110.392 129.469 101.081 125.6 92.7485C121.965 84.9217 116.535 77.8773 109.833 72.6834C107.261 70.6902 104.501 68.9748 101.583 67.5879C95.8722 64.8732 89.5587 63.436 82.8587 63.7308C82.8037 63.7425 82.7492 63.7495 82.6971 63.7466C82.6716 63.7451 82.6462 63.7446 82.6207 63.7441C82.5953 63.7436 82.5698 63.7431 82.5442 63.7416C82.5372 63.7412 82.5318 63.7412 82.5248 63.7412C82.5136 63.7418 82.5026 63.742 82.4917 63.7422C82.4807 63.7425 82.4698 63.7427 82.4586 63.7433C82.3789 63.7478 82.3132 63.7425 82.2541 63.7329C82.2275 63.7317 82.2008 63.7311 82.1742 63.7305C82.154 63.73 82.1339 63.7295 82.114 63.7288C62.936 62.9774 46.737 76.5164 39.3687 93.6163C35.6914 102.15 33.8838 111.671 34.9 120.959C36.053 131.495 39.8361 141.796 45.0289 150.982C46.153 152.971 47.3404 154.911 48.5756 156.815C51.64 161.538 55.0177 166.025 58.5694 170.38C62.9237 175.719 67.5359 180.862 72.1461 186.003C72.9534 186.903 73.7606 187.803 74.5664 188.704C74.6085 188.735 74.6412 188.771 74.6635 188.813C77.1435 191.588 79.6095 194.372 82.0193 197.197C82.1775 197.382 82.3348 197.568 82.4921 197.754C82.5781 197.856 82.6642 197.957 82.7504 198.059C82.7586 198.069 82.7667 198.078 82.7749 198.088ZM167.574 105.939L167.711 106.121C171.058 110.618 174.835 114.87 178.592 119.1C180.386 121.12 182.176 123.135 183.913 125.17C183.949 125.213 183.986 125.256 184.023 125.299C184.027 125.304 184.032 125.31 184.037 125.316C184.05 125.33 184.062 125.345 184.075 125.36L184.223 125.534C186.066 123.372 188.001 121.213 189.956 119.032C194.138 114.366 198.408 109.602 202.047 104.503C206.977 97.5949 210.745 90.0724 211.549 81.3454C213.01 65.5225 201.218 47.6153 184.161 48.3098C184.117 48.3168 184.075 48.3214 184.034 48.3193C184.013 48.3182 183.992 48.3177 183.971 48.3172C183.955 48.3167 183.938 48.3163 183.922 48.3156H183.917C183.877 48.316 183.837 48.3152 183.802 48.3119C183.69 48.3073 183.577 48.3036 183.464 48.3011C166.553 47.8889 154.472 66.3352 156.862 82.1929C158.232 91.2827 162.372 98.9138 167.574 105.939Z" fill="#2A2A2B"/>
<path d="M211.747 78.6655C211.747 78.6655 197.958 80.2479 189.142 78.6655C188.464 80.474 188.916 93.5849 200.671 92.9067C212.425 92.2286 211.747 78.6655 211.747 78.6655Z" stroke="#2A2A2B" stroke-width="0.904202"/>
<path d="M211.295 82.9606C211.596 82.5085 213.013 81.1129 214.46 80.9321C216.268 80.706 216.494 87.0354 213.781 88.1657C211.611 89.0699 210.089 87.8642 209.939 86.8092" stroke="#2A2A2B" stroke-width="0.904202"/>
<path d="M197.779 68.2672C198.005 69.6235 195.067 71.884 195.519 73.9185C195.88 75.546 196.724 76.7064 197.101 77.0832" stroke="#2A2A2B" stroke-width="0.904202"/>
<path d="M201.396 72.1101C200.944 75.0488 202.875 76.7065 203.252 77.0832" stroke="#2A2A2B" stroke-width="0.904202"/>
</svg>
