<svg width="310" height="304" viewBox="0 0 310 304" fill="none" xmlns="http://www.w3.org/2000/svg">
<path d="M177.921 110.468C176.05 53.1419 96.0818 34.8325 48.849 48.1286C1.61621 61.4248 -3.76181 113.738 2.55149 175.205C8.86479 236.673 69.8143 275.851 111.748 237.763C148.225 204.632 179.791 167.794 177.921 110.468Z" fill="url(#paint0_linear_4_859)"/>
<path d="M215.994 126.865L216.708 122.638L213.736 122.741L211.041 120.898L207.896 120.717L207.619 125.282C208.194 127.351 214.277 127.947 215.994 126.865Z" fill="white"/>
<path d="M208.508 99.275L207.832 102.19L206.327 104.455L208.018 104.69L208.047 108.81C207.664 108.712 207.125 108.591 206.298 108.445L209.646 111.717L211.967 115.955C211.687 116.462 211.67 117.13 212.009 117.839C212.121 118.07 210.539 119.086 211.164 120.444C211.443 121.046 211.993 121.178 213.869 122.165C215.433 122.992 219.503 122.427 219.327 119.954C219.29 119.419 219.536 119.046 219.834 118.645C219.971 118.511 220.087 118.358 220.181 118.19C220.586 117.649 220.809 116.992 220.815 116.315C220.816 115.631 220.93 114.951 221.153 114.303C221.205 114.167 221.246 114.027 221.274 113.884C221.322 113.715 221.369 113.536 221.416 113.323C221.771 111.749 220.718 110.65 219.124 109.941L219.8 106.325L221.814 106.604L220.98 103.814L221.087 100.927L208.508 99.275ZM212.956 115.188C212.625 115.281 212.33 115.474 212.111 115.74C212.202 115.591 212.325 115.464 212.471 115.368C212.617 115.273 212.783 115.211 212.956 115.188Z" fill="white"/>
<path d="M189.658 82.7503C189.584 82.691 189.504 82.6389 189.42 82.5946L189.658 82.7503Z" fill="white"/>
<path d="M198.807 88.7434L202.036 90.8567C201.647 89.2691 201.326 87.6563 198.807 88.7434Z" fill="white"/>
<path d="M205.294 92.9869L202.041 90.8567C202.415 92.3631 202.864 93.8475 205.294 92.9869Z" fill="white"/>
<path d="M140.276 128.116L145.427 128.256L152.942 128.454C148.726 128.285 144.582 128.089 140.276 128.116Z" fill="white"/>
<path d="M116.027 82.0144C114.336 81.6543 114.556 81.1556 113.57 82.5385C112.218 84.4355 109.979 88.4711 109.979 88.4711C110.05 88.8092 111.215 88.6554 111.562 88.9191L116.027 82.0144Z" fill="white"/>
<path d="M208.241 98.8893L207.502 102.049L205.725 104.724L207.671 104.993L207.695 108.374C207.419 108.311 207.083 108.24 206.667 108.164C206.702 107.743 206.733 107.319 206.75 106.898C206.768 106.421 206.772 106.308 195.422 103.723C190.871 102.685 186.166 101.613 185.187 101.206C184.784 101.036 183.484 98.7338 181.581 94.0912C181.05 92.7978 180.546 91.4977 180.117 90.3295L179.812 90.5104L179.511 90.6913L177.68 91.7851L177.278 92.0252L176.876 92.2653L173.717 107.843L173.699 107.936L173.729 108.026C174.478 110.186 178.463 115.11 184.688 117.243L205.027 121.668V121.237C205.027 120.941 205.027 120.645 205.044 120.349C205.856 120.591 206.699 120.717 207.548 120.723L207.27 125.328L207.286 125.384C207.475 126.06 208.148 126.645 209.23 127.066C210.507 127.522 211.854 127.751 213.21 127.742C214.444 127.742 215.556 127.551 216.177 127.162L216.309 127.079L217.049 122.706C217.564 122.594 218.056 122.394 218.503 122.114C219.326 121.578 219.727 120.822 219.665 119.931C219.636 119.527 219.82 119.238 220.092 118.88C220.246 118.725 220.378 118.549 220.483 118.357C220.914 117.768 221.151 117.059 221.159 116.329C221.153 115.68 221.256 115.036 221.462 114.421L221.472 114.386C221.522 114.253 221.562 114.117 221.592 113.979C221.639 113.809 221.688 113.617 221.737 113.397C221.847 112.963 221.847 112.508 221.737 112.074C221.628 111.64 221.412 111.24 221.11 110.91C220.657 110.412 220.11 110.009 219.499 109.726L220.069 106.702L222.288 107.01L221.323 103.77L221.44 100.624L208.241 98.8893ZM220.204 106.029L217.724 105.691L210.05 104.616L208.359 104.381L208.021 104.333L207.673 104.284L206.92 104.181L208.072 102.448L220.714 104.119L221.328 106.176L220.204 106.029ZM220.723 101.226L220.643 103.424L208.275 101.784L208.772 99.6586L220.723 101.226ZM205.079 119.625C205.209 117.558 205.559 115.52 205.901 113.539C206.166 112.007 206.433 110.437 206.601 108.856C207.062 108.942 207.417 109.025 207.7 109.086V109.316C207.772 110.45 209.585 111.344 213.086 111.962C213.732 112.077 214.383 112.168 215.003 112.242C215.935 112.538 217.519 113.392 218.123 114.398C218.41 114.878 218.441 115.324 218.214 115.76C218.157 115.898 218.072 116.022 217.965 116.126C217.859 116.229 217.732 116.31 217.593 116.364C217.017 116.543 216.172 116.09 215.353 115.652C214.589 115.245 213.805 114.826 213.091 114.836V114.802C213.017 114.817 212.946 114.834 212.877 114.854C212.8 114.865 212.724 114.882 212.65 114.905C212.314 115.017 212.026 115.241 211.835 115.539C211.756 115.638 211.686 115.744 211.629 115.857C211.333 116.442 211.336 117.147 211.629 117.854C211.592 117.903 211.541 117.963 211.495 118.023C211.157 118.432 210.572 119.132 210.677 120.014C210.22 119.988 209.763 119.988 209.306 120.014C208.078 120.051 206.364 120.109 205.079 119.625ZM210.789 120.435C210.8 120.471 210.816 120.506 210.831 120.542H210.77L210.789 120.435ZM218.973 119.977C219.017 120.611 218.731 121.133 218.128 121.529C216.944 122.307 214.944 122.344 214.026 121.867C213.576 121.629 213.196 121.438 212.892 121.284C211.901 120.785 211.637 120.641 211.483 120.308C211.159 119.607 211.58 119.013 212.036 118.466L212.112 118.376C213.519 119.48 215.139 120.067 216.721 120.067C217.099 120.067 217.477 120.033 217.849 119.965C218.24 119.896 218.621 119.783 218.987 119.627C218.97 119.743 218.965 119.86 218.973 119.977ZM220.459 116.307C220.439 117.282 220.035 117.81 219.643 118.322L219.566 118.42C219.156 118.821 218.493 119.135 217.719 119.279C216.858 119.438 214.615 119.59 212.295 117.625C212.057 117.093 212.036 116.577 212.244 116.166C212.244 116.151 212.263 116.136 212.271 116.119H212.285C212.315 116.061 212.349 116.004 212.386 115.95C212.553 115.751 212.774 115.606 213.022 115.531C213.561 115.478 214.305 115.869 215.027 116.261C215.796 116.672 216.586 117.093 217.313 117.093C217.478 117.094 217.642 117.07 217.8 117.022C218.211 116.884 218.554 116.592 218.757 116.208V116.23C219.375 116.148 219.968 115.933 220.496 115.602C220.479 115.808 220.466 116.038 220.459 116.307ZM220.591 111.365C220.821 111.614 220.985 111.916 221.068 112.244C221.151 112.573 221.15 112.917 221.066 113.245C221.029 113.414 220.992 113.556 220.955 113.693C220.955 113.725 220.943 113.759 220.938 113.793C220.894 113.948 220.851 114.088 220.811 114.22C220.606 114.707 220.143 115.211 219.039 115.471C219.111 114.972 219.001 114.464 218.728 114.039C218.359 113.426 217.714 112.871 217.015 112.432C217.834 112.491 218.441 112.513 218.654 112.513H218.725L218.992 112.494L219.379 110.447C219.836 110.676 220.247 110.987 220.591 111.365Z" fill="#2A2A2B"/>
<path d="M200.804 221.471V221.422L200.296 219.645C200.332 219.45 200.296 219.097 199.945 218.433L199.93 218.382H199.918C199.852 218.255 199.776 218.118 199.686 217.968C199.243 217.224 195.136 210.754 187.545 212.534C181.307 213.998 179.581 211.77 178.438 210.295C178.203 209.962 177.93 209.657 177.625 209.388L155.007 138.718C156.409 138.686 157.809 138.58 159.2 138.4C159.21 140.324 159.218 142.15 159.218 143.923H159.911C159.911 142.118 159.911 140.26 159.893 138.298C161.147 138.108 162.38 137.795 163.573 137.363L160.243 147.864L160.904 148.072L167.939 125.85H168.468L168.571 125.747C168.644 125.674 168.678 125.64 170.059 119.985C170.816 116.893 171.957 112.135 173.102 107.033C174.369 101.397 175.358 96.6319 176.069 92.7366L175.67 92.975L175.271 93.2133L160.917 101.79C154.831 105.171 150.219 106.849 146.978 106.849C145.599 106.849 144.466 106.546 143.578 105.941C139.989 103.51 140.844 96.8111 141.671 90.3257C142.022 87.5716 142.347 84.9713 142.347 82.7329H143.04C143.04 85.0153 142.702 87.6358 142.352 90.4136C141.552 96.6877 140.724 103.175 143.96 105.366C146.712 107.226 152.143 105.865 160.564 101.188L175.139 92.4796L175.43 92.3105L175.457 92.2953L175.829 92.0738L176.226 91.8354L177.056 91.3401L177.459 91.0983L177.861 90.8582L179.264 90.0214L179.567 89.8405L179.87 89.6579L185.762 86.1379L183.356 81.7185L183.545 82.0245L183.741 81.9011L184.036 81.7151L184.117 81.6644L191.622 76.9305L191.647 76.9136C192.869 75.9941 194.036 75.0046 195.143 73.9499L199.121 74.8206H199.148L199.361 74.8375C199.842 74.8764 200.099 74.895 200.173 74.895C202.012 74.895 202.332 73.2043 202.503 72.2981L204.822 55.5368C204.859 55.1547 204.903 54.7997 204.942 54.47C205.111 53.0668 205.23 52.054 204.68 51.3659C204.297 50.8875 203.637 50.6221 202.543 50.5105L194.335 49.1715C192.633 48.9652 191.901 50.6609 191.753 51.5857C191.753 51.5953 191.753 51.6049 191.753 51.6145L190.332 60.6207C188.212 60.6038 185.26 61.8041 184.571 63.8921C183.846 66.1136 183.714 67.2278 183.708 69.5119L179.312 72.8154L179.236 72.8729L178.955 73.0826L178.751 73.2364L178.735 73.2077L176.663 74.5602L176.36 74.7597L176.056 74.9575L172.725 77.1351L172.411 77.3414L158.04 86.7448C157.993 86.7959 157.929 86.8283 157.861 86.8361L155.964 87.274L157.473 86.2867V86.2951L157.758 86.1396C158.878 85.5191 159.575 85.0474 160.045 84.6011L175.888 74.2407L176.187 74.0446L176.485 73.8501C175.78 71.2871 174.686 69.6793 173.21 69.0537C170.755 68.0123 167.898 69.9126 166.133 71.3834C166.175 71.2144 166.216 71.0538 166.258 70.8881C166.818 68.6581 167.349 66.5431 167.423 65.4948L167.68 65.4036C169.283 64.8355 174.157 63.1076 174.089 59.6147C173.968 53.2138 172.034 48.4039 169.477 45.665C171.782 43.7512 173.345 41.5871 172.899 39.3554C172.586 37.7966 171.626 36.8397 170.121 36.5844C166.432 35.9606 159.839 39.8559 157.293 44.1654C156.192 46.0251 155.637 50.7691 157.453 52.2079C157.313 53.265 157.23 54.3288 157.203 55.3948C157.09 59.5471 156.843 63.1533 156.567 65.0401C155.833 64.6511 155.038 64.3892 154.216 64.2657C150.053 63.6351 145.931 66.4754 142.665 72.0293C142.645 71.9887 142.621 71.9481 142.597 71.9059C141.634 70.2372 137.694 67.1432 132.526 67.1432H132.443C128.736 67.1669 123.363 68.8931 118.82 76.9863C118.629 77.3244 117.467 79.1335 115.868 81.6204C115.582 81.5494 115.361 81.4784 115.178 81.4192C114.25 81.1149 114.04 81.2789 113.288 82.3356C111.935 84.2274 109.768 88.1363 109.677 88.302L109.614 88.4135L109.639 88.5403C109.729 88.9748 110.238 89.0272 110.73 89.078C110.809 89.0864 110.918 89.0966 111.022 89.1118C107.311 94.8465 103.678 100.468 103.053 101.538C100.107 106.585 100.621 109.665 101.57 111.361C102.701 113.39 105.039 114.534 108.152 114.604L125.782 114.998C124.073 119.923 122.942 123.684 122.972 124.973V125.311L125.253 125.338C122.526 136.682 127.861 146.654 130.616 151.682L112.503 204.092C111.979 205.218 110.632 207.23 109.207 209.361C107.115 212.483 105.604 214.793 105.092 216.142C104.78 216.136 104.474 216.23 104.219 216.411C103.269 217.056 102.669 218.777 102.934 220.105C103.103 220.96 103.611 221.515 104.365 221.667C104.854 221.775 105.352 221.845 105.852 221.875C105.808 222.213 105.852 222.69 106.065 223.385C106.294 224.113 107.6 224.369 110.424 224.23C110.179 225.178 110.267 225.921 110.683 226.458C111.536 227.544 113.449 227.363 114.591 227.255L114.906 227.227C114.651 228.379 114.771 229.204 115.266 229.741C116.138 230.688 117.903 230.354 119.07 230.134C119.288 230.093 119.537 230.046 119.726 230.02C119.251 231.204 119.597 231.948 119.991 232.364C120.862 233.285 122.653 233.361 123.298 233.096C124.191 232.727 124.517 232.682 124.637 232.688C124.634 232.789 124.624 232.889 124.607 232.988C124.546 233.425 124.438 234.161 125.192 234.541C126.287 235.098 127.309 235.373 128.235 235.373C128.864 235.38 129.485 235.237 130.048 234.955C130.61 234.673 131.097 234.261 131.468 233.753C131.779 234.234 132.263 234.575 132.82 234.705C133.519 234.872 134.25 234.851 134.938 234.646C135.627 234.441 136.25 234.059 136.744 233.537C137.566 232.624 137.748 231.403 137.267 230.091C137.679 227.589 137.343 225.559 136.266 224.057C134.585 221.712 131.545 221.229 129.911 220.97C129.606 220.932 129.304 220.873 129.008 220.791C127.643 219.195 126.336 215.149 127.681 211.066L127.777 210.774L127.062 210.436L142.873 175.961L161.808 213.697C161.54 214.252 161.905 214.923 162.238 215.413C163.083 217.848 163.555 220.384 163.969 222.625C164.422 225.075 164.814 227.204 165.589 228.457C165.251 229.346 165.533 231.623 165.798 232.568C165.993 233.245 166.219 233.583 166.537 233.66C166.724 233.702 166.915 233.723 167.107 233.723C168.24 233.723 168.982 232.942 169.45 232.448C169.574 232.308 169.709 232.179 169.854 232.061C169.933 232.189 169.994 232.327 170.033 232.472C170.082 232.642 170.174 232.797 170.3 232.921C170.426 233.046 170.581 233.136 170.752 233.184C171.734 233.463 173.161 232.507 173.457 232.247C173.982 231.836 174.412 231.317 174.72 230.725L174.889 230.867C175.591 231.481 176.309 231.713 177.023 231.571C178.169 231.336 178.98 230.168 179.427 229.326C179.615 229.453 179.786 229.606 179.934 229.779C180.404 230.286 180.653 230.306 182.582 229.948C184.541 229.589 185.493 228.257 185.917 227.628C186.209 227.887 186.552 228.083 186.924 228.203C187.295 228.323 187.688 228.364 188.076 228.325C189.157 228.252 190.135 227.708 190.57 226.94C190.768 226.588 190.908 226.33 190.996 226.142C192.714 226.818 193.015 226.703 194.704 225.728C195.272 225.4 195.656 224.742 195.887 224.281C196.592 224.734 197.887 224.759 198.327 224.649C199.038 224.478 199.671 224.071 200.121 223.493C200.571 222.916 200.812 222.203 200.804 221.471ZM179.29 73.7064L179.571 73.4968L179.647 73.4393L184.409 69.8686V69.6995C184.409 67.3799 184.522 66.3081 185.238 64.1203C185.792 62.4297 188.379 61.3527 190.23 61.3257C190.35 61.3257 190.465 61.3257 190.578 61.3341C190.656 61.3341 190.732 61.3409 190.807 61.3544C190.731 61.4863 190.624 61.652 190.499 61.8379C190.374 62.0239 190.212 62.2623 190.044 62.499C189.272 63.5929 188.254 64.9319 188.075 65.1483L187.288 66.1001L188.457 65.696C188.769 65.5878 189.001 65.3004 189.187 65.0705C189.251 64.991 189.312 64.915 189.356 64.8642C189.478 64.7442 189.603 64.6039 189.73 64.4551C189.857 64.3063 190.019 64.1051 190.168 63.909C190.316 63.7129 190.465 63.5066 190.617 63.2868C191.444 62.1034 192.323 60.5919 193.131 59.2073C194.031 57.6704 195.148 55.7566 195.498 55.5943C195.926 55.4472 196.487 55.3255 196.736 55.5943C197.037 55.9121 196.984 56.7896 196.623 57.9308C196.318 58.2842 195.911 59.0788 195.29 60.2977C194.552 61.7585 193.54 63.7585 192.976 64.0747L193.314 64.68C194.009 64.2911 194.827 62.7475 195.907 60.6105C196.131 60.1692 196.357 59.7212 196.562 59.3391L196.754 59.4304L196.912 59.1413C198.384 56.4278 199.279 55.9088 199.766 55.9527C199.845 55.949 199.925 55.9668 199.995 56.0043C200.066 56.0418 200.125 56.0975 200.166 56.1657C200.633 57.0111 199.235 59.7855 198.645 60.9723C198.418 61.4237 198.251 61.7551 198.183 61.9495C197.363 63.581 195.71 66.724 195.371 67.0215C195.401 67.0008 195.434 66.9859 195.47 66.9776L195.627 67.6538C195.796 67.6149 195.953 67.5761 196.912 65.855L196.646 66.6699L198.812 62.242C199.476 60.8895 199.84 60.695 199.913 60.6697C200.094 60.8388 200.307 61.9749 199.833 64.4534C199.284 67.3275 198.142 70.0242 194.93 73.2077C194.834 73.304 194.736 73.4004 194.634 73.4968L194.33 73.7859C193.346 74.6976 192.317 75.5593 191.246 76.3675L183.79 81.0625L183.774 81.0727L183.07 79.9315L179.814 74.6769L179.241 73.7487L179.29 73.7064ZM196.068 53.4184C195.96 53.6331 195.706 53.9645 195.481 54.0101C194.528 54.2046 194.961 53.1107 195.077 52.7726C195.5 51.557 196.655 52.2434 196.068 53.4235V53.4184ZM196.119 223.557L196 223.232L195.676 223.349C195.527 223.401 195.481 223.508 195.402 223.687C195.262 224 194.895 224.832 194.364 225.134C192.797 226.039 192.726 226.081 191.221 225.488C191.203 225.419 191.164 225.357 191.11 225.311C191.056 225.265 190.989 225.236 190.918 225.229C190.835 225.222 190.752 225.244 190.683 225.291C190.614 225.339 190.564 225.409 190.541 225.489C190.376 225.873 190.186 226.246 189.973 226.605C189.655 227.167 188.878 227.583 188.036 227.64C187.26 227.692 186.592 227.427 186.201 226.911C186.166 226.864 186.119 226.825 186.066 226.8C186.012 226.774 185.953 226.762 185.894 226.764C185.672 226.764 185.555 226.933 185.386 227.195C184.999 227.767 184.194 228.955 182.467 229.271C180.739 229.588 180.675 229.549 180.456 229.31C180.173 228.993 179.835 228.729 179.459 228.531L179.302 228.445L179.133 228.523C179.045 228.567 178.977 228.644 178.943 228.737C178.355 229.958 177.603 230.744 176.879 230.891C176.389 230.993 175.865 230.808 175.34 230.345C174.987 230.037 174.808 229.883 174.554 229.933C174.301 229.982 174.216 230.168 174.13 230.354C173.863 230.886 173.48 231.352 173.009 231.718C172.59 232.07 171.477 232.671 170.936 232.516C170.874 232.501 170.818 232.468 170.774 232.423C170.73 232.377 170.699 232.319 170.686 232.257C170.558 231.862 170.375 231.447 170.001 231.361C169.628 231.275 169.296 231.596 168.941 231.97C168.419 232.521 167.768 233.202 166.711 232.984C166.351 232.634 166.023 230.171 166.121 229.113C166.128 228.984 166.154 228.857 166.197 228.736H166.219L166.605 228.626L199.448 219.242L199.534 219.538L199.64 219.903L199.744 220.262L200.11 221.525C200.105 222.092 199.91 222.642 199.557 223.086C199.204 223.53 198.713 223.843 198.161 223.976C197.579 224.128 196.24 223.899 196.119 223.562V223.557ZM173.295 210.333C173.269 206.527 173.266 201.915 173.295 198.18L176.872 209.357L173.295 210.333ZM172.603 210.52L171.278 210.882C169.442 210.257 166.924 210.417 164.806 210.554C164.086 210.6 163.401 210.644 162.801 210.654C162.228 208.554 162.255 204.388 162.309 199.925C163.381 199.996 164.485 200.094 165.58 200.184C167.707 200.366 169.907 200.554 171.731 200.554V199.861C169.935 199.861 167.842 199.681 165.644 199.494C164.534 199.399 163.411 199.303 162.322 199.232C162.376 194.697 162.424 190.04 161.857 187.076C163.21 187.123 164.562 187.159 166.006 187.159C167.19 187.159 168.426 187.135 169.753 187.079L172.637 196.09C172.571 200.138 172.571 205.944 172.602 210.525L172.603 210.52ZM132.766 166.806C132.56 164.651 132.399 162.945 132.357 162.311C133.491 162.377 134.764 162.444 136.125 162.512L141.41 173.045C138.367 172.896 135.644 172.751 133.307 172.612C133.135 170.72 132.952 168.766 132.766 166.806ZM132.041 141.839C132.058 140.473 132.073 139.079 132.086 137.658C135.326 137.688 138.831 137.943 142.269 138.194L145.03 138.391C145.083 141.287 145.16 144.417 145.258 147.414C145.277 147.974 145.297 148.566 145.319 149.183C140.301 148.914 135.067 149.247 131.983 150.704C131.97 147.736 132.004 144.824 132.041 141.839ZM132.107 133.593C132.107 132.809 132.157 132.046 132.208 131.309C132.283 130.21 132.343 129.299 132.208 128.635C132.754 128.68 133.302 128.69 133.85 128.665C137.738 128.423 141.397 128.418 145.027 128.508C144.971 129.113 144.934 130.575 144.966 134.297C144.976 135.367 144.991 136.508 145.01 137.695L142.305 137.502C138.854 137.25 135.339 136.995 132.078 136.963C132.097 135.86 132.107 134.737 132.107 133.593ZM145.382 128.594L145.394 128.516H145.646C145.61 128.547 145.567 128.57 145.522 128.583C145.477 128.596 145.429 128.6 145.382 128.594ZM146.007 162.223C142.768 162.106 139.475 161.969 136.567 161.831L132.279 153.306C132.196 153.137 132.11 152.96 132.002 152.77C132.002 152.341 131.992 151.913 131.988 151.487C134.879 149.966 140.23 149.628 145.345 149.901C145.488 153.741 145.703 158.392 146.001 162.223H146.007ZM132.026 154.341L135.764 161.792C134.518 161.731 133.356 161.668 132.313 161.609C132.164 159.08 132.075 156.676 132.026 154.341ZM136.928 162.549C139.767 162.685 142.942 162.816 146.058 162.928C146.312 165.983 146.624 168.418 147.001 169.332C147.237 169.9 147.34 171.545 147.411 173.324L145.72 173.248C144.505 173.194 143.331 173.137 142.198 173.079L136.928 162.549ZM159.719 165.855C159.8 168.221 159.898 171.014 160.023 173.813C156.877 173.711 152.713 173.554 148.105 173.354C148.036 171.457 147.92 169.738 147.642 169.067C147.329 168.308 147.029 166.193 146.756 162.952C151.636 163.121 156.315 163.236 159.299 163.236H159.626C159.654 164.029 159.687 164.921 159.719 165.855ZM147.434 174.029C147.451 174.597 147.465 175.167 147.478 175.708C147.551 178.629 147.597 179.458 147.783 179.732L148.357 179.341L148.371 179.366C148.256 179.089 148.212 177.283 148.171 175.691C148.158 175.155 148.144 174.604 148.129 174.059C152.564 174.254 156.804 174.414 160.055 174.516C160.27 179.153 160.562 183.722 161.01 186.351L159.235 186.276C156.97 186.178 154.625 186.077 151.975 186.077V186.77C154.611 186.77 156.946 186.871 159.205 186.968L161.141 187.049C161.726 189.923 161.678 194.618 161.624 199.189C159.205 199.053 156.993 199.066 155.467 199.511L142.567 173.797C144.183 173.882 145.818 173.958 147.434 174.029ZM161.719 186.383C161.269 183.823 160.968 179.224 160.75 174.538C162.725 174.595 164.273 174.629 165.193 174.629C165.423 174.629 165.612 174.629 165.759 174.629L169.528 186.405C166.623 186.516 164.148 186.472 161.719 186.383ZM160.718 173.835C160.591 171.023 160.495 168.215 160.412 165.831C160.376 164.816 160.346 163.951 160.319 163.231C161.103 163.222 161.71 163.2 162.094 163.166L165.541 173.941C164.797 173.946 163.093 173.909 160.718 173.835ZM161.878 162.49C161.512 162.517 160.975 162.532 160.292 162.539C160.224 160.827 160.179 160.096 160.123 159.903L159.462 160.111C159.504 160.28 159.553 161.214 159.605 162.543C156.669 162.543 151.795 162.424 146.706 162.247C146.455 159.068 146.232 154.909 146.048 149.935C149.767 150.179 153.281 150.737 155.563 151.384L155.752 150.718C153.374 150.042 149.789 149.469 146.021 149.223C146.004 148.748 145.987 148.268 145.972 147.78C145.859 144.414 145.781 141.223 145.732 138.437C148.339 138.606 150.926 138.745 153.379 138.745C153.683 138.745 153.982 138.745 154.282 138.745L161.878 162.49ZM154.777 138.036L154.238 136.346L153.578 136.569L154.055 138.057C151.404 138.085 148.572 137.942 145.713 137.751C145.632 132.863 145.644 129.348 145.713 128.535C147.911 128.596 150.109 128.69 152.341 128.787C154.572 128.883 156.841 128.979 159.171 129.044C159.152 131.854 159.171 134.814 159.181 137.717C157.721 137.907 156.251 138.013 154.779 138.036H154.777ZM163.834 136.515C162.563 137.033 161.236 137.399 159.879 137.604C159.864 134.74 159.851 131.823 159.869 129.055C161.347 129.091 162.848 129.115 164.378 129.115V128.421C162.857 128.421 161.352 128.398 159.874 128.361C159.874 127.473 159.893 126.602 159.908 125.754L167.213 125.842L163.834 136.515ZM108.167 113.914C105.31 113.851 103.181 112.825 102.175 111.025C100.941 108.827 101.452 105.662 103.651 101.895C104.272 100.833 107.928 95.1779 111.65 89.4246L111.927 88.9968L112.348 88.3476C113.082 87.2115 113.809 86.0906 114.498 85.0221C114.683 85.0221 114.872 85.0305 115.073 85.0305C116.534 85.0305 118.444 84.9155 120.448 84.7938C122.516 84.6704 124.654 84.5419 126.345 84.5419H127.292C129.791 84.5419 134.345 84.5301 137.267 84.711L137.628 84.7346L137.875 84.7532C136.589 88.1971 135.17 91.9555 133.764 95.6023C133.425 96.4865 133.087 97.3639 132.749 98.2279C130.889 103.05 129.129 107.483 127.877 110.489L127.758 110.516L127.539 110.57L127.378 110.607L127.305 110.752V110.768C126.044 113.304 125.865 114.039 125.905 114.318L108.167 113.914ZM116.59 81.7912C118.128 79.404 119.232 77.6795 119.423 77.338C123.804 69.5355 128.925 67.8702 132.441 67.8483H132.533C137.361 67.8483 141.138 70.7663 142 72.2643C142.212 72.6295 142.208 72.8273 142.17 72.8881L142.139 72.9524C142.137 72.9611 142.134 72.9696 142.131 72.9777C141.887 73.7013 141.571 74.6092 141.196 75.6642C140.396 77.9027 139.324 80.8343 138.112 84.0685L137.879 84.0499L137.517 84.0229C134.616 83.8284 130.031 83.8369 127.28 83.842H126.345C124.634 83.842 122.485 83.9705 120.407 84.0956C118.329 84.2207 116.395 84.339 114.95 84.3272L116.302 82.2206L116.586 81.781L116.59 81.7912ZM137.339 109.461C135.096 110.967 131.569 112.883 127.195 113.763L126.937 113.814L126.768 113.846L126.664 113.868C127.014 112.959 127.409 112.067 127.848 111.197H127.873L127.954 111.178L128.375 111.074C133.566 109.74 137.902 107.029 140.692 103.374C140.99 104.184 141.328 104.979 141.706 105.755C141.324 106.255 139.779 107.827 137.339 109.461ZM170.005 37.2692C171.219 37.4754 171.964 38.2244 172.219 39.4941C172.607 41.4265 171.136 43.3826 168.978 45.173L168.696 45.4013C168.607 45.474 168.514 45.5467 168.421 45.6177C165.398 47.9559 161.32 49.9458 158.987 51.087L158.275 51.437L157.898 51.6229L157.856 51.6449C157.755 51.5588 157.665 51.4612 157.587 51.3541C156.508 49.8798 157.01 46.0099 157.889 44.5204C160.109 40.7638 165.768 37.2117 169.274 37.2117C169.519 37.2105 169.763 37.2297 170.005 37.2692ZM157.524 62.6292C157.693 60.6511 157.825 58.0238 157.896 55.4235C157.923 54.3728 158.006 53.3242 158.145 52.2823C158.466 52.1132 158.851 51.9323 159.291 51.7176C161.849 50.4682 165.896 48.4918 168.928 46.1232C169.44 46.6721 169.902 47.2669 170.306 47.9001C171.658 49.9948 173.285 53.7312 173.396 59.6435C173.454 62.6359 168.935 64.2387 167.448 64.7645C166.889 64.964 166.738 65.0164 166.738 65.2852C166.738 66.1441 166.152 68.4789 165.585 70.7342C165.46 71.2414 165.335 71.7283 165.218 72.2017C165.093 72.3167 164.978 72.4232 164.88 72.5145C164.737 72.6481 164.588 72.7867 164.542 72.8154C164.385 72.9236 163.712 72.829 163.144 72.7309C163.126 72.656 163.104 72.5821 163.078 72.5094C163.032 72.3911 162.97 72.2271 161.277 71.3023L160.988 71.1451L160.98 71.1586C160.439 68.697 159.068 66.6496 157.2 65.4255C157.309 64.7915 157.418 63.8989 157.524 62.6224V62.6292ZM159.257 80.3152C159.803 78.4555 160.39 76.4656 160.779 74.8172C160.807 74.7022 160.833 74.589 160.858 74.4791C160.884 74.3692 160.912 74.239 160.938 74.1223C161.014 73.7673 161.078 73.4342 161.127 73.1316C161.147 73.0116 161.164 72.8966 161.178 72.785C161.191 72.6734 161.206 72.55 161.217 72.4469C161.227 72.3437 161.235 72.1933 161.237 72.08C161.406 72.1781 161.585 72.2778 161.744 72.3742L162.016 72.5432C162.165 72.6309 162.31 72.7263 162.449 72.829C162.464 72.8763 162.477 72.927 162.49 72.9811C162.517 73.1009 162.536 73.2224 162.547 73.3446C162.583 73.833 162.575 74.3235 162.524 74.8104C162.512 74.9271 162.5 75.0454 162.486 75.1672C162.473 75.2889 162.459 75.3954 162.444 75.5053C162.192 77.4039 161.599 79.7083 161.058 81.027C160.855 81.5156 160.72 81.9197 160.584 82.2764C160.167 83.443 159.982 83.9671 158.662 84.8124C158.447 84.9527 158.204 85.1015 157.923 85.2638C158.087 84.29 158.726 82.1192 159.257 80.3085V80.3152ZM110.799 88.3848C110.699 88.3747 110.561 88.3594 110.446 88.3408C110.987 87.3805 112.737 84.3001 113.853 82.7346C114.11 82.3728 114.36 82.0431 114.488 81.9755C114.553 81.945 114.669 81.9755 114.963 82.0752C115.1 82.1192 115.268 82.1733 115.471 82.2308L111.428 88.4862C111.222 88.4348 111.011 88.4009 110.799 88.3848ZM125.971 125.339L159.217 125.749C159.2 126.594 159.19 127.461 159.183 128.345C156.861 128.279 154.598 128.176 152.378 128.088C146.193 127.823 140.352 127.571 133.816 127.975C133.188 128.003 132.559 127.985 131.934 127.921C131.865 127.826 131.781 127.743 131.686 127.676C131.31 127.414 130.791 127.431 130.107 127.72L129.845 127.688C128.729 127.524 127.604 127.426 126.477 127.392V128.085C127.576 128.119 128.672 128.216 129.76 128.376C130.337 128.447 130.922 128.518 131.49 128.575C131.659 129.132 131.588 130.212 131.517 131.265C131.468 131.98 131.414 132.787 131.414 133.597C131.414 134.74 131.408 135.862 131.398 136.964C129.506 136.947 127.614 137.064 125.738 137.314C125.043 133.639 124.925 129.585 125.971 125.344V125.339ZM125.875 137.987C127.704 137.747 129.548 137.634 131.393 137.649C131.382 139.069 131.367 140.461 131.348 141.825C131.309 144.936 131.273 147.967 131.292 151.07C131.239 151.102 131.187 151.134 131.136 151.168C129.51 148.199 127.052 143.565 125.875 137.992V137.987ZM131.074 152.497L131.309 152.933C131.348 155.695 131.439 158.539 131.618 161.555C130.044 161.459 128.796 161.369 128.032 161.29L131.074 152.497ZM127.801 161.964C128.583 162.052 129.933 162.152 131.659 162.259V162.318C131.698 162.942 131.853 164.587 132.07 166.861C132.22 168.446 132.408 170.431 132.602 172.558C128.387 172.299 125.528 172.068 124.369 171.882L127.801 161.964ZM124.144 172.545C125.366 172.754 128.558 173.004 132.671 173.256C133.067 177.652 133.468 182.513 133.598 185.683C130.132 185.206 125.395 184.727 122.238 184.678C121.998 182.917 121.672 181.593 121.239 180.947L124.144 172.545ZM120.931 181.843C121.185 182.477 121.391 183.454 121.555 184.678C121.01 184.676 120.464 184.704 119.922 184.763L120.931 181.843ZM119.665 185.505C120.318 185.398 120.98 185.352 121.641 185.368C122.008 188.581 122.127 193.184 122.09 197.71C119.396 197.5 116.551 197.265 115.665 197.091L119.665 185.505ZM115.438 197.737C116.135 197.906 117.805 198.063 122.083 198.397C122.04 201.905 121.905 205.318 121.719 207.95L113.266 204.032L115.438 197.737ZM133.021 234.026C132.589 233.909 132.046 233.627 131.907 232.954L131.836 232.605L131.49 232.687C131.341 232.72 131.277 232.82 131.189 232.957C129.96 234.876 128.053 235.197 125.522 233.912C125.244 233.77 125.244 233.549 125.31 233.067C125.358 232.729 125.41 232.352 125.109 232.117C124.975 232.02 124.812 231.972 124.647 231.98C124.309 231.98 123.802 232.127 123.052 232.436C122.681 232.59 121.18 232.575 120.516 231.87C120.117 231.449 120.11 230.829 120.494 230.026C120.541 229.943 120.564 229.849 120.559 229.754C120.554 229.659 120.521 229.568 120.465 229.491C120.237 229.194 119.789 229.28 118.962 229.435C117.947 229.627 116.407 229.917 115.797 229.255C115.427 228.856 115.391 228.1 115.69 227.011C115.707 226.951 115.709 226.888 115.696 226.828C115.683 226.767 115.655 226.711 115.616 226.663C115.447 226.463 115.202 226.494 114.547 226.548C113.611 226.636 111.868 226.8 111.249 226.012C110.941 225.621 110.911 224.997 111.183 224.152L111.317 224.123L111.276 223.804C111.234 223.481 110.953 223.496 110.657 223.513C106.965 223.721 106.755 223.19 106.748 223.175C106.402 222.069 106.613 221.78 106.61 221.78L106.862 221.611L106.596 221.072L106.309 221.163C106.309 221.163 105.93 221.275 104.523 220.994C104.05 220.898 103.751 220.554 103.634 219.98C103.425 218.935 103.908 217.484 104.628 216.996C104.718 216.933 104.819 216.888 104.926 216.862C105.04 216.836 105.16 216.839 105.272 216.872C105.367 216.899 105.456 216.941 105.538 216.996C105.646 217.065 105.759 217.134 105.876 217.203C106.66 217.672 107.621 218.127 108.63 218.603C110.182 219.337 111.942 220.169 113.533 221.268C114.532 221.959 115.635 222.803 116.801 223.696C118.431 224.943 120.221 226.313 122.068 227.511C124.068 228.808 126.135 229.902 128.142 230.423C128.914 230.631 129.709 230.741 130.509 230.749C130.722 230.749 131.141 230.776 131.628 230.807C133.032 230.898 134.164 230.947 135.033 230.927C135.803 230.908 136.372 230.834 136.751 230.683C137.001 231.616 136.832 232.44 136.254 233.084C135.481 233.914 134.095 234.328 133.013 234.034L133.021 234.026ZM126.446 210.148L122.389 208.27C122.587 205.612 122.737 202.096 122.783 198.464L123.303 198.505C126.629 198.76 130.053 199.024 131.434 199.255L126.446 210.148ZM131.738 198.601C130.424 198.353 126.987 198.094 123.363 197.81L122.796 197.766C122.837 193.284 122.717 188.699 122.33 185.382C125.429 185.441 130.174 185.908 133.627 186.396C133.669 187.799 133.642 188.763 133.515 189.051L134.147 189.336C134.301 188.998 134.349 187.984 134.316 186.493C135.463 186.662 136.425 186.831 137.074 186.974L131.738 198.601ZM137.365 186.323C136.707 186.171 135.62 185.985 134.293 185.793C134.186 182.815 133.824 178.303 133.375 173.31C135.934 173.464 138.814 173.618 141.776 173.765L142.479 175.167L137.365 186.323ZM155.793 200.146C157.228 199.761 159.325 199.756 161.626 199.888C161.568 204.601 161.54 208.995 162.223 211.115L162.561 211.009V211.347C163.237 211.347 164.032 211.296 164.87 211.242C166.492 211.139 168.36 211.019 169.908 211.256L162.403 213.298L155.793 200.146Z" fill="#2A2A2B"/>
<path d="M213.367 98.0842C213.675 95.3943 212.892 93.2117 211.222 92.0958C210.551 91.656 209.772 91.4104 208.97 91.3862C208.169 91.3621 207.376 91.5603 206.681 91.9589C205.189 92.789 204.109 93.0679 203.468 92.789C202.802 92.4982 202.581 91.6055 202.346 90.6452C202.092 89.6173 201.83 88.5539 200.922 88.1735C200.131 87.8438 199.039 88.1194 197.482 89.0425C196.934 89.3688 196.525 89.4837 196.266 89.3806C195.918 89.247 195.733 88.6638 195.537 88.045C195.179 86.9088 194.692 85.3534 192.638 85.7913C191.858 85.9604 191.324 85.9384 191.049 85.7355C190.773 85.5326 190.71 85.0356 190.656 84.4794C190.587 83.7118 190.501 82.7583 189.578 82.2815L189.26 82.8969C189.804 83.1792 189.891 83.7067 189.967 84.5419C190.026 85.2047 190.088 85.8945 190.643 86.2934C191.098 86.6316 191.779 86.684 192.788 86.4625C194.151 86.1717 194.479 86.9511 194.881 88.2479C195.118 88.9951 195.362 89.7695 196.024 90.0214C196.503 90.204 197.081 90.0789 197.842 89.6274C199.155 88.8464 200.106 88.5691 200.658 88.8024C201.245 89.0475 201.455 89.8979 201.673 90.7991C201.926 91.8236 202.212 92.9851 203.194 93.4128C204.067 93.7932 205.282 93.5194 207.019 92.554C207.603 92.2175 208.269 92.0494 208.943 92.0682C209.617 92.087 210.273 92.292 210.838 92.6605C212.285 93.6276 212.956 95.5718 212.679 97.9946L213.367 98.0842Z" fill="#2A2A2B"/>
<path d="M216.168 97.7429L216.862 97.7277C216.806 95.2762 215.847 91.7326 213.325 89.8103C211.847 88.6843 210.041 88.3462 208.104 88.8348L208.058 88.85C205.487 89.8948 205.015 89.019 204.3 87.6953C203.566 86.3343 202.652 84.6419 199.157 85.0832L199.243 85.7713C202.269 85.3892 202.99 86.7299 203.69 88.0249C204.417 89.3775 205.167 90.7638 208.297 89.5009C210.036 89.0698 211.588 89.3589 212.905 90.3631C215.083 92.02 216.113 95.2644 216.168 97.7429Z" fill="#2A2A2B"/>
<path d="M239.989 65.0676C236.131 81.4376 255.794 92.2651 269.239 91.8309C282.683 91.3966 288.069 76.958 291.072 59.1015C294.075 41.245 281.661 30.9853 267.072 33.6786C253.402 36.2023 243.848 48.6976 239.989 65.0676Z" fill="url(#paint1_linear_4_859)"/>
<defs>
<linearGradient id="paint0_linear_4_859" x1="138.811" y1="308.687" x2="35.0742" y2="53.3" gradientUnits="userSpaceOnUse">
<stop stop-color="#FAC7FF"/>
<stop offset="1" stop-color="#FFD2BE"/>
</linearGradient>
<linearGradient id="paint1_linear_4_859" x1="265.33" y1="11.6798" x2="277.294" y2="90.7268" gradientUnits="userSpaceOnUse">
<stop stop-color="#FAC7FF"/>
<stop offset="1" stop-color="#FFD2BE"/>
</linearGradient>
</defs>
</svg>
