<svg width="339" height="339" viewBox="0 0 339 339" fill="none" xmlns="http://www.w3.org/2000/svg">
<path d="M196.575 57.6773C193.009 56.1598 188.912 55.8694 185.786 53.398C183.3 51.4228 181.652 48.6249 180.007 45.9547C176.897 40.8889 173.35 36.2073 166.839 36.317C159.78 36.43 152.611 40.8709 146.083 36.2446C141.401 32.9157 138.731 27.4657 134.05 24.1378C128.307 20.0777 122.309 22.5649 116.548 25.1616C112.799 26.8442 108.977 28.2341 104.807 27.4295C100.773 26.4737 97.0746 24.4382 94.1087 21.5411C89.3728 17.2245 85.2754 10.4038 78.3632 9.56308C74.6342 9.11108 71.286 10.8807 67.8113 11.9361C63.0382 13.4051 58.6673 12.1372 54.2784 10.1281C48.4815 7.49518 41.0744 3.45316 34.7836 7.11097C33.5331 7.84369 32.4789 8.8687 31.7114 10.0982C30.9438 11.3276 30.4858 12.7248 30.3767 14.1701C30.1021 17.4245 31.8027 20.0947 33.8322 22.4903C34.9969 23.7473 36.0784 25.079 37.0696 26.4769C38.333 28.5597 39.0339 30.9349 39.1036 33.3699C39.3601 36.9362 39.1036 40.5748 40.4596 43.958C41.4653 46.4632 43.3129 48.7865 46.0735 49.408C49.5121 50.1764 52.6207 48.0362 55.8582 47.2678C63.4291 45.4598 66.6847 54.5472 71.8601 58.1497C74.7393 60.1293 78.1495 61.1928 81.6436 61.2007C85.6303 61.2199 89.0496 59.0254 92.9436 58.7689C96.9122 58.5124 99.9666 61.2922 102.71 63.7613C105.121 66.1857 107.994 68.1013 111.159 69.3943C114.502 70.5985 118.1 70.9135 121.6 70.3085C125.368 69.6497 128.331 67.1999 131.989 66.3399C138.681 64.7489 144.68 70.4181 150.806 72.0272C153.538 72.822 156.466 72.588 159.036 71.3696C162.712 69.5774 165.711 65.7727 170.027 65.5715C173.886 65.3885 175.733 68.974 177.836 71.5707C178.648 72.7293 179.753 73.6513 181.038 74.2424C182.323 74.8335 183.743 75.0724 185.15 74.9347C187.09 74.7528 188.954 74.094 190.913 74.0205C193.199 73.929 197.021 75.5935 195.412 78.5564C195.211 78.9406 195.559 79.544 196.035 79.3609C198.545 78.3762 201.219 77.8736 203.916 77.8795C204.037 77.8799 204.154 77.8407 204.249 77.768C204.345 77.6953 204.414 77.5931 204.446 77.4772C204.774 76.0555 204.939 74.6014 204.94 73.1425C204.94 73.1244 204.94 73.1245 204.958 73.1064C205.466 69.9693 204.919 66.7524 203.402 63.96C201.884 61.1677 199.483 58.9579 196.575 57.6773Z" fill="#2C2B47"/>
<path d="M200.745 74.502C200.687 74.4745 200.625 74.4603 200.561 74.4603C200.498 74.4603 200.436 74.4745 200.378 74.502C195.77 73.624 193.996 79.2932 194.163 82.9148C194.346 87.0472 196.762 91.7108 200.691 93.4476C205.703 95.642 207.422 88.7117 207.495 85.1093C207.603 82.8606 207.012 80.6336 205.803 78.7343C204.594 76.835 202.827 75.3566 200.745 74.502Z" fill="#FEDFFD"/>
<path d="M212.065 78.9463C204.456 80.7746 196.855 82.6034 189.26 84.4325C189.168 84.4582 189.085 84.5077 189.018 84.5759C188.951 84.6441 188.903 84.7286 188.879 84.8211C188.854 84.9136 188.855 85.0107 188.88 85.103C188.905 85.1952 188.954 85.2792 189.022 85.3466C189.799 86.154 190.739 86.7867 191.78 87.2029C192.82 87.619 193.938 87.809 195.057 87.7603C197.471 87.4676 198.769 85.2551 199.702 83.2618C199.737 83.1878 199.756 83.1067 199.757 83.0245C200.653 82.8041 201.565 82.5849 202.463 82.3657C202.481 82.3838 202.481 82.4019 202.501 82.4211C203.322 83.2676 204.361 83.8709 205.503 84.1644C206.645 84.4579 207.847 84.4302 208.974 84.0844C211.095 83.3714 211.846 81.6527 212.668 79.7509C212.725 79.6584 212.752 79.5512 212.747 79.443C212.742 79.3348 212.704 79.2307 212.639 79.144C212.574 79.0574 212.485 78.9922 212.382 78.9569C212.28 78.9217 212.169 78.918 212.065 78.9463Z" fill="#2C2B47"/>
<path d="M306.777 332.651C305.222 312.48 299.754 292.528 293.939 273.213C293.609 272.133 293.28 271.036 292.951 269.957C292.786 269.427 292.695 268.421 292.273 268.019C292.109 267.903 291.922 267.822 291.724 267.782C290.968 267.615 290.194 267.539 289.42 267.556C285.963 267.337 282.508 267.227 279.051 267.117C266.213 266.697 253.357 266.422 240.501 266.13C223.511 265.745 206.516 265.355 189.515 264.959C173.184 264.557 156.858 264.154 140.54 263.587C138.766 263.533 137.01 263.46 135.237 263.405C135.118 263.407 135.002 263.447 134.906 263.52C134.811 263.592 134.741 263.693 134.706 263.808C127.83 282.259 118.503 299.687 112.049 318.304C110.366 322.938 109.044 327.695 108.094 332.532C108.074 332.613 108.073 332.698 108.091 332.78C108.108 332.861 108.143 332.938 108.194 333.005C108.245 333.071 108.31 333.126 108.384 333.164C108.458 333.202 108.54 333.224 108.624 333.227H298.199C300.752 333.355 303.309 333.355 305.862 333.227C305.977 333.218 306.094 333.218 306.21 333.227C306.298 333.23 306.386 333.212 306.465 333.173C306.563 333.126 306.645 333.052 306.7 332.959C306.756 332.866 306.783 332.759 306.777 332.651Z" fill="#2C2B47"/>
<path d="M323.674 185.911C322.284 172.816 319.358 159.741 313.122 148.037C307.506 137.16 298.726 128.24 287.94 122.452C275.98 116.198 262.393 113.345 249.294 110.492C220.179 104.164 190.554 100.47 160.872 97.9833C132.526 95.6103 103.559 93.4113 75.3778 98.4771C53.3044 102.432 26.4578 111.516 17.0223 134.028C12.3215 145.239 13.3645 157.967 17.6619 169.122C22.2339 180.987 30.4637 190.921 39.7534 199.406C49.3358 208.166 59.9804 215.866 70.5504 223.345C81.3216 230.953 92.6227 238.012 104.931 242.876C110.289 244.999 120.823 247.558 121.353 247.759C121.902 247.101 128.741 233.747 132.143 226.854C129.203 241.143 127.145 255.599 125.98 270.141C125.961 270.36 185.69 278.517 215.589 279.102C230.512 279.394 245.428 279.131 260.337 278.311C264.029 278.11 267.723 277.872 271.419 277.598C273.321 277.452 275.242 277.196 277.126 277.146C277.461 277.099 277.802 277.13 278.122 277.238C278.443 277.346 278.734 277.527 278.972 277.767C279.521 278.219 279.996 278.755 280.563 279.193C284.249 281.938 288.775 283.315 293.365 283.089C297.87 283.025 302.272 281.729 306.093 279.34C310.354 276.561 313.133 272.172 315.072 267.562C317.355 261.844 319.231 255.971 320.686 249.989C322.443 243.186 323.63 236.249 324.234 229.25C325.475 214.82 325.287 200.303 323.674 185.911Z" fill="#FFC200"/>
<path d="M312.921 238.926C311.367 225.978 309.702 213.049 305.953 200.523C302.503 188.982 297.663 177.904 291.54 167.531C288.091 161.709 284.254 156.124 280.056 150.816C278.739 149.152 276.416 151.494 277.714 153.158C292.274 171.694 302.132 193.479 306.445 216.653C307.835 224.04 308.731 231.502 309.627 238.963C309.867 241.011 313.159 241.048 312.921 238.926Z" fill="#FEDFFD"/>
<path d="M259.155 232.983C254.583 216.305 251.091 199.187 250.651 181.833C250.349 172.26 251.172 162.685 253.102 153.304C255.535 153.322 257.961 153.322 260.38 153.34C260.809 153.329 261.217 153.15 261.516 152.843C261.816 152.536 261.984 152.123 261.984 151.694C261.984 151.265 261.816 150.853 261.516 150.545C261.217 150.238 260.809 150.059 260.38 150.048C257.692 150.03 255.004 150.012 252.315 150.012C252.017 149.997 251.721 150.073 251.466 150.23C251.212 150.387 251.011 150.617 250.889 150.89C250.665 150.981 250.469 151.128 250.318 151.317C250.167 151.506 250.068 151.731 250.029 151.969C246.281 169.451 246.811 187.429 249.609 205.004C251.06 213.816 252.952 222.55 255.278 231.173C257.202 238.876 259.646 246.44 262.594 253.813C265.794 261.938 270.448 269.412 276.328 275.868C277.79 277.422 280.113 275.077 278.668 273.527C268.116 262.371 263.124 247.504 259.155 232.983Z" fill="#FEDFFD"/>
<path d="M138.823 215.848C138.776 215.67 138.709 215.497 138.622 215.335C124.759 192.106 107.133 171.341 86.4642 153.889C80.723 149.042 74.7555 144.47 68.5616 140.173C66.8237 138.948 65.1592 141.82 66.8971 143.026C88.6559 158.201 107.751 176.876 123.406 198.291C127.813 204.326 131.934 210.568 135.768 217.018C135.805 217.091 135.86 217.146 135.896 217.219C134.54 220.347 133.335 223.565 131.764 226.598C130.794 228.481 133.628 230.145 134.616 228.261C136.372 224.897 137.652 221.312 139.206 217.838C139.357 217.508 139.402 217.138 139.333 216.782C139.264 216.425 139.086 216.099 138.823 215.848Z" fill="#FEDFFD"/>
<path d="M154.952 261.128C153.414 251.717 151.35 242.399 148.771 233.217C147.838 229.889 146.705 226.377 144.07 224.129C141.766 222.153 137.414 221.367 135.348 219.157C125.71 238.925 113.036 256.006 108.228 272.227C106.917 276.293 106.178 280.521 106.034 284.791C105.955 286.02 106.174 287.249 106.672 288.376C106.928 288.935 107.34 289.407 107.86 289.735C108.379 290.063 108.983 290.233 109.598 290.224C109.934 290.181 110.255 290.061 110.537 289.874C110.82 289.687 111.055 289.437 111.225 289.144C111.074 291.846 111.377 294.554 112.121 297.155C112.199 297.622 112.37 298.068 112.625 298.467C112.879 298.866 113.212 299.21 113.602 299.477C114.109 299.688 114.67 299.735 115.205 299.61C115.74 299.485 116.222 299.196 116.583 298.782C117.29 297.939 117.808 296.953 118.101 295.893C117.486 298.612 117.399 301.425 117.845 304.177C117.898 304.962 118.112 305.728 118.474 306.426C118.835 307.125 119.337 307.741 119.948 308.237C120.794 308.662 121.756 308.795 122.686 308.616C123.615 308.438 124.46 307.957 125.088 307.249C126.317 305.8 127.126 304.041 127.428 302.164C127.74 300.302 128.311 298.492 129.123 296.788C129.159 298.548 129.604 300.276 130.421 301.835C130.843 302.61 131.511 303.221 132.319 303.572C133.128 303.923 134.03 303.994 134.884 303.773C136.31 303.243 137.078 301.726 137.681 300.336C143.106 287.614 145.461 273.795 144.558 259.995C145.213 265.908 146.438 271.745 148.215 277.423C148.78 279.069 149.953 280.989 151.654 280.7C152.165 280.539 152.632 280.265 153.022 279.898C153.411 279.53 153.713 279.079 153.903 278.579C156.58 273.289 155.903 266.979 154.952 261.128Z" fill="#FEDFFD"/>
<path d="M250.853 58.7192H209.834C209.253 58.721 208.696 58.9528 208.284 59.364C207.873 59.7751 207.642 60.3322 207.64 60.9137V141.947C207.642 142.529 207.873 143.086 208.284 143.497C208.696 143.908 209.253 144.14 209.834 144.142H250.853C251.435 144.14 251.992 143.908 252.403 143.497C252.814 143.086 253.046 142.529 253.048 141.947V60.9137C253.046 60.3322 252.814 59.7751 252.403 59.364C251.992 58.9528 251.435 58.721 250.853 58.7192Z" fill="#5A80F9" stroke="#5A80F9" stroke-width="0.162" stroke-miterlimit="10"/>
<path d="M280.127 115.938C280.035 111.129 279.761 105.953 276.835 102.132C274.236 98.7112 270.032 96.9744 266.027 95.4015C251.822 89.8091 238.656 82.2923 223.401 82.9873C221.938 83.0607 217.987 82.9511 217.457 85.9321C217.399 87.1753 217.752 88.4032 218.463 89.4249C219.67 91.0894 221.681 91.4917 223.565 91.8567C228.595 92.8081 233.618 93.7652 238.635 94.728C229.692 94.9664 220.164 95.3687 212.794 100.453C211.477 101.367 210.105 102.701 210.655 104.408C210.792 104.812 211.018 105.18 211.315 105.487C211.612 105.793 211.974 106.03 212.373 106.181C213.802 106.68 215.354 106.706 216.798 106.254C223.09 104.571 229.381 104.316 237.446 102.212C231.557 105.577 226.473 106.529 221.408 109.546C219.176 110.881 216.012 112.618 214.239 114.518C213.238 115.482 212.523 116.703 212.172 118.048C211.77 119.51 213.654 121.065 215.135 120.828C221.518 119.897 227.748 118.119 233.66 115.541C232.856 116.182 231.996 116.84 230.948 117.59C227.869 119.557 225.548 122.509 224.364 125.966C224.256 126.317 224.222 126.686 224.263 127.051C224.304 127.416 224.42 127.769 224.602 128.088C225.48 129.605 227.217 129.295 228.625 128.892C235.538 126.917 241.921 123.04 248.028 119.273C248.219 125.324 250.261 131.171 253.881 136.024C256.294 139.075 259.53 141.912 259.934 145.771C260.189 148.186 259.275 150.582 259.369 152.995C265.789 153.178 272.202 153.093 278.608 152.739L279.173 152.575C280.058 141.087 280.333 127.481 280.127 115.938Z" fill="#FEDFFD"/>
<path d="M230.352 64.0054C229.943 64.0054 229.543 64.1266 229.203 64.3538C228.863 64.5809 228.598 64.9038 228.442 65.2815C228.286 65.6592 228.245 66.0748 228.325 66.4758C228.404 66.8767 228.601 67.245 228.891 67.534C229.18 67.823 229.548 68.0197 229.949 68.0993C230.35 68.179 230.766 68.1379 231.143 67.9813C231.521 67.8247 231.844 67.5596 232.071 67.2196C232.298 66.8795 232.419 66.4798 232.418 66.071C232.419 65.7996 232.365 65.5307 232.262 65.2799C232.158 65.0291 232.006 64.8012 231.814 64.6093C231.622 64.4174 231.394 64.2653 231.143 64.1617C230.892 64.058 230.623 64.0049 230.352 64.0054Z" fill="#FEDFFD"/>
<path d="M246.007 107.072C241.313 109.063 236.879 111.618 232.803 114.68C231.687 115.521 232.785 117.423 233.918 116.582C238.003 113.534 242.436 110.98 247.122 108.974C248.42 108.426 247.305 106.524 246.007 107.072Z" fill="#2C2B47"/>
<path d="M245.476 98.6964C242.186 99.0976 238.996 100.089 236.058 101.623C234.796 102.281 235.911 104.183 237.173 103.525C239.765 102.166 242.575 101.274 245.476 100.891C246.865 100.727 246.885 98.5359 245.476 98.6964Z" fill="#2C2B47"/>
<path d="M244.159 94.6939C242.245 93.8435 240.162 93.443 238.07 93.5232C236.662 93.5967 236.643 95.7912 238.07 95.7177C239.777 95.6257 241.483 95.9196 243.062 96.5776C244.342 97.1426 245.457 95.2589 244.159 94.6939Z" fill="#2C2B47"/>
<path d="M123.114 272.083C119.874 279.956 117.739 288.239 116.767 296.697C116.602 298.105 118.801 298.087 118.962 296.697C119.94 288.44 122.045 280.355 125.216 272.668C125.769 271.369 123.643 270.802 123.114 272.083Z" fill="#2C2B47"/>
<path d="M131.965 272.796C129.295 281.942 127.904 291.413 127.831 300.94C127.831 301.231 127.947 301.511 128.153 301.716C128.358 301.922 128.637 302.038 128.928 302.038C129.219 302.038 129.499 301.922 129.704 301.716C129.91 301.511 130.026 301.231 130.026 300.94C130.095 291.611 131.455 282.337 134.068 273.381C134.14 273.104 134.101 272.809 133.958 272.561C133.815 272.313 133.58 272.13 133.304 272.054C133.028 271.977 132.733 272.012 132.483 272.15C132.232 272.289 132.046 272.521 131.965 272.796Z" fill="#2C2B47"/>
<path d="M117.865 265.298C114.167 272.621 111.608 280.465 110.276 288.559C110.056 289.949 112.177 290.534 112.397 289.144C113.678 281.236 116.164 273.57 119.766 266.413C120.407 265.151 118.504 264.036 117.865 265.298Z" fill="#2C2B47"/>
<path d="M296.901 85.6541C295.289 85.1372 293.83 84.2285 292.656 83.0093C291.481 81.7901 290.628 80.2986 290.172 78.6684C290.13 78.5381 290.042 78.4276 289.925 78.3583C289.807 78.2889 289.667 78.2656 289.533 78.2928C289.399 78.32 289.28 78.3959 289.199 78.5057C289.117 78.6155 289.08 78.7516 289.092 78.8877C289.009 78.9493 288.945 79.0342 288.909 79.1319C288.873 79.2296 288.867 79.3357 288.891 79.4368C289.312 81.2098 289.75 83.1489 289.037 84.9049C288.237 86.4435 286.942 87.6676 285.361 88.3797C285.25 88.4493 285.168 88.556 285.128 88.6809C285.088 88.8057 285.094 88.9406 285.145 89.0614C285.196 89.1822 285.288 89.2811 285.404 89.3404C285.521 89.3998 285.655 89.4157 285.783 89.3854C289.64 88.1966 291.743 93.8466 293.207 96.4072C293.275 96.5196 293.382 96.6036 293.507 96.6442C293.633 96.6847 293.768 96.6791 293.89 96.6283C294.011 96.5775 294.111 96.4849 294.17 96.3673C294.229 96.2496 294.244 96.1147 294.212 95.9868C293.637 94.3573 293.419 92.6231 293.573 90.9018C293.902 88.8531 295.329 87.6644 297.03 86.6587C297.12 86.6023 297.192 86.521 297.238 86.4247C297.284 86.3283 297.301 86.2209 297.287 86.1151C297.274 86.0093 297.23 85.9096 297.162 85.8279C297.093 85.7462 297.003 85.6859 296.901 85.6541Z" fill="#BBE7FF"/>
<path d="M207.877 26.8623C207.396 26.107 207.108 25.2452 207.038 24.3525C206.968 23.4598 207.118 22.5635 207.475 21.7423C207.694 21.2112 207.053 20.9378 206.651 21.1773C206.559 21.1767 206.47 21.2023 206.392 21.2509C206.314 21.2995 206.252 21.3692 206.213 21.4519C205.936 22.1164 205.539 22.7241 205.042 23.2441C204.626 23.6094 204.125 23.8645 203.585 23.9859C203.045 24.1073 202.483 24.0912 201.951 23.939C201.403 23.8656 200.909 24.6521 201.531 24.9447C203.397 25.8227 202.427 28.6206 202.171 30.1563C202.079 30.7213 202.903 31.1993 203.176 30.5778C204.036 28.6749 205.06 27.4138 207.401 27.7065C207.822 27.7404 208.059 27.1923 207.877 26.8623Z" fill="#BBE7FF"/>
<path d="M273.475 16.2924C272.176 15.4254 271.112 14.2501 270.378 12.8716C269.644 11.4931 269.263 9.95424 269.269 8.39254C269.266 8.25727 269.213 8.12783 269.121 8.02847C269.029 7.92911 268.905 7.86664 268.77 7.85278C268.635 7.83892 268.5 7.87461 268.39 7.95317C268.28 8.03174 268.202 8.14777 268.172 8.27954C268.079 8.31902 267.999 8.38516 267.944 8.46962C267.888 8.55408 267.859 8.65308 267.86 8.75414C267.929 10.3188 267.595 11.8751 266.891 13.2741C265.922 14.8471 264.13 15.3398 262.465 15.7974C262.34 15.8354 262.232 15.9169 262.161 16.0272C262.09 16.1376 262.061 16.2697 262.078 16.3997C262.096 16.5297 262.159 16.6491 262.257 16.7365C262.355 16.8239 262.481 16.8736 262.612 16.8766C266.306 16.8404 266.744 22.2712 267.421 24.9775C267.459 25.1031 267.541 25.2109 267.651 25.2819C267.761 25.3528 267.893 25.3821 268.023 25.3646C268.153 25.347 268.272 25.2837 268.36 25.1861C268.447 25.0885 268.497 24.9628 268.5 24.8318C268.432 23.3928 268.605 21.9525 269.012 20.5705C269.725 18.6134 271.426 17.7727 273.328 17.2608C273.43 17.2357 273.522 17.181 273.592 17.1035C273.663 17.026 273.709 16.9294 273.725 16.8257C273.741 16.722 273.725 16.616 273.681 16.521C273.636 16.4261 273.564 16.3465 273.475 16.2924Z" fill="#BBE7FF"/>
<path d="M225.435 83.7917C224.795 82.3475 222.691 82.2922 221.01 82.6029C220.462 82.6046 219.917 82.6974 219.4 82.8775C219.235 82.9237 219.083 83.0077 218.956 83.1229C218.829 83.238 218.73 83.3811 218.668 83.5408C218.606 83.7006 218.582 83.8726 218.598 84.0432C218.614 84.2138 218.67 84.3784 218.76 84.5239C219.455 85.3235 220.417 85.8432 221.466 85.9861C222.723 86.2246 226.384 85.95 225.435 83.7917Z" fill="#FB0E39"/>
<path d="M216.637 99.8492C215.338 98.8616 213.36 99.9407 212.009 101.074C211.591 101.302 211.214 101.599 210.894 101.952C210.771 102.072 210.678 102.22 210.622 102.383C210.566 102.545 210.548 102.719 210.571 102.89C210.595 103.06 210.657 103.223 210.754 103.365C210.852 103.507 210.981 103.625 211.131 103.708C212.137 104.08 213.245 104.066 214.241 103.671C215.466 103.269 218.521 101.275 216.637 99.8492Z" fill="#FB0E39"/>
<path d="M218.3 114.625C216.765 113.766 214.972 114.936 213.82 116.271C213.435 116.533 213.106 116.869 212.851 117.259C211.495 119.655 215.558 119.599 216.806 119.067C218.337 118.424 220.532 115.869 218.3 114.625Z" fill="#FB0E39"/>
<path d="M228.798 122.781C227.207 122.329 225.781 123.733 224.975 125.196C224.63 125.532 224.384 125.955 224.262 126.421C223.768 128.871 227.462 127.994 228.523 127.226C229.859 126.221 231.12 123.458 228.798 122.781Z" fill="#FB0E39"/>
<path d="M155.19 275.008C155.044 273.636 153.947 272.557 152.519 273.162C152.473 273.179 152.43 273.203 152.392 273.234C152.186 273.269 151.993 273.362 151.838 273.502C151.683 273.642 151.57 273.823 151.514 274.025C150.892 275.157 150.661 276.462 150.856 277.738C150.901 278.112 151.023 278.473 151.215 278.797C151.408 279.121 151.665 279.402 151.971 279.621C152.052 279.781 152.167 279.922 152.308 280.032C152.45 280.142 152.614 280.219 152.79 280.258C152.965 280.296 153.147 280.295 153.321 280.255C153.496 280.214 153.66 280.135 153.8 280.023C155.116 279.196 155.337 276.362 155.19 275.008Z" fill="#FB0E39"/>
<path d="M133.34 296.551C133.11 296.498 132.871 296.497 132.64 296.547C132.409 296.598 132.192 296.699 132.005 296.844C131.938 296.82 131.867 296.81 131.796 296.816C131.725 296.821 131.655 296.842 131.593 296.877C131.531 296.911 131.476 296.959 131.434 297.016C131.391 297.074 131.362 297.139 131.347 297.209C130.813 299.145 131.014 301.21 131.912 303.006C132.552 304.085 133.869 304.872 135.02 303.994C137.182 302.403 136.025 297.008 133.34 296.551Z" fill="#FB0E39"/>
<path d="M122.821 301.269C122.577 301.053 122.284 300.898 121.968 300.82C121.651 300.741 121.32 300.741 121.003 300.819C120.687 300.897 120.393 301.05 120.149 301.267C119.905 301.483 119.717 301.755 119.601 302.06C119.268 302.86 119.121 303.725 119.172 304.59C119.223 305.455 119.47 306.297 119.894 307.053C120.011 307.281 120.152 307.496 120.316 307.693C120.955 308.823 122.199 309.687 123.442 308.771C125.875 307.012 124.997 302.787 122.821 301.269Z" fill="#FB0E39"/>
<path d="M115.945 294.851C115.744 293.424 114.499 290.644 112.58 291.595C112.163 291.843 111.827 292.206 111.613 292.641C111.399 293.076 111.315 293.564 111.373 294.045C111.226 295.948 111.391 298.617 113.407 299.331C115.726 300.136 116.146 296.277 115.945 294.851Z" fill="#FB0E39"/>
<path d="M109.708 283.439C109.58 283.133 109.377 282.863 109.118 282.655C108.859 282.446 108.553 282.306 108.226 282.246C107.899 282.186 107.562 282.209 107.247 282.311C106.931 282.414 106.645 282.595 106.417 282.836C106.209 283.07 106.065 283.353 105.996 283.658C105.674 284.603 105.556 285.605 105.651 286.599C105.745 287.592 106.05 288.554 106.544 289.421C107.478 290.865 108.94 290.299 109.581 288.927C109.977 288.07 110.192 287.141 110.214 286.196C110.236 285.252 110.064 284.314 109.708 283.439Z" fill="#FB0E39"/>
</svg>
