<svg width="500" height="400" viewBox="0 0 400 300" fill="none" xmlns="http://www.w3.org/2000/svg" xmlns:xlink="http://www.w3.org/1999/xlink">
<path xmlns="http://www.w3.org/2000/svg" d="M178.367 163H186.803C192.777 163 196.305 159.309 196.305 152.992V152.965C196.305 146.662 192.777 143.271 186.803 143.271H178.367V163ZM184.164 158.393V147.879H185.982C188.744 147.879 190.398 149.656 190.398 152.965V152.992C190.398 156.629 188.881 158.393 185.982 158.393H184.164ZM199.574 163H205.371V143.271H199.574V163ZM217.062 163.355C222.504 163.355 225.676 160.771 225.676 156.697V156.684C225.676 153.484 223.666 151.762 219.441 150.996L217.459 150.641C215.49 150.285 214.643 149.861 214.643 148.973V148.959C214.643 148.057 215.463 147.359 217.062 147.359C218.648 147.359 219.797 148.043 219.906 149.123L219.92 149.26H225.252L225.238 148.959C225.074 145.268 222.271 142.916 216.994 142.916C212.318 142.916 208.9 145.418 208.9 149.383V149.396C208.9 152.459 211.047 154.441 214.971 155.139L216.953 155.494C219.141 155.891 219.934 156.273 219.934 157.203V157.217C219.934 158.201 218.867 158.912 217.131 158.912C215.49 158.912 214.15 158.201 213.918 157.135L213.891 157.012H208.559L208.572 157.271C208.777 161.168 211.949 163.355 217.062 163.355ZM238.133 163.355C243.561 163.355 247.32 159.814 247.32 155.193V155.043H241.77L241.756 155.193C241.564 157.271 240.143 158.625 238.146 158.625C235.754 158.625 234.264 156.629 234.264 153.115V153.102C234.264 149.643 235.754 147.646 238.133 147.646C240.279 147.646 241.564 149.109 241.729 151.064L241.742 151.229H247.293V151.105C247.293 146.471 243.615 142.916 238.133 142.916C232.117 142.916 228.357 146.607 228.357 153.115V153.129C228.357 159.637 232.076 163.355 238.133 163.355ZM259.955 163.355C266.094 163.355 269.908 159.432 269.908 153.143V153.115C269.908 146.84 266.08 142.916 259.955 142.916C253.871 142.916 250.029 146.826 250.029 153.115V153.143C250.029 159.445 253.844 163.355 259.955 163.355ZM259.955 158.625C257.521 158.625 255.936 156.547 255.936 153.143V153.115C255.936 149.711 257.535 147.646 259.955 147.646C262.416 147.646 264.002 149.725 264.002 153.115V153.143C264.002 156.506 262.457 158.625 259.955 158.625ZM281.846 163.355C287.123 163.355 290.555 160.443 290.555 155.973V143.271H284.758V155.398C284.758 157.477 283.746 158.625 281.859 158.625C279.973 158.625 278.961 157.477 278.961 155.398V143.271H273.164V155.973C273.164 160.471 276.637 163.355 281.846 163.355ZM294.289 163H300.086V152.746H300.182L307.209 163H311.98V143.271H306.184V153.361H306.088L299.115 143.271H294.289V163ZM320.158 163H325.955V147.865H331.15V143.271H314.963V147.865H320.158V163Z" fill="white"/>
<path xmlns="http://www.w3.org/2000/svg" d="M219.328 197.234V197.312H223.703V197.234C223.703 195.156 225.312 193.625 227.5 193.625C229.594 193.625 231.078 194.969 231.078 196.656C231.078 198.219 230.375 199.359 228.094 201.641L219.594 209.828V213H235.984V209.25H225.812V209.156L231.312 203.859C233.797 201.391 235.672 199.281 235.672 196.469C235.672 192.703 232.406 189.953 227.656 189.953C222.734 189.953 219.328 192.969 219.328 197.234ZM248.641 213.5C254.312 213.5 257.75 208.953 257.75 201.672C257.75 194.391 254.281 189.938 248.641 189.938C243 189.938 239.516 194.406 239.516 201.688C239.516 208.984 242.969 213.5 248.641 213.5ZM248.641 209.719C245.953 209.719 244.312 206.812 244.312 201.688C244.312 196.609 245.984 193.719 248.641 193.719C251.312 193.719 252.953 196.594 252.953 201.688C252.953 206.828 251.328 209.719 248.641 209.719ZM271.047 195.859C271.047 192.281 269.062 190.016 265.906 190.016C262.766 190.016 260.766 192.281 260.766 195.859C260.766 199.453 262.766 201.703 265.906 201.703C269.062 201.703 271.047 199.453 271.047 195.859ZM265.906 198.938C264.891 198.938 264.266 197.781 264.266 195.844C264.266 193.906 264.891 192.734 265.906 192.734C266.922 192.734 267.547 193.906 267.547 195.844C267.547 197.781 266.922 198.938 265.906 198.938ZM266.781 213L274.719 202.109L283.219 190.453H279.453L271.75 201.016L263 213H266.781ZM285.453 207.469C285.453 203.891 283.469 201.625 280.312 201.625C277.172 201.625 275.172 203.891 275.172 207.469C275.172 211.062 277.172 213.328 280.312 213.328C283.469 213.328 285.453 211.062 285.453 207.469ZM280.312 210.547C279.297 210.547 278.672 209.391 278.672 207.453C278.672 205.516 279.297 204.344 280.312 204.344C281.328 204.344 281.953 205.516 281.953 207.453C281.953 209.391 281.328 210.547 280.312 210.547Z" fill="white"/>
<path xmlns="http://www.w3.org/2000/svg" d="M204 180H300L293.5 202L300 224H204L210 202L204 180Z" stroke="white" stroke-width="3"/>
<path d="M106.379 195.428C107.072 197.426 110.749 201.981 116.588 203.983L135.481 208.09C135.481 207.65 135.497 207.213 135.519 206.777C137.43 207.629 140.357 207.099 141.303 207.259L135.548 206.369C135.825 202.306 136.967 198.426 137.124 194.44C137.145 193.908 118.919 190.213 116.84 189.347C115.918 188.963 113.286 182.799 111.746 178.564L117.96 174.851L115.518 170.365L122.909 165.706C124.107 164.805 125.25 163.832 126.331 162.793L130.233 163.646C130.246 163.646 131.106 163.719 131.21 163.719C132.539 163.719 132.88 162.686 133.1 161.519L135.301 145.613C135.588 142.721 136.135 141.473 133.419 141.195L125.622 139.924C123.905 139.715 123.524 141.959 123.534 141.961L122.136 150.817C120.272 150.69 117.33 151.749 116.696 153.688C116.006 155.799 115.892 156.824 115.892 159.091L111.262 162.571L110.941 161.98L108.484 163.587C106.352 154.867 100.411 159.708 98.272 161.659C98.9019 159.088 99.7486 155.966 99.7486 154.911C99.7486 154.769 106.146 153.227 106.076 149.543C105.957 143.303 104.005 138.73 101.527 136.256C103.789 134.439 105.365 132.4 104.953 130.342C103.828 124.759 93.7894 129.836 90.7287 135.017C89.7358 136.696 89.2104 141.283 90.9521 142.337C90.8041 143.396 90.7188 144.462 90.6966 145.531C90.6082 148.814 90.3753 153.232 90.0057 155.211C86.3586 152.962 80.806 154.133 76.3635 162.306C77.4641 160.422 63.6066 149.408 54.1739 166.207C53.9248 166.654 52 169.641 49.6061 173.343C45.4754 179.731 39.9436 188.251 39.1885 189.546C34.7332 197.179 38.0477 201.339 43.7562 201.466L60.962 201.85C59.2686 206.694 58.1343 210.415 58.1632 211.641L60.4302 211.668C59.3216 215.966 59.4662 220.063 60.194 223.744C61.3284 229.43 63.8894 234.12 65.4784 237.023L65.4494 237.042H65.4896C65.7033 237.432 65.9009 237.791 66.0728 238.114L66.0841 238.302L65.4494 237.042L48.1971 286.953C47.0483 289.439 41.7608 296.352 41.0715 298.638C39.3042 298.168 38.0494 302.764 40.2232 303.206C43.5474 303.884 41.237 302.34 42.0885 305.062C42.3825 306.003 46.6611 305.557 46.3639 305.618C44.8552 309.975 50.7019 308.126 50.583 308.537C49.1707 313.678 55.6825 310.271 55.1684 311.347C53.8397 314.127 57.2876 314.389 58.025 314.079C61.1034 312.808 58.8573 314.832 60.0992 315.464C64.4662 317.681 65.8913 314.348 65.9925 314.324C66.5339 316.967 72.6778 315.643 71.0888 311.561C72.5879 302.788 63.8412 303.495 63.3495 302.93C62.0417 301.426 60.6503 297.456 62.0031 293.346L61.2914 293.025L76.7154 259.378L75.8558 257.686H75.9024L95.1133 295.979C94.935 296.192 94.8306 296.558 95.4347 297.441C97.1907 302.451 97.2582 307.894 98.7058 309.974C98.2238 310.428 98.6528 314.472 99.2955 314.61C101.646 315.124 102.208 311.693 102.861 313.701C103.222 314.813 105.076 313.775 105.592 313.338C107.236 311.955 106.497 311.262 107.379 312.032C109.758 314.107 111.318 310.358 111.342 310.348C112.883 311.206 111.681 311.587 114.421 311.087C116.831 310.647 117.512 308.537 117.65 308.72C118.688 310.086 121.096 309.609 121.786 308.399C122.706 306.77 122.142 307.316 122.534 307.47C124.141 308.102 124.302 308.012 125.834 307.125C126.578 306.696 126.986 305.472 127.028 305.457C127.247 306.06 128.826 306.198 129.358 306.064C129.963 305.918 130.501 305.571 130.883 305.079C131.265 304.587 131.469 303.98 131.461 303.357L130.953 301.611C131.379 301.129 127.081 293.351 119.258 295.184C111.533 296.996 110.759 292.943 109.472 292.075L102.515 270.335L87.8207 224.393C89.4131 224.375 91.0028 224.254 92.5796 224.031C92.5893 225.959 92.5989 227.854 92.5989 229.655V224.031C94.0902 223.833 95.5488 223.439 96.9369 222.858L92.5989 222.963V215.187C94.0963 215.227 95.6162 215.251 97.1731 215.251L92.5989 215.126V212.057L100.921 212.156C100.931 212.156 105.658 193.607 107.983 180.814L109.522 179.895L106.379 195.428ZM121.885 152.39L121.806 152.891C121.472 153.386 121.096 153.851 120.682 154.281C120.483 154.482 120.245 154.89 119.946 154.993C120.042 154.887 121.098 153.513 121.885 152.39ZM66.0841 238.131C66.1933 238.337 66.2945 238.53 66.3829 238.707L70.3996 246.727H70.3257L66.0793 238.305C66.0857 238.245 66.0841 238.189 66.0841 238.131ZM71.0647 311.611C70.8446 311.876 70.0911 311.974 69.1753 311.991C70.1923 311.884 70.8993 311.73 71.0567 311.611H71.0647ZM75.6871 257.329L70.4751 246.992H70.549L75.7353 257.328L75.6871 257.329ZM92.578 215.122L86.3136 214.949C88.3701 215.036 90.446 215.122 92.57 215.179C92.5507 217.691 92.5603 220.338 92.57 222.956L87.3981 223.08L87.2278 222.55L79.3905 219.06L79.1688 214.753C79.0868 214.74 79.0515 216.347 79.0595 218.912L69.6782 214.735C71.2383 214.663 72.7662 214.627 74.2733 214.619L69.0998 214.478L62.8338 211.687L92.6101 212.057C92.5909 213.042 92.578 214.07 92.57 215.122H92.578Z" fill="white"/>
<path d="M146.233 213.439L146.911 209.422L144.086 209.52L141.525 207.769L138.537 207.597L138.273 211.935C138.82 213.901 144.6 214.467 146.233 213.439Z" fill="white"/>
<path d="M139.118 187.219L138.476 189.989L137.046 192.142L138.652 192.365L138.68 196.281C138.317 196.188 137.804 196.072 137.018 195.934L140.2 199.043L142.406 203.071C142.139 203.553 142.123 204.187 142.446 204.86C142.552 205.081 141.048 206.046 141.642 207.336C141.908 207.908 142.43 208.034 144.213 208.972C145.699 209.758 149.567 209.221 149.399 206.87C149.364 206.363 149.599 206.008 149.881 205.627C150.011 205.499 150.122 205.354 150.211 205.195C150.597 204.68 150.808 204.056 150.813 203.413C150.815 202.762 150.923 202.116 151.135 201.501C151.185 201.372 151.223 201.238 151.25 201.102C151.295 200.942 151.34 200.771 151.385 200.569C151.723 199.073 150.722 198.029 149.207 197.356L149.849 193.919L151.763 194.184L150.971 191.533L151.072 188.789L139.118 187.219ZM143.346 202.341C143.03 202.43 142.75 202.614 142.542 202.867C142.628 202.725 142.745 202.604 142.884 202.513C143.023 202.422 143.181 202.363 143.346 202.341Z" fill="white"/>
<path d="M121.204 171.515C121.134 171.459 121.059 171.41 120.979 171.368L121.204 171.515Z" fill="white"/>
<path d="M129.899 177.211L132.968 179.22C132.599 177.711 132.293 176.178 129.899 177.211Z" fill="white"/>
<path d="M136.064 181.244L132.973 179.22C133.328 180.651 133.755 182.062 136.064 181.244Z" fill="white"/>
<path d="M74.2766 214.627L79.1721 214.761L86.3137 214.949C82.3067 214.788 78.3687 214.602 74.2766 214.627Z" fill="white"/>
<path d="M51.2321 170.817C49.6255 170.475 49.8343 170.001 48.8977 171.315C47.6123 173.118 45.4851 176.953 45.4851 176.953C45.5526 177.274 46.6596 177.128 46.9889 177.378L51.2321 170.817Z" fill="white"/>
<path d="M138.865 186.853L138.162 189.856L136.474 192.397L138.323 192.653L138.346 195.866C138.084 195.807 137.764 195.739 137.369 195.667C137.403 195.267 137.431 194.864 137.448 194.464C137.465 194.011 137.468 193.903 126.683 191.446C122.358 190.46 117.886 189.441 116.956 189.054C116.574 188.893 115.338 186.705 113.529 182.293C113.025 181.064 112.546 179.828 112.138 178.718L111.849 178.89L111.563 179.062L109.823 180.102L109.44 180.33L109.058 180.558L106.056 195.362L106.039 195.45L106.068 195.535C106.779 197.589 110.566 202.267 116.482 204.295L135.81 208.499V208.09C135.81 207.809 135.81 207.527 135.826 207.246C136.599 207.476 137.4 207.596 138.206 207.601L137.942 211.978L137.957 212.031C138.137 212.674 138.776 213.229 139.804 213.629C141.018 214.063 142.298 214.281 143.587 214.272C144.759 214.272 145.817 214.091 146.406 213.721L146.532 213.642L147.235 209.486C147.725 209.38 148.193 209.19 148.617 208.924C149.399 208.414 149.78 207.696 149.721 206.849C149.694 206.465 149.869 206.191 150.127 205.85C150.273 205.703 150.398 205.535 150.498 205.354C150.909 204.794 151.133 204.12 151.141 203.426C151.136 202.81 151.233 202.197 151.429 201.613L151.438 201.58C151.486 201.453 151.524 201.324 151.552 201.192C151.597 201.032 151.644 200.848 151.691 200.64C151.795 200.227 151.795 199.795 151.69 199.383C151.586 198.97 151.382 198.59 151.095 198.276C150.664 197.803 150.144 197.42 149.563 197.152L150.105 194.277L152.214 194.57L151.297 191.491L151.408 188.501L138.865 186.853ZM150.233 193.638L147.876 193.316L140.584 192.295L138.977 192.071L138.656 192.026L138.325 191.98L137.61 191.882L138.704 190.235L150.719 191.822L151.302 193.778L150.233 193.638ZM150.727 189.073L150.651 191.162L138.897 189.603L139.369 187.584L150.727 189.073ZM135.86 206.559C135.984 204.594 136.316 202.658 136.641 200.775C136.893 199.319 137.147 197.826 137.306 196.324C137.745 196.406 138.082 196.485 138.35 196.543V196.761C138.42 197.839 140.142 198.689 143.469 199.276C144.083 199.385 144.702 199.472 145.291 199.542C146.177 199.823 147.682 200.635 148.256 201.591C148.529 202.047 148.558 202.471 148.342 202.886C148.288 203.016 148.207 203.134 148.106 203.233C148.005 203.331 147.885 203.408 147.753 203.459C147.205 203.63 146.401 203.199 145.624 202.783C144.898 202.396 144.152 201.997 143.474 202.007V201.975C143.403 201.989 143.336 202.005 143.27 202.025C143.197 202.035 143.125 202.051 143.055 202.073C142.735 202.179 142.462 202.392 142.28 202.675C142.205 202.769 142.139 202.87 142.084 202.977C141.803 203.533 141.806 204.203 142.084 204.875C142.049 204.921 142.001 204.979 141.957 205.035C141.636 205.424 141.08 206.089 141.18 206.928C140.746 206.903 140.311 206.903 139.877 206.928C138.71 206.963 137.081 207.018 135.86 206.559ZM141.286 207.328C141.297 207.362 141.312 207.396 141.326 207.429H141.268L141.286 207.328ZM149.064 206.893C149.105 207.495 148.834 207.992 148.26 208.368C147.136 209.107 145.235 209.142 144.363 208.689C143.935 208.462 143.574 208.281 143.285 208.135C142.343 207.661 142.092 207.524 141.946 207.208C141.638 206.541 142.038 205.977 142.472 205.456L142.544 205.371C143.881 206.42 145.42 206.978 146.924 206.978C147.283 206.978 147.642 206.946 147.995 206.881C148.367 206.816 148.729 206.708 149.077 206.56C149.061 206.67 149.056 206.782 149.064 206.893ZM150.476 203.405C150.457 204.332 150.073 204.833 149.7 205.32L149.628 205.413C149.237 205.794 148.607 206.093 147.872 206.229C147.054 206.38 144.922 206.525 142.717 204.658C142.491 204.152 142.472 203.662 142.669 203.271C142.669 203.257 142.687 203.242 142.695 203.226H142.708C142.737 203.171 142.769 203.117 142.804 203.066C142.963 202.877 143.173 202.739 143.408 202.667C143.921 202.617 144.628 202.989 145.314 203.361C146.045 203.752 146.795 204.152 147.486 204.152C147.643 204.153 147.799 204.13 147.949 204.084C148.34 203.953 148.665 203.676 148.858 203.311V203.332C149.446 203.254 150.009 203.05 150.511 202.735C150.495 202.931 150.482 203.149 150.476 203.405ZM150.601 198.708C150.82 198.945 150.975 199.232 151.054 199.544C151.133 199.856 151.133 200.183 151.053 200.495C151.017 200.656 150.982 200.791 150.947 200.921C150.947 200.951 150.935 200.983 150.931 201.016C150.889 201.163 150.849 201.297 150.81 201.422C150.616 201.885 150.176 202.364 149.126 202.611C149.195 202.137 149.09 201.653 148.831 201.25C148.48 200.667 147.867 200.14 147.203 199.722C147.981 199.778 148.558 199.799 148.76 199.799H148.828L149.081 199.782L149.449 197.836C149.884 198.054 150.274 198.349 150.601 198.708Z" fill="#2A2A2B"/>
<path d="M131.797 303.344V303.298L131.315 301.609C131.349 301.424 131.315 301.089 130.981 300.457L130.966 300.409H130.955C130.892 300.288 130.82 300.158 130.735 300.015C130.314 299.308 126.411 293.16 119.197 294.851C113.269 296.243 111.628 294.125 110.542 292.724C110.32 292.407 110.06 292.118 109.769 291.861L88.2755 224.703C89.608 224.673 90.9381 224.572 92.26 224.401C92.2696 226.229 92.2777 227.964 92.2777 229.65H92.9364C92.9364 227.934 92.9364 226.168 92.9187 224.304C94.111 224.124 95.2825 223.826 96.4164 223.416L93.2513 233.395L93.8795 233.592L100.565 212.474H101.068L101.166 212.376C101.235 212.307 101.267 212.275 102.58 206.901C103.299 203.962 104.384 199.441 105.472 194.592C106.676 189.237 107.615 184.708 108.291 181.006L107.912 181.233L107.533 181.459L93.8924 189.61C88.1084 192.823 83.7254 194.417 80.6454 194.417C79.3354 194.417 78.2584 194.13 77.4144 193.554C74.0034 191.244 74.8164 184.878 75.6021 178.715C75.9362 176.098 76.2447 173.627 76.2447 171.5H76.9035C76.9035 173.669 76.5821 176.159 76.2495 178.799C75.4896 184.761 74.7023 190.926 77.7775 193.008C80.3931 194.775 85.5538 193.482 93.5566 189.038L107.408 180.762L107.684 180.601L107.71 180.587L108.063 180.376L108.441 180.15L109.23 179.679L109.612 179.449L109.994 179.221L111.328 178.426L111.616 178.254L111.903 178.081L117.502 174.735L115.216 170.536L115.396 170.826L115.582 170.709L115.862 170.532L115.939 170.484L123.071 165.986L123.095 165.969C124.256 165.096 125.366 164.155 126.418 163.153L130.198 163.98H130.224L130.426 163.996C130.883 164.033 131.127 164.051 131.198 164.051C132.946 164.051 133.249 162.444 133.412 161.583L135.616 145.655C135.651 145.292 135.693 144.954 135.73 144.641C135.891 143.307 136.003 142.345 135.481 141.691C135.116 141.236 134.49 140.984 133.45 140.878L125.65 139.606C124.032 139.41 123.336 141.021 123.196 141.9C123.196 141.909 123.196 141.918 123.196 141.927L121.845 150.486C119.83 150.47 117.025 151.611 116.371 153.595C115.682 155.706 115.557 156.765 115.55 158.935L111.373 162.075L111.301 162.13L111.034 162.329L110.839 162.475L110.825 162.448L108.855 163.733L108.568 163.923L108.278 164.111L105.113 166.18L104.814 166.376L91.1578 175.312C91.1133 175.361 91.0529 175.392 90.9875 175.399L89.1848 175.815L90.6196 174.877V174.885L90.8895 174.737C91.9547 174.147 92.6167 173.699 93.0633 173.275L108.119 163.429L108.404 163.243L108.687 163.058C108.017 160.622 106.977 159.095 105.574 158.5C103.242 157.51 100.526 159.316 98.8489 160.714C98.8891 160.553 98.9277 160.401 98.9678 160.243C99.4996 158.124 100.004 156.114 100.075 155.118L100.319 155.031C101.842 154.491 106.474 152.849 106.41 149.53C106.294 143.447 104.456 138.876 102.027 136.273C104.217 134.455 105.703 132.398 105.279 130.277C104.982 128.796 104.069 127.887 102.639 127.644C99.1333 127.051 92.8673 130.753 90.4477 134.848C89.4017 136.616 88.8747 141.124 90.6003 142.491C90.4671 143.496 90.3878 144.507 90.3625 145.52C90.2549 149.466 90.0203 152.893 89.7584 154.686C89.0603 154.316 88.3047 154.067 87.5235 153.95C83.5679 153.351 79.6509 156.05 76.5468 161.328C76.5275 161.289 76.505 161.251 76.4825 161.211C75.5667 159.625 71.8232 156.685 66.9116 156.685H66.8329C63.3094 156.707 58.2035 158.347 53.8864 166.039C53.7048 166.36 52.601 168.079 51.0811 170.442C50.8096 170.375 50.5991 170.307 50.4256 170.251C49.5435 169.962 49.3443 170.118 48.6293 171.122C47.344 172.92 45.2843 176.635 45.1975 176.792L45.138 176.898L45.1621 177.019C45.2473 177.431 45.7309 177.481 46.1984 177.529C46.274 177.537 46.3768 177.547 46.4764 177.562C42.9498 183.011 39.497 188.354 38.9026 189.371C36.1038 194.166 36.5922 197.094 37.4935 198.705C38.5684 200.633 40.7904 201.721 43.7483 201.787L60.5026 202.161C58.8783 206.841 57.8034 210.416 57.8323 211.641V211.962L59.9997 211.988C57.4082 222.768 62.4788 232.244 65.0961 237.023L47.8838 286.829C47.3858 287.899 46.1053 289.811 44.7508 291.836C42.7634 294.803 41.327 296.998 40.8402 298.28C40.5437 298.275 40.2532 298.364 40.0112 298.536C39.1082 299.149 38.5379 300.785 38.7901 302.046C38.9508 302.859 39.4328 303.386 40.1493 303.531C40.6147 303.634 41.0875 303.7 41.5632 303.728C41.5214 304.05 41.5632 304.503 41.7657 305.163C41.9826 305.856 43.2245 306.098 45.9076 305.966C45.6747 306.868 45.7582 307.573 46.1535 308.084C46.9648 309.115 48.782 308.944 49.8681 308.841L50.1669 308.815C49.9243 309.909 50.0384 310.693 50.5091 311.204C51.3382 312.104 53.0155 311.786 54.1241 311.577C54.3314 311.538 54.5676 311.493 54.7475 311.469C54.296 312.594 54.6254 313.301 54.9998 313.696C55.8272 314.572 57.5287 314.644 58.1424 314.392C58.9907 314.042 59.3008 313.998 59.4149 314.005C59.4116 314.1 59.402 314.195 59.386 314.289C59.3281 314.705 59.2253 315.404 59.9419 315.765C60.983 316.294 61.9534 316.556 62.8339 316.556C63.4315 316.563 64.022 316.426 64.5563 316.159C65.0907 315.891 65.5533 315.499 65.9058 315.017C66.2013 315.473 66.6619 315.797 67.1912 315.921C67.8555 316.079 68.5497 316.06 69.2042 315.865C69.8587 315.67 70.4505 315.307 70.9202 314.811C71.7011 313.944 71.8746 312.784 71.4167 311.537C71.8087 309.159 71.489 307.229 70.4655 305.803C68.8685 303.574 65.9797 303.115 64.4261 302.869C64.1364 302.833 63.8496 302.776 63.5681 302.698C62.2715 301.182 61.0296 297.337 62.3069 293.457L62.3985 293.179L61.7189 292.858L76.7444 260.096L94.7391 295.957C94.4836 296.484 94.8307 297.122 95.1472 297.588C95.9505 299.901 96.3988 302.311 96.7924 304.442C97.223 306.77 97.5957 308.793 98.3316 309.983C98.0103 310.828 98.2786 312.992 98.5308 313.89C98.7156 314.533 98.9309 314.854 99.2329 314.928C99.4107 314.968 99.5923 314.988 99.7744 314.988C100.851 314.988 101.556 314.246 102.001 313.776C102.119 313.643 102.247 313.52 102.385 313.408C102.46 313.53 102.518 313.661 102.556 313.799C102.602 313.961 102.689 314.108 102.809 314.226C102.928 314.344 103.076 314.43 103.238 314.475C104.172 314.74 105.528 313.833 105.809 313.585C106.308 313.194 106.717 312.701 107.009 312.139L107.17 312.274C107.837 312.857 108.519 313.078 109.197 312.943C110.287 312.719 111.058 311.609 111.482 310.809C111.661 310.93 111.823 311.075 111.964 311.239C112.411 311.721 112.647 311.741 114.48 311.4C116.342 311.06 117.247 309.793 117.65 309.196C117.928 309.442 118.254 309.628 118.607 309.742C118.96 309.856 119.333 309.895 119.702 309.858C120.729 309.789 121.659 309.271 122.072 308.542C122.26 308.208 122.393 307.962 122.477 307.784C124.109 308.426 124.395 308.317 126 307.39C126.54 307.078 126.905 306.453 127.125 306.015C127.795 306.445 129.025 306.469 129.443 306.365C130.119 306.202 130.721 305.815 131.148 305.266C131.576 304.717 131.804 304.04 131.797 303.344ZM111.352 162.922L111.619 162.722L111.691 162.668L116.217 159.274V159.114C116.217 156.909 116.325 155.891 117.004 153.812C117.531 152.205 119.989 151.182 121.749 151.156C121.863 151.156 121.972 151.156 122.08 151.164C122.154 151.164 122.226 151.17 122.297 151.183C122.224 151.309 122.123 151.466 122.004 151.643C121.885 151.82 121.731 152.046 121.572 152.271C120.838 153.311 119.871 154.583 119.7 154.789L118.953 155.693L120.063 155.309C120.361 155.206 120.581 154.933 120.757 154.715C120.818 154.639 120.876 154.567 120.918 154.519C121.034 154.405 121.153 154.271 121.273 154.13C121.394 153.989 121.548 153.797 121.689 153.611C121.831 153.425 121.972 153.229 122.117 153.02C122.902 151.895 123.738 150.459 124.506 149.143C125.361 147.682 126.423 145.864 126.755 145.709C127.162 145.57 127.695 145.454 127.931 145.709C128.217 146.011 128.167 146.845 127.824 147.93C127.534 148.266 127.147 149.021 126.558 150.179C125.855 151.567 124.895 153.468 124.358 153.768L124.679 154.344C125.34 153.974 126.117 152.507 127.144 150.476C127.356 150.057 127.571 149.631 127.766 149.268L127.949 149.355L128.098 149.08C129.498 146.501 130.348 146.008 130.81 146.05C130.886 146.046 130.962 146.063 131.029 146.099C131.096 146.135 131.152 146.188 131.191 146.252C131.635 147.056 130.306 149.692 129.745 150.82C129.53 151.249 129.371 151.564 129.307 151.749C128.527 153.299 126.956 156.286 126.635 156.569C126.663 156.549 126.694 156.535 126.728 156.527L126.877 157.17C127.038 157.133 127.187 157.096 128.098 155.46L127.846 156.235L129.904 152.027C130.536 150.741 130.881 150.557 130.95 150.533C131.122 150.693 131.324 151.773 130.875 154.128C130.352 156.86 129.268 159.422 126.215 162.448C126.124 162.539 126.031 162.631 125.934 162.722L125.645 162.997C124.71 163.864 123.732 164.682 122.714 165.451L115.629 169.912L115.613 169.922L114.945 168.837L111.85 163.844L111.305 162.962L111.352 162.922ZM127.297 143.642C127.194 143.846 126.953 144.161 126.739 144.204C125.833 144.389 126.244 143.349 126.355 143.028C126.757 141.873 127.854 142.525 127.297 143.646V143.642ZM127.345 305.327L127.232 305.018L126.924 305.129C126.782 305.179 126.739 305.28 126.664 305.451C126.53 305.748 126.182 306.538 125.677 306.826C124.188 307.686 124.12 307.726 122.69 307.162C122.673 307.096 122.636 307.038 122.585 306.994C122.533 306.95 122.47 306.923 122.403 306.916C122.323 306.909 122.244 306.93 122.179 306.975C122.113 307.02 122.066 307.087 122.044 307.163C121.887 307.528 121.707 307.882 121.505 308.224C121.202 308.757 120.463 309.152 119.663 309.207C118.926 309.257 118.291 309.005 117.92 308.515C117.886 308.469 117.842 308.433 117.791 308.409C117.74 308.384 117.684 308.373 117.628 308.375C117.417 308.375 117.306 308.535 117.146 308.785C116.778 309.328 116.013 310.457 114.371 310.757C112.729 311.058 112.668 311.021 112.461 310.794C112.191 310.493 111.87 310.242 111.513 310.054L111.363 309.972L111.203 310.046C111.119 310.088 111.054 310.161 111.023 310.25C110.464 311.41 109.749 312.157 109.061 312.297C108.595 312.393 108.097 312.218 107.599 311.778C107.263 311.485 107.093 311.339 106.852 311.386C106.611 311.432 106.53 311.609 106.448 311.786C106.194 312.292 105.831 312.735 105.383 313.082C104.985 313.417 103.928 313.988 103.413 313.841C103.355 313.826 103.301 313.796 103.259 313.752C103.217 313.709 103.188 313.654 103.176 313.595C103.054 313.219 102.88 312.825 102.525 312.743C102.17 312.661 101.855 312.967 101.518 313.322C101.021 313.846 100.403 314.493 99.3984 314.286C99.0562 313.953 98.7445 311.612 98.8377 310.606C98.8441 310.484 98.8685 310.363 98.91 310.248H98.9309L99.2972 310.144L130.508 301.227L130.59 301.508L130.691 301.855L130.789 302.196L131.138 303.396C131.133 303.935 130.948 304.457 130.612 304.879C130.277 305.301 129.81 305.599 129.286 305.725C128.733 305.87 127.46 305.652 127.345 305.332V305.327ZM105.655 292.76C105.631 289.143 105.627 284.76 105.655 281.211L109.054 291.833L105.655 292.76ZM104.998 292.938L103.738 293.282C101.993 292.687 99.6008 292.84 97.5877 292.97C96.9033 293.013 96.2526 293.055 95.6822 293.065C95.1375 291.069 95.1632 287.111 95.2146 282.869C96.2333 282.936 97.2824 283.03 98.3235 283.115C100.345 283.288 102.435 283.467 104.169 283.467V282.808C102.462 282.808 100.473 282.638 98.3846 282.459C97.329 282.369 96.2622 282.278 95.2275 282.21C95.2789 277.901 95.3239 273.475 94.7857 270.658C96.071 270.703 97.3563 270.737 98.7284 270.737C99.8531 270.737 101.028 270.715 102.289 270.662L105.03 279.225C104.967 283.071 104.967 288.589 104.996 292.943L104.998 292.938ZM67.1397 251.396C66.9437 249.347 66.7911 247.726 66.7509 247.124C67.829 247.187 69.0388 247.251 70.3322 247.315L75.3546 257.325C72.4626 257.183 69.8743 257.045 67.6539 256.913C67.49 255.115 67.3165 253.258 67.1397 251.396ZM66.4505 227.669C66.4666 226.371 66.481 225.046 66.4939 223.695C69.5722 223.724 72.9029 223.967 76.1708 224.205L78.7945 224.393C78.8443 227.145 78.9182 230.119 79.0114 232.967C79.0291 233.499 79.0484 234.062 79.0693 234.648C74.3007 234.393 69.3264 234.709 66.3959 236.094C66.383 233.273 66.4151 230.506 66.4505 227.669ZM66.5131 219.833C66.5131 219.088 66.5613 218.363 66.6095 217.662C66.6802 216.618 66.7381 215.752 66.6095 215.121C67.1284 215.164 67.6495 215.174 68.1696 215.15C71.8649 214.92 75.3418 214.915 78.7913 215C78.7383 215.575 78.7029 216.965 78.7335 220.501C78.7431 221.518 78.7576 222.603 78.7752 223.731L76.2046 223.548C72.9254 223.308 69.5851 223.066 66.4858 223.035C66.504 221.988 66.5131 220.92 66.5131 219.833ZM79.1287 215.082L79.1399 215.008H79.3793C79.3451 215.037 79.305 215.059 79.2619 215.072C79.2187 215.084 79.1733 215.088 79.1287 215.082ZM79.7232 247.04C76.6448 246.929 73.515 246.799 70.7515 246.668L66.677 238.567C66.5983 238.406 66.5164 238.237 66.4135 238.057C66.4135 237.649 66.4039 237.243 66.4007 236.838C69.1481 235.392 74.2332 235.071 79.0934 235.331C79.2299 238.98 79.434 243.4 79.7167 247.04H79.7232ZM66.436 239.55L69.9884 246.631C68.8042 246.573 67.7005 246.513 66.7092 246.457C66.5678 244.053 66.4826 241.769 66.436 239.55ZM71.0954 247.35C73.793 247.479 76.8103 247.604 79.7714 247.71C80.0124 250.614 80.3096 252.927 80.6679 253.796C80.8912 254.336 80.9892 255.899 81.0567 257.59L79.45 257.517C78.2954 257.466 77.1798 257.412 76.1033 257.357L71.0954 247.35ZM92.7532 250.491C92.8304 252.741 92.9235 255.395 93.0424 258.054C90.0524 257.958 86.0952 257.808 81.717 257.619C81.6512 255.816 81.5403 254.182 81.2768 253.544C80.9796 252.823 80.6936 250.813 80.4349 247.733C85.0718 247.893 89.519 248.003 92.3548 248.003H92.6649C92.6922 248.756 92.7227 249.605 92.7532 250.491ZM81.0792 258.26C81.0953 258.799 81.1081 259.341 81.121 259.855C81.1901 262.631 81.2334 263.419 81.4102 263.679L81.9564 263.308L81.9693 263.332C81.86 263.068 81.8183 261.352 81.7797 259.839C81.7668 259.33 81.754 258.806 81.7395 258.289C85.9538 258.473 89.9833 258.626 93.073 258.722C93.277 263.129 93.555 267.471 93.9807 269.969L92.2937 269.898C90.1408 269.805 87.9123 269.709 85.3947 269.709V270.368C87.8995 270.368 90.1183 270.464 92.2648 270.555L94.1044 270.633C94.6604 273.364 94.6154 277.826 94.5639 282.17C92.2648 282.04 90.1633 282.053 88.7125 282.475L76.4536 258.04C77.9896 258.12 79.5432 258.192 81.0792 258.26ZM94.6539 270C94.2265 267.567 93.9406 263.197 93.7333 258.743C95.6099 258.798 97.0816 258.83 97.9556 258.83C98.1741 258.83 98.3541 258.83 98.4939 258.83L102.075 270.02C99.3149 270.126 96.9627 270.085 94.6539 270ZM93.7028 258.075C93.5823 255.403 93.4907 252.734 93.412 250.469C93.3782 249.505 93.3493 248.682 93.3236 247.998C94.0691 247.99 94.6459 247.969 95.0106 247.937L98.2866 258.176C97.5797 258.181 95.9601 258.146 93.7028 258.075ZM94.8049 247.294C94.4579 247.32 93.947 247.334 93.2979 247.341C93.2336 245.713 93.1902 245.019 93.1372 244.836L92.509 245.034C92.5492 245.194 92.5958 246.081 92.6456 247.344C89.8548 247.344 85.2228 247.231 80.3867 247.063C80.1489 244.042 79.9369 240.09 79.7617 235.363C83.2964 235.594 86.635 236.125 88.804 236.74L88.984 236.107C86.7234 235.464 83.3173 234.92 79.736 234.687C79.72 234.235 79.7039 233.779 79.6894 233.315C79.5818 230.116 79.5079 227.084 79.4613 224.436C81.9388 224.597 84.397 224.729 86.7282 224.729C87.0174 224.729 87.3018 224.729 87.5862 224.729L94.8049 247.294ZM88.0569 224.055L87.5444 222.449L86.9178 222.661L87.3709 224.075C84.8516 224.102 82.1605 223.965 79.4436 223.784C79.3665 219.139 79.3777 215.799 79.4436 215.026C81.5323 215.084 83.6209 215.174 85.7417 215.265C87.8625 215.357 90.0187 215.448 92.2327 215.509C92.215 218.18 92.2327 220.993 92.2423 223.752C90.8546 223.932 89.4578 224.033 88.0586 224.055H88.0569ZM96.6639 222.609C95.4566 223.102 94.1951 223.449 92.9059 223.644C92.8914 220.922 92.8786 218.151 92.8962 215.521C94.3005 215.554 95.7272 215.577 97.1812 215.577V214.918C95.7352 214.918 94.3053 214.896 92.901 214.86C92.901 214.017 92.9187 213.189 92.9332 212.383L99.8756 212.466L96.6639 222.609ZM43.7627 201.131C41.0475 201.072 39.0247 200.097 38.0687 198.386C36.8958 196.297 37.3811 193.289 39.4713 189.71C40.061 188.701 43.5362 183.326 47.0725 177.859L47.336 177.452L47.736 176.835C48.4333 175.756 49.1242 174.69 49.7797 173.675C49.9548 173.675 50.1348 173.683 50.326 173.683C51.7141 173.683 53.5297 173.574 55.4336 173.458C57.3985 173.341 59.431 173.219 61.0376 173.219H61.9374C64.312 173.219 68.6404 173.208 71.4167 173.379L71.7605 173.402L71.9951 173.42C70.7724 176.692 69.4244 180.264 68.0877 183.73C67.7663 184.57 67.445 185.404 67.1237 186.225C65.3563 190.807 63.6838 195.02 62.4933 197.876L62.3808 197.902L62.1719 197.953L62.0193 197.989L61.9502 198.127V198.141C60.7516 200.551 60.5813 201.25 60.6199 201.515L43.7627 201.131ZM51.7672 170.605C53.2292 168.336 54.2784 166.697 54.4599 166.373C58.6228 158.958 63.4894 157.375 66.8313 157.355H66.918C71.5067 157.355 75.096 160.128 75.9154 161.551C76.1162 161.898 76.113 162.086 76.076 162.144L76.0471 162.205C76.0452 162.213 76.0425 162.221 76.0391 162.229C75.8077 162.917 75.5073 163.78 75.1506 164.782C74.3906 166.909 73.372 169.695 72.22 172.769L71.9983 172.751L71.6545 172.726C68.8974 172.541 64.5402 172.549 61.9261 172.554H61.0376C59.4117 172.554 57.3696 172.676 55.395 172.795C53.4204 172.913 51.5824 173.026 50.2087 173.015L51.494 171.013L51.7639 170.595L51.7672 170.605ZM71.4858 196.899C69.3537 198.331 66.0022 200.151 61.8458 200.988L61.6 201.037L61.4393 201.067L61.3413 201.088C61.6733 200.223 62.0487 199.376 62.4659 198.549H62.4901L62.5672 198.532L62.9672 198.432C67.8997 197.165 72.0208 194.589 74.6718 191.115C74.9549 191.885 75.2767 192.64 75.6358 193.378C75.2727 193.853 73.8042 195.347 71.4858 196.899ZM102.528 128.295C103.682 128.491 104.39 129.202 104.633 130.409C105.001 132.246 103.603 134.104 101.553 135.806L101.285 136.023C101.199 136.092 101.111 136.161 101.023 136.228C98.15 138.45 94.2747 140.342 92.0575 141.426L91.3811 141.759L91.0229 141.935L90.9827 141.956C90.8871 141.874 90.8014 141.782 90.7272 141.68C89.7022 140.279 90.1793 136.601 91.0148 135.186C93.1244 131.616 98.5019 128.24 101.834 128.24C102.067 128.239 102.299 128.257 102.528 128.295ZM90.6678 152.395C90.8284 150.515 90.9538 148.018 91.0212 145.547C91.0464 144.549 91.1252 143.552 91.2574 142.562C91.5627 142.401 91.929 142.229 92.3467 142.025C94.7776 140.838 98.624 138.96 101.505 136.709C101.992 137.231 102.43 137.796 102.814 138.397C104.1 140.388 105.645 143.939 105.751 149.557C105.806 152.401 101.511 153.924 100.099 154.424C99.5671 154.614 99.4241 154.663 99.4241 154.919C99.4241 155.735 98.8666 157.954 98.3284 160.097C98.2095 160.579 98.0906 161.042 97.9797 161.492C97.8608 161.601 97.7516 161.702 97.6584 161.789C97.5218 161.916 97.3804 162.048 97.3371 162.075C97.1876 162.178 96.5482 162.088 96.0083 161.995C95.991 161.923 95.9701 161.853 95.9457 161.784C95.9023 161.672 95.8429 161.516 94.2346 160.637L93.9598 160.488L93.9518 160.5C93.4377 158.161 92.1347 156.215 90.3593 155.052C90.4637 154.45 90.5666 153.601 90.6678 152.388V152.395ZM92.3146 169.202C92.8336 167.435 93.3911 165.544 93.7606 163.977C93.7879 163.868 93.812 163.76 93.8361 163.656C93.8602 163.551 93.8875 163.428 93.9116 163.317C93.9839 162.979 94.045 162.663 94.0916 162.375C94.1109 162.261 94.1269 162.152 94.1398 162.046C94.1526 161.94 94.1671 161.823 94.1767 161.725C94.1864 161.627 94.1944 161.484 94.196 161.376C94.3567 161.469 94.527 161.564 94.678 161.656L94.9367 161.816C95.0784 161.9 95.2157 161.99 95.348 162.088C95.3619 162.133 95.3748 162.181 95.3866 162.232C95.4121 162.346 95.4304 162.462 95.4412 162.578C95.4753 163.042 95.4678 163.508 95.4187 163.971C95.4074 164.082 95.3962 164.194 95.3833 164.31C95.3705 164.425 95.3576 164.527 95.3432 164.631C95.1038 166.435 94.5398 168.625 94.0257 169.878C93.8329 170.343 93.7044 170.727 93.5758 171.066C93.179 172.174 93.0039 172.672 91.7491 173.476C91.545 173.609 91.3137 173.751 91.047 173.905C91.2028 172.979 91.8101 170.916 92.3146 169.196V169.202ZM46.2643 176.871C46.1695 176.861 46.0378 176.847 45.9285 176.829C46.4427 175.916 48.1056 172.989 49.166 171.501C49.4102 171.157 49.648 170.844 49.7701 170.78C49.8311 170.751 49.942 170.78 50.2215 170.875C50.3517 170.916 50.5107 170.968 50.7035 171.022L46.862 176.967C46.6658 176.918 46.4659 176.886 46.2643 176.871ZM60.6826 211.989L92.2761 212.378C92.26 213.181 92.2503 214.006 92.2439 214.846C90.038 214.783 87.8866 214.685 85.7771 214.602C79.8999 214.349 74.3489 214.11 68.1375 214.494C67.541 214.52 66.9433 214.503 66.3493 214.443C66.2838 214.353 66.204 214.274 66.1131 214.21C65.7564 213.961 65.2632 213.977 64.6125 214.251L64.3634 214.221C63.3029 214.066 62.2343 213.972 61.1629 213.94V214.598C62.2074 214.631 63.2492 214.723 64.2831 214.875C64.831 214.942 65.3869 215.01 65.9267 215.064C66.0874 215.593 66.0199 216.62 65.9524 217.621C65.9058 218.3 65.8544 219.067 65.8544 219.836C65.8544 220.922 65.8496 221.989 65.8399 223.037C64.0413 223.02 62.2437 223.131 60.4608 223.369C59.8005 219.876 59.688 216.024 60.6826 211.994V211.989ZM60.591 224.009C62.3294 223.78 64.0817 223.673 65.8351 223.687C65.8244 225.037 65.81 226.36 65.7917 227.656C65.7548 230.612 65.7211 233.493 65.7387 236.441C65.6889 236.472 65.6391 236.502 65.5909 236.534C64.0453 233.713 61.7092 229.309 60.591 224.014V224.009ZM65.5315 237.797L65.7548 238.212C65.7918 240.837 65.8785 243.539 66.0488 246.406C64.553 246.314 63.3673 246.229 62.6411 246.153L65.5315 237.797ZM62.421 246.794C63.1649 246.878 64.447 246.973 66.0874 247.074V247.13C66.1243 247.723 66.2721 249.286 66.4778 251.447C66.6208 252.954 66.7991 254.841 66.9839 256.862C62.9785 256.616 60.2616 256.396 59.1594 256.219L62.421 246.794ZM58.9457 256.849C60.1074 257.048 63.1408 257.286 67.0498 257.525C67.4257 261.703 67.8065 266.322 67.9302 269.334C64.6366 268.881 60.1347 268.427 57.135 268.38C56.9069 266.706 56.5968 265.448 56.1855 264.834L58.9457 256.849ZM55.8931 265.686C56.1341 266.288 56.3301 267.217 56.4859 268.38C55.9675 268.377 55.4493 268.404 54.9339 268.46L55.8931 265.686ZM54.6897 269.166C55.3103 269.064 55.9391 269.02 56.5679 269.036C56.9165 272.088 57.029 276.463 56.9936 280.764C54.4342 280.565 51.7302 280.342 50.8883 280.176L54.6897 269.166ZM50.673 280.79C51.335 280.951 52.9223 281.1 56.9872 281.417C56.9471 284.75 56.8185 287.994 56.6418 290.496L48.6084 286.772L50.673 280.79ZM67.3824 315.275C66.971 315.165 66.4553 314.896 66.3236 314.257L66.2561 313.926L65.9267 314.003C65.7853 314.035 65.7243 314.13 65.6407 314.26C64.4727 316.084 62.6604 316.389 60.2552 315.168C59.9917 315.033 59.9917 314.822 60.0543 314.364C60.0993 314.043 60.1491 313.685 59.8632 313.462C59.7358 313.37 59.5812 313.324 59.4245 313.331C59.1032 313.331 58.6212 313.471 57.9078 313.765C57.556 313.911 56.1293 313.897 55.4978 313.227C55.1187 312.827 55.1122 312.237 55.4769 311.474C55.5225 311.396 55.5441 311.306 55.5393 311.216C55.5344 311.126 55.5033 311.039 55.4496 310.966C55.2327 310.684 54.807 310.766 54.0213 310.913C53.0573 311.095 51.5936 311.371 51.0136 310.741C50.6618 310.362 50.628 309.644 50.9124 308.609C50.9281 308.553 50.9299 308.493 50.9176 308.435C50.9053 308.378 50.8792 308.324 50.8417 308.278C50.681 308.089 50.4481 308.118 49.8263 308.169C48.9362 308.253 47.2797 308.409 46.6917 307.66C46.3993 307.289 46.3704 306.696 46.629 305.893L46.756 305.865L46.7174 305.562C46.6772 305.255 46.4105 305.269 46.1294 305.285C42.6204 305.483 42.4212 304.978 42.4147 304.964C42.0854 303.913 42.2862 303.638 42.283 303.638L42.5224 303.478L42.2701 302.965L41.997 303.052C41.997 303.052 41.6371 303.158 40.3004 302.891C39.8505 302.8 39.5661 302.474 39.4553 301.927C39.256 300.934 39.7155 299.556 40.4 299.091C40.4856 299.032 40.5815 298.989 40.6828 298.965C40.7916 298.94 40.905 298.943 41.0121 298.974C41.1017 299 41.1868 299.04 41.2644 299.091C41.3672 299.157 41.4748 299.223 41.5857 299.289C42.3312 299.734 43.2438 300.166 44.203 300.619C45.6779 301.317 47.3504 302.107 48.8623 303.152C49.8118 303.809 50.8594 304.61 51.968 305.459C53.5168 306.644 55.2183 307.946 56.9728 309.085C58.8734 310.317 60.8384 311.357 62.7455 311.852C63.4792 312.05 64.235 312.154 64.9948 312.162C65.1973 312.162 65.5957 312.187 66.0585 312.216C67.392 312.303 68.4685 312.35 69.2943 312.33C70.0253 312.313 70.5668 312.242 70.9267 312.099C71.1644 312.986 71.0038 313.768 70.4543 314.381C69.7201 315.169 68.4026 315.563 67.3743 315.283L67.3824 315.275ZM61.134 292.584L57.278 290.799C57.466 288.274 57.609 284.932 57.6524 281.481L58.1472 281.519C61.3075 281.762 64.561 282.013 65.8737 282.233L61.134 292.584ZM66.1629 281.611C64.9145 281.375 61.6482 281.129 58.2035 280.859L57.6652 280.817C57.7038 276.558 57.5897 272.201 57.2218 269.048C60.1668 269.105 64.6767 269.548 67.9575 270.012C67.9977 271.346 67.972 272.262 67.8515 272.535L68.4524 272.806C68.5986 272.485 68.6436 271.521 68.6131 270.104C69.7024 270.265 70.6166 270.425 71.2335 270.562L66.1629 281.611ZM71.5099 269.943C70.8849 269.799 69.8518 269.622 68.5906 269.439C68.4893 266.609 68.1455 262.321 67.7181 257.577C70.1506 257.723 72.8868 257.869 75.7017 258.009L76.37 259.341L71.5099 269.943ZM89.0226 283.079C90.3866 282.713 92.3789 282.708 94.5656 282.834C94.5109 287.313 94.4836 291.489 95.1327 293.503L95.454 293.402V293.724C96.0967 293.724 96.8518 293.675 97.6488 293.624C99.1895 293.526 100.965 293.412 102.437 293.637L95.3046 295.578L89.0226 283.079Z" fill="#2A2A2B"/>
<path d="M143.736 186.088C144.028 183.532 143.284 181.458 141.697 180.397C141.06 179.979 140.319 179.746 139.558 179.723C138.796 179.7 138.043 179.888 137.382 180.267C135.964 181.056 134.938 181.321 134.329 181.056C133.696 180.78 133.485 179.931 133.262 179.019C133.021 178.042 132.772 177.031 131.909 176.67C131.157 176.356 130.119 176.618 128.64 177.496C128.119 177.806 127.73 177.915 127.484 177.817C127.153 177.69 126.978 177.136 126.792 176.548C126.451 175.468 125.989 173.99 124.037 174.406C123.296 174.567 122.788 174.546 122.526 174.353C122.264 174.16 122.205 173.688 122.154 173.159C122.088 172.43 122.006 171.524 121.128 171.071L120.826 171.655C121.344 171.924 121.426 172.425 121.498 173.219C121.554 173.848 121.614 174.504 122.141 174.883C122.573 175.205 123.22 175.254 124.18 175.044C125.475 174.767 125.786 175.508 126.169 176.74C126.394 177.451 126.625 178.186 127.255 178.426C127.709 178.599 128.259 178.481 128.982 178.052C130.23 177.309 131.133 177.046 131.659 177.267C132.216 177.5 132.415 178.309 132.623 179.165C132.864 180.139 133.135 181.242 134.069 181.649C134.898 182.01 136.053 181.75 137.703 180.833C138.258 180.513 138.891 180.353 139.532 180.371C140.172 180.389 140.796 180.584 141.332 180.934C142.708 181.853 143.346 183.701 143.082 186.003L143.736 186.088Z" fill="#2A2A2B"/>
<path d="M146.398 185.764L147.057 185.749C147.004 183.42 146.093 180.052 143.696 178.225C142.292 177.155 140.576 176.834 138.734 177.298L138.691 177.313C136.247 178.306 135.799 177.473 135.119 176.215C134.422 174.922 133.553 173.314 130.232 173.733L130.314 174.387C133.19 174.024 133.874 175.298 134.539 176.529C135.23 177.814 135.944 179.131 138.918 177.931C140.571 177.521 142.046 177.796 143.297 178.751C145.367 180.325 146.345 183.408 146.398 185.764Z" fill="#2A2A2B"/>

</svg>

